<svg xmlns="http://www.w3.org/2000/svg" width="600" height="600"><defs><filter id="a" width="1.38" height="1.422" x="-.157" y="-.174" style="color-interpolation-filters:sRGB"><feColorMatrix values="1 0 0 0 0 0 1 0 0 0 0 0 1 0 0 0 0 0 1 1"/><feColorMatrix result="colormatrix2" type="hueRotate" values="48"/><feColorMatrix in="colormatrix2" result="colormatrix3" values="-1 0 0 0 1 0 -1 0 0 1 0 0 -1 0 1 0 0 0 1 0"/><feBlend in="colormatrix3" in2="colormatrix2" mode="lighten" result="blend1"/><feBlend in2="blend1" mode="multiply" result="blend2"/><feComposite in2="SourceGraphic" operator="in" result="fbSourceGraphic"/><feColorMatrix in="fbSourceGraphic" result="fbSourceGraphicAlpha" values="0 0 0 -1 0 0 0 0 -1 0 0 0 0 -1 0 0 0 0 1 0"/><feOffset dx="3" dy="3" in="fbSourceGraphic"/><feGaussianBlur result="blur" stdDeviation="3"/><feFlood flood-color="#000" flood-opacity="1" result="flood"/><feComposite in="flood" in2="fbSourceGraphic" operator="in" result="composite"/><feBlend in="blur" in2="composite" result="fbSourceGraphic"/><feColorMatrix in="fbSourceGraphic" result="fbSourceGraphicAlpha" values="0 0 0 -1 0 0 0 0 -1 0 0 0 0 -1 0 0 0 0 1 0"/><feMorphology in="fbSourceGraphicAlpha" operator="dilate" radius="3.6" result="result1"/><feGaussianBlur in="result1" result="result0" stdDeviation="3.6"/><feDiffuseLighting surfaceScale="-5"><feDistantLight azimuth="225" elevation="45"/></feDiffuseLighting><feComposite in2="result0" operator="in" result="result91"/><feComposite in="fbSourceGraphic" in2="result91" result="fbSourceGraphic"/><feColorMatrix in="fbSourceGraphic" result="fbSourceGraphicAlpha" values="0 0 0 -1 0 0 0 0 -1 0 0 0 0 -1 0 0 0 0 1 0"/><feFlood flood-color="#FFF" flood-opacity=".502" result="flood"/><feGaussianBlur in="fbSourceGraphic" result="blur" stdDeviation="13"/><feOffset dx="16" dy="16" in="blur" result="offset"/><feComposite in="flood" in2="offset" operator="out" result="comp1"/><feComposite in="comp1" in2="fbSourceGraphic" operator="atop" result="fbSourceGraphic"/><feColorMatrix in="fbSourceGraphic" result="fbSourceGraphicAlpha" values="0 0 0 -1 0 0 0 0 -1 0 0 0 0 -1 0 0 0 0 1 0"/><feFlood flood-color="#030303" flood-opacity=".502" result="flood"/><feGaussianBlur in="fbSourceGraphic" result="blur" stdDeviation="13"/><feOffset dx="16" dy="16" in="blur" result="offset"/><feComposite in="flood" in2="offset" operator="in" result="comp1"/><feComposite in="fbSourceGraphic" in2="comp1" result="comp2"/></filter><filter id="b" width="1.444" height="1.437" x="-.177" y="-.174" style="color-interpolation-filters:sRGB"><feFlood flood-color="#030303" flood-opacity=".502" result="flood"/><feGaussianBlur in="SourceGraphic" result="blur" stdDeviation="13"/><feOffset dx="16" dy="16" in="blur" result="offset"/><feComposite in="flood" in2="offset" operator="out" result="comp1"/><feComposite in="comp1" in2="SourceGraphic" operator="atop" result="comp2"/></filter><filter id="c" width="1.884" height="3.256" x="-.432" y="-1.13" style="color-interpolation-filters:sRGB"><feFlood flood-color="#BCF6E6" flood-opacity=".961" result="flood"/><feGaussianBlur in="SourceGraphic" result="blur" stdDeviation="23.18"/><feOffset dx="2.61" dy="-.159" in="blur" result="offset"/><feComposite in="flood" in2="offset" operator="in" result="comp1"/><feComposite in="SourceGraphic" in2="comp1" result="fbSourceGraphic"/><feColorMatrix in="fbSourceGraphic" result="fbSourceGraphicAlpha" values="0 0 0 -1 0 0 0 0 -1 0 0 0 0 -1 0 0 0 0 1 0"/><feFlood flood-color="#8D3131" flood-opacity="1" result="flood"/><feGaussianBlur in="fbSourceGraphic" result="blur" stdDeviation="23.18"/><feOffset dx="2.61" dy="-.159" in="blur" result="offset"/><feComposite in="flood" in2="offset" operator="out" result="comp1"/><feComposite in="comp1" in2="fbSourceGraphic" operator="atop" result="comp2"/></filter></defs><!--! Font Awesome Free 6.2.0 by @fontawesome - https://fontawesome.com License - https://fontawesome.com/license/free (Icons: CC BY 4.0, Fonts: SIL OFL 1.1, Code: MIT License) Copyright 2022 Fonticons, Inc.--><path d="M300.015 76C240.392 76-78.01 125.634 74.731 449.025c41.684 74.173 61.062 119.184 135.403 86.355 20.227-22.721-.085-43.902-14.218-61.28 31.8 11.5 67 17.9 104.1 17.9 141.399 0 256-93.1 256-208s-114.601-208-256-208z" style="fill:#8ce74f;fill-opacity:1;filter:url(#a)"/><path d="M124.14 365.857c-27.45-9.002-42.961-29.05-48.91-63.215-7.866-45.166 6.34-88.632 34.267-104.846 28.553-16.577 53.102-10.236 71.268 18.409l7.016 11.063 3.472-16.142 3.472-16.143 18.575-.753c18.382-.746 18.574-.686 18.574 5.766 0 3.586-4.888 27.007-10.863 52.047-5.975 25.04-10.738 50.413-10.584 56.382.332 12.87 6.702 23.77 13.893 23.77 5.253 0 5.962-1.1 8.671-13.465 1.265-5.77 2.935-7.053 9.191-7.053 7.127 0 7.644.652 7.631 9.618-.034 23.115-14.65 46.806-28.877 46.806-8.387 0-18.185-8.007-23.496-19.2l-4.31-9.08-6.597 7.84c-3.629 4.313-11.274 10.227-16.99 13.143-11.297 5.763-35.143 8.417-45.403 5.053zm28.809-28.439c7.791-6.128 15.822-24.183 20.18-45.371 3.08-14.97 2.892-16.744-3.623-34.391-3.778-10.234-9.799-23.605-13.38-29.714-11.127-18.989-25.767-17.47-35.106 3.643-6.62 14.964-9.189 59.173-4.694 80.76 5.505 26.436 21.215 37.193 36.623 25.073z" style="fill:#006698;fill-opacity:1;stroke-width:1.92353;filter:url(#b)" transform="matrix(1.38722 0 0 1.38722 -30.317 -98.982)"/><text xml:space="preserve" x="386.433" y="320.249" style="font-size:128.258px;line-height:1.25;font-family:McDonalds;-inkscape-font-specification:&quot;McDonalds, Normal&quot;;text-align:center;text-decoration:none;text-decoration-line:none;text-decoration-color:#000;text-anchor:middle;fill:#ebbe04;fill-opacity:1;stroke-width:1.70987;filter:url(#c);stop-color:#000" transform="translate(108.622 64.61) scale(.78555)"><tspan x="386.433" y="320.249" style="font-style:normal;font-variant:normal;font-weight:700;font-stretch:normal;font-family:Sans;-inkscape-font-specification:&quot;Sans Bold&quot;;text-align:center;baseline-shift:baseline;text-anchor:middle;fill:#ebbe04;fill-opacity:1;stroke-width:1.70987">Talk</tspan></text></svg>