<?xml version="1.0" encoding="UTF-8" standalone="no"?>
<!-- Created with Inkscape (http://www.inkscape.org/) -->

<svg
   version="1.1"
   id="svg83"
   width="96"
   height="96"
   viewBox="0 0 96 96"
   sodipodi:docname="chatsecure.svg"
   inkscape:version="1.1.2 (0a00cf5339, 2022-02-04, custom)"
   xmlns:inkscape="http://www.inkscape.org/namespaces/inkscape"
   xmlns:sodipodi="http://sodipodi.sourceforge.net/DTD/sodipodi-0.dtd"
   xmlns="http://www.w3.org/2000/svg"
   xmlns:svg="http://www.w3.org/2000/svg">
  <defs
     id="defs87" />
  <sodipodi:namedview
     id="namedview85"
     pagecolor="#ffffff"
     bordercolor="#666666"
     borderopacity="1.0"
     inkscape:pageshadow="2"
     inkscape:pageopacity="0.0"
     inkscape:pagecheckerboard="0"
     showgrid="false"
     width="128px"
     inkscape:zoom="1.9"
     inkscape:cx="1.3157895"
     inkscape:cy="43.947368"
     inkscape:window-width="1459"
     inkscape:window-height="867"
     inkscape:window-x="254"
     inkscape:window-y="144"
     inkscape:window-maximized="0"
     inkscape:current-layer="g89" />
  <g
     inkscape:groupmode="layer"
     inkscape:label="Image"
     id="g89">
    <path
       style="fill:#000000"
       d="m 34.017546,82.91927 v -7.5 H 31.17483 c -4.899259,0 -11.308188,-4.144788 -13.854545,-8.960023 -1.863238,-3.523435 -2.298547,-5.899121 -2.280777,-12.447261 0.03213,-11.840212 3.740907,-18.551477 11.598211,-20.987702 1.845993,-0.572367 2.181172,-1.607866 2.591862,-8.007289 0.758888,-11.825098 6.089805,-18.0170922 16.581353,-19.2596612 12.629605,-1.49579 21.135302,6.6190042 21.184652,20.2110482 0.0217,5.975518 0.0637,6.064207 3.45345,7.289953 4.43395,1.603338 9.29217,7.170972 10.12336,11.601618 0.35942,1.915895 0.49412,7.213017 0.29932,11.771381 -0.29036,6.794667 -0.78678,8.894496 -2.75524,11.654464 -3.4524,4.840601 -9.09883,7.08503 -17.890795,7.11151 l -7.291865,0.02196 -8.578681,7.5 c -4.718274,4.125 -8.974435,7.5 -9.458135,7.5 -0.4837,0 -0.879454,-3.375 -0.879454,-7.5 z m 17,-24.41896 c 0,-2.155429 0.76352,-5.249318 1.696711,-6.875309 1.597644,-2.783735 1.596298,-3.109597 -0.02305,-5.58104 -2.938784,-4.485146 -9.673661,-2.848031 -9.673661,2.351476 0,1.598189 0.45,3.183914 1,3.523833 0.55,0.339919 1,2.841476 1,5.559017 0,4.823314 0.07144,4.940983 3,4.940983 2.822994,0 3,-0.231227 3,-3.91896 z m 8,-32.657963 c 0,-5.935898 -0.2849,-6.861823 -2.923077,-9.5 -3.92288,-3.922881 -11.498698,-4.184678 -15.731658,-0.543638 -2.44165,2.100219 -2.813477,3.215015 -3.168611,9.5 l -0.402347,7.120561 h 11.112846 11.112847 z"
       id="path209" />
  </g>
</svg>
