<svg xmlns="http://www.w3.org/2000/svg" width="96" height="96"><path d="M34.018 82.92v-7.5h-2.843c-4.9 0-11.308-4.146-13.855-8.96-1.863-3.524-2.298-5.9-2.28-12.448.032-11.84 3.74-18.551 11.598-20.988 1.846-.572 2.18-1.608 2.592-8.007C29.988 13.192 35.32 7 45.81 5.757c12.63-1.495 21.136 6.62 21.186 20.211.021 5.976.063 6.065 3.453 7.29 4.434 1.604 9.292 7.171 10.123 11.602.36 1.916.495 7.213.3 11.771-.29 6.795-.787 8.895-2.756 11.655-3.452 4.84-9.098 7.085-17.89 7.111l-7.292.022-8.579 7.5c-4.718 4.125-8.974 7.5-9.458 7.5s-.88-3.375-.88-7.5zm17-24.42c0-2.155.763-5.249 1.696-6.875 1.598-2.784 1.597-3.11-.023-5.581-2.939-4.485-9.673-2.848-9.673 2.351 0 1.599.45 3.184 1 3.524.55.34 1 2.842 1 5.56 0 4.823.071 4.94 3 4.94 2.823 0 3-.231 3-3.919zm8-32.658c0-5.936-.285-6.861-2.924-9.5-3.922-3.923-11.498-4.184-15.731-.543-2.442 2.1-2.814 3.215-3.169 9.5l-.402 7.12h22.226z" style="fill:#000"/></svg>