<svg xmlns="http://www.w3.org/2000/svg" width="128" height="128" fill="none"><g clip-path="url(#a)"><path fill="url(#b)" d="M0 0h128v128H0z"/><path fill="url(#c)" d="M-20 67.917C61.542 78.74 69.058 19.855 77.87-15.459l-79.7-8.065L-20 67.917Z"/><path fill="#8F00FF" fill-opacity=".8" d="M82.237 56.291c.74-22.949 33.059-37.502 56.257-21.159l37.772 34.144C142.064 112.363 69.26 194.01 51.66 175.903c-22-22.633-24.62-66.455-1.729-73.541 22.892-7.085 31.679-26.607 32.306-46.07Z"/><ellipse cx="50.542" cy="63.37" fill="#fff" rx="5.406" ry="5.474"/><ellipse cx="65.986" cy="63.37" fill="#fff" rx="5.406" ry="5.474"/><ellipse cx="81.43" cy="63.37" fill="#fff" rx="5.406" ry="5.474"/><path fill="#fff" fill-rule="evenodd" d="M66.103 25.922c-10.122.086-19.978 3.613-27.587 10.006-7.624 6.405-12.496 15.288-13.363 24.962-.87 9.692 2.376 19.181 8.904 26.544.887 1 1.825 1.952 2.81 2.851-1.1 3.965-3.145 6.54-4.971 8.044-.747.615-.583 2.063.375 2.19 4.064.539 9.994.187 14.38-3.67a43.084 43.084 0 0 0 13.171 3.838c10.022 1.259 20.29-.941 28.779-6.232 5.472-3.41 10.016-7.395 13.197-12.568.861-1.401.249-3.194-1.219-3.933l-5.712-2.873c-1.491-.75-3.291-.12-4.256 1.243-2.086 2.948-4.97 5.276-8.496 7.474-6.043 3.767-13.481 5.39-20.786 4.473-7.302-.918-13.728-4.277-18.083-9.189-4.33-4.885-6.334-10.968-5.788-17.046.546-6.098 3.647-12.017 8.954-16.476 5.322-4.47 12.398-7.064 19.81-7.127 7.41-.063 14.397 2.41 19.586 6.737 1.973 1.646 3.645 3.903 4.97 6.137.852 1.433 2.653 2.05 4.143 1.3l5.698-2.868c1.471-.741 2.079-2.534 1.265-3.965-2.142-3.767-4.93-7.508-8.228-10.257-7.575-6.318-17.43-9.68-27.553-9.595Z" clip-rule="evenodd"/></g><defs><linearGradient id="b" x1="64" x2="64" y1="0" y2="128" gradientUnits="userSpaceOnUse"><stop stop-color="#6F00C7"/><stop offset="1" stop-color="#8F00FF"/></linearGradient><linearGradient id="c" x1="1.108" x2="124.827" y1="-9.305" y2="44.638" gradientUnits="userSpaceOnUse"><stop stop-color="#8F00FF"/><stop offset="1" stop-color="#8F00FF" stop-opacity="0"/><stop offset="1" stop-color="#8A01F6"/></linearGradient><clipPath id="a"><path fill="#fff" d="M0 0h128v128H0z"/></clipPath></defs></svg>