<svg xmlns="http://www.w3.org/2000/svg" xmlns:xlink="http://www.w3.org/1999/xlink" width="128" height="128"><defs><linearGradient id="c" x1="15.571" x2="15.571" y1="29.999" y2="42.286" gradientTransform="matrix(2.93129 0 0 2.93129 -1.413 2.51)" gradientUnits="userSpaceOnUse"><stop offset="0" style="stop-color:#000;stop-opacity:1"/><stop offset="1" style="stop-color:#000;stop-opacity:0"/></linearGradient><linearGradient id="e" x1="15.571" x2="15.571" y1="29.999" y2="42.286" gradientTransform="matrix(2.93129 0 0 2.93129 4.45 2.51)" gradientUnits="userSpaceOnUse"><stop offset="0" style="stop-color:#000;stop-opacity:1"/><stop offset="1" style="stop-color:#000;stop-opacity:0"/></linearGradient><linearGradient id="k" x1="16" x2="38.465" y1="2" y2="42.405" gradientTransform="matrix(3.689 0 0 3.69377 -24.667 156.81)" gradientUnits="userSpaceOnUse"><stop offset="0" style="stop-color:#fff;stop-opacity:1"/><stop offset="1" style="stop-color:#fff;stop-opacity:0"/></linearGradient><linearGradient id="m" x1="24.261" x2="24.832" y1="2.534" y2="22.012" gradientTransform="matrix(1.34245 0 -.83737 1.72386 33.163 2.907)" gradientUnits="userSpaceOnUse"><stop offset="0" style="stop-color:#fff;stop-opacity:1"/><stop offset="1" style="stop-color:#fff;stop-opacity:0"/></linearGradient><linearGradient id="n" x1="16" x2="32.927" y1="2" y2="31.588" gradientTransform="matrix(2.91237 0 0 2.92558 -6.028 173.324)" gradientUnits="userSpaceOnUse"><stop offset="0" style="stop-color:#fff;stop-opacity:1"/><stop offset="1" style="stop-color:#fff;stop-opacity:0"/></linearGradient><linearGradient id="o" x1="24" x2="30" y1="31.786" y2="38.5" gradientTransform="matrix(1.993 0 0 2.07934 16.04 163.225)" gradientUnits="userSpaceOnUse"><stop offset="0" style="stop-color:#729fcf;stop-opacity:1"/><stop offset="1" style="stop-color:#396ea7;stop-opacity:1"/></linearGradient><linearGradient id="p" x1="17.725" x2="27.055" y1="3.861" y2="24.431" gradientTransform="matrix(2.91237 0 0 2.92558 -6.028 173.324)" gradientUnits="userSpaceOnUse"><stop offset="0" style="stop-color:#fff;stop-opacity:1"/><stop offset="1" style="stop-color:#fff;stop-opacity:0"/></linearGradient><radialGradient id="f" cx="16.488" cy="23.538" r="19" fx="16.488" fy="23.538" gradientTransform="matrix(5.83052 0 0 5.18612 -57.137 106.886)" gradientUnits="userSpaceOnUse"><stop offset="0" style="stop-color:#73d216;stop-opacity:1"/><stop offset="1" style="stop-color:#4e9a06;stop-opacity:1"/></radialGradient><radialGradient id="l" cx="21.143" cy="22.179" r="9" fx="21.143" fy="22.179" gradientTransform="matrix(2.93128 0 0 2.9323 -6.482 134.103)" gradientUnits="userSpaceOnUse"><stop offset="0" style="stop-color:#fef291;stop-opacity:1"/><stop offset="1" style="stop-color:#edd400;stop-opacity:1"/></radialGradient><clipPath id="b"><path d="M0 0h192v152H0z"/></clipPath><clipPath id="d"><path d="M0 0h192v152H0z"/></clipPath><mask id="h"><g filter="url(#a)"><path d="M0 0h128v128H0z" style="fill:#000;fill-opacity:.137778;stroke:none"/></g></mask><mask id="j"><g filter="url(#a)"><path d="M0 0h128v128H0z" style="fill:#000;fill-opacity:.137778;stroke:none"/></g></mask><g id="g" clip-path="url(#b)"><path d="M36.695 90.45c3.168.218 9.11 2.558 11.723 0-5.438 3.46-2.559 26.023-5.234 37.476-2.164-12.492-3.75-33.078-6.489-37.477Zm0 0" style="stroke:none;fill-rule:evenodd;fill:url(#c)"/></g><g id="i" clip-path="url(#d)"><path d="M107.043 90.45c-3.168.218-9.11 2.558-11.723 0 5.438 3.46 2.559 26.023 5.235 37.476 2.164-12.492 3.75-33.078 6.488-37.477Zm0 0" style="stroke:none;fill-rule:evenodd;fill:url(#e)"/></g><filter id="a" width="100%" height="100%" x="0%" y="0%" filterUnits="objectBoundingBox"><feColorMatrix in="SourceGraphic" values="0 0 0 0 1 0 0 0 0 1 0 0 0 0 1 0 0 0 1 0"/></filter></defs><path d="M63.871 218.602c-28.316 0-54.23 14.992-54.23 24.695 0 4.52 18.418 1.93 19.054 5.894l4.578 30.95c0 2.96 1.559 5.28 3.575 5.28 18.355 4.743 36.386 4.673 53.953 0 2.011 0 3.664-2.32 3.664-5.28l4.578-30.95c.848-3.34 19.055-1.375 19.055-5.894 0-9.703-25.914-24.695-54.227-24.695Zm0 0" style="fill-rule:nonzero;fill:url(#f);stroke-width:2.931288;stroke-linecap:butt;stroke-linejoin:miter;stroke:#4e9a06;stroke-opacity:1;stroke-miterlimit:4" transform="translate(0 -172)"/><use xlink:href="#g" mask="url(#h)" transform="translate(-8 -16)"/><use xlink:href="#i" mask="url(#j)" transform="translate(-8 -16)"/><path d="M63.871 221.531c-26.789 0-52.496 15.977-50.672 20.938.254.683 17.422.82 18.024 4.648l4.96 30.004c0 2.863.22 5.942 2.126 5.942 17.816 4.015 34.8 3.875 51.035 0 1.906 0 2.21-2.243 2.21-5.102l4.75-30.637c.801-3.222 17.407-2.523 17.817-5.691.766-5.946-23.465-20.102-50.25-20.102Zm0 0" style="fill:none;stroke-width:2.93129;stroke-linecap:butt;stroke-linejoin:miter;stroke:url(#k);stroke-miterlimit:4" transform="translate(0 -172)"/><path d="M79.992 233.258c0 6.476-7.219 11.726-16.12 11.726-8.907 0-16.126-5.25-16.126-11.726 0-6.477 7.219-11.727 16.125-11.727 8.902 0 16.121 5.25 16.121 11.727Zm0 0" style="fill-rule:nonzero;fill:#000;fill-opacity:.0593608;stroke-width:2.931289;stroke-linecap:butt;stroke-linejoin:miter;stroke:#fff;stroke-opacity:.423529;stroke-miterlimit:4" transform="translate(0 -172)"/><path d="M63.871 177.563c-13.762 0-24.918 11.167-24.918 24.925 0 8.793 4.55 16.532 11.43 20.969 4.496 5.121 2.492 3.45 3.226 9.73a3.03 3.03 0 0 0 3.024 3.024c5.336 4.094 10.09 3.66 14.472 0a3.03 3.03 0 0 0 3.024-3.024c.871-6.148-.39-5.37 2.816-9.472 7.11-4.395 11.84-12.262 11.84-21.227 0-13.758-11.156-24.925-24.914-24.925Zm0 0" style="fill-rule:nonzero;fill:url(#l);stroke-width:2.931289;stroke-linecap:butt;stroke-linejoin:miter;stroke:#c4a000;stroke-opacity:1;stroke-miterlimit:4" transform="translate(0 -172)"/><path d="M59.098 24.617c-2.36 4.856-6.825 8.793-9.97 8.793-3.144 0-3.784-3.937-1.425-8.793 2.36-4.855 6.824-8.793 9.969-8.793 3.144 0 3.781 3.938 1.426 8.793Zm0 0" style="stroke:none;fill-rule:nonzero;fill:url(#m)"/><path d="M63.871 180.496c-12.144 0-21.988 10.219-21.988 22.809 0 8.047 4.39 13.91 11.187 19.187 3.965 4.692 2.504 4.051 2.805 8.957 0 1.524.504 1.992 1.973 1.992 4.113 3.73 8.332 3.637 12.285-.12 1.469 0 1.605-.684 1.605-2.208.512-6.355.797-5.593 3.63-9.347 6.273-4.02 10.487-10.254 10.487-18.461 0-12.59-9.843-22.809-21.984-22.809Zm0 0" style="fill:none;stroke-width:2.931289;stroke-linecap:butt;stroke-linejoin:miter;stroke:url(#n);stroke-miterlimit:4" transform="translate(0 -172)"/><path d="M52.172 225.543c.922 1.61.93 3.27 1.433 7.617 0 1.672 1.333 3.035 2.985 3.035 5.3 4.114 10.05 3.68 14.402 0 1.656 0 3.2-1.312 3.2-2.984.566-4.055.792-6.652 1.39-8.066l-4.062 2.363H56.172Zm0 0" style="fill-rule:nonzero;fill:url(#o);stroke-width:2.931288;stroke-linecap:butt;stroke-linejoin:miter;stroke:#3465a4;stroke-opacity:1;stroke-miterlimit:4" transform="translate(0 -172)"/><path d="m56.438 230.328.156 2.957h1.465c5.324 4.688 8.593 2.555 11.726-.02h1.14l.376-2.937Zm0 0" style="fill:none;stroke-width:2.931289;stroke-linecap:butt;stroke-linejoin:miter;stroke:url(#p);stroke-miterlimit:4" transform="translate(0 -172)"/></svg>