<svg xmlns="http://www.w3.org/2000/svg" width="40mm" height="40mm" viewBox="0 0 40 40"><path d="M76.805 93.98c-.09-.146-.038-.265.117-.265.154 0 .28.119.28.265 0 .145-.053.264-.117.264s-.19-.119-.28-.264zm-1.19-1.323c0-.146.118-.265.264-.265a.265.265 0 0 1 0 .53.265.265 0 0 1-.265-.265zm2.262.022a.295.295 0 0 1 .096-.405.295.295 0 0 1 .405.095.295.295 0 0 1-.095.406.295.295 0 0 1-.406-.096zm3.333-.01c.114-.34.477-.402.51-.085.01.105-.124.24-.298.298-.175.058-.27-.038-.212-.212zm25.493-1.118a8.957 8.957 0 0 1-.617-.366c-.048-.039.035-.3.184-.579.203-.379.476-.478 1.077-.39.573.084.852-.004.968-.307.09-.234-.385-1.796-1.055-3.47-.67-1.675-1.219-3.112-1.219-3.194 0-.082.324-.11.719-.065.629.073.82.34 1.521 2.134.442 1.127.863 2.05.935 2.05.073 0 .494-.923.935-2.05.702-1.794.893-2.06 1.522-2.134.395-.046.718-.025.718.047 0 .071-.662 1.776-1.472 3.787-1.814 4.508-2.653 5.41-4.216 4.537zm-27.65-.233c0-.154.12-.207.265-.117.146.09.265.216.265.28 0 .065-.12.117-.265.117-.145 0-.264-.126-.264-.28zm-1.322-1.043c0-.145.178-.264.397-.264.218 0 .397.119.397.264 0 .146-.179.265-.397.265-.219 0-.397-.12-.397-.265zm1.323 0c0-.145.119-.264.264-.264.146 0 .265.119.265.264a.265.265 0 0 1-.53 0zm2.116 0a.265.265 0 0 1 .53 0 .265.265 0 0 1-.53 0zm-6.173-.97c-.097-.097-.177-.847-.177-1.667 0-.82-.129-1.62-.287-1.778-.207-.207-.207-.337 0-.465.165-.102.287-1.014.287-2.147V81.28H76.351l-.074 3.902c-.04 2.147-.088 3.992-.104 4.101-.037.246-.936.263-1.176.022zm1.715-.075c.114-.34.477-.402.51-.086.01.106-.123.24-.298.298-.175.058-.27-.037-.212-.212zm1.314-.97c-.38-.629-.817-1.147-.97-1.151-.415-.013-.406-1.86.01-1.86.479 0 1.366-1.399.97-1.53-.168-.057-.305-.211-.305-.345 0-.133 1.203-.242 2.674-.242 2.317 0 2.653.055 2.515.413-.19.499.557 2.046.89 1.84.129-.08.304-.033.39.105a.292.292 0 0 1-.09.402c-.134.083-.182.389-.106.68.092.35.008.528-.247.528-.473 0-1.066 1.225-.879 1.817.12.375-.15.436-2.01.458l-2.15.026-.692-1.142Zm3.86-1.294c.424-.89.42-.959-.099-1.654-.798-1.068-2.135-1.019-2.79.103-.465.795-.465.862-.015 1.652.394.692.628.824 1.465.825.88.002 1.049-.107 1.44-.926zm3.43 2.34c-.097-.098-.177-.624-.177-1.17 0-.545-.149-1.052-.33-1.126-.253-.102-.241-.197.049-.398.304-.212.315-.343.053-.659-.232-.28-.243-.445-.036-.572.206-.128.196-.293-.037-.573-.261-.316-.25-.442.054-.638.328-.211.325-.283-.017-.53-.3-.214-.316-.317-.067-.418.697-.283.282-.594-.897-.671-1.17-.077-1.232-.121-1.32-.94-.051-.474.025-.86.17-.86.143 0 .262.118.262.264 0 .161 1.196.265 3.06.265 3.024 0 3.06.007 2.977.595-.072.508-.269.607-1.341.676l-1.257.08v3.426c0 3.144-.04 3.425-.485 3.425-.267 0-.564-.08-.661-.177zm4.771.008c-.102-.102-.185-1.535-.185-3.184v-2.998h1.34l-.075 3.105c-.061 2.555-.147 3.12-.484 3.184-.226.044-.494-.005-.596-.107zm4.369-.163c-.257-.311-2.438-5.598-2.438-5.91 0-.08.316-.107.7-.06.614.072.81.364 1.573 2.332.864 2.23.874 2.242 1.166 1.455 1.199-3.23 1.478-3.703 2.235-3.791.54-.063.71.011.61.264-2.399 6.074-2.381 6.04-3.109 6.04-.255 0-.587-.148-.737-.33zm4.706-2.826v-3.193h1.34l-.075 3.108c-.071 2.997-.096 3.112-.67 3.194-.589.084-.595.051-.595-3.109zm3.825 2.507c-.575-.575-.65-.879-.65-2.646 0-1.598-.08-1.996-.397-1.996-.22 0-.397-.235-.397-.53 0-.293.177-.528.397-.528.277 0 .397-.28.397-.926 0-.812.082-.926.662-.926.58 0 .661.114.661.926 0 .852.063.926.794.926.617 0 .794.117.794.529 0 .413-.177.529-.806.529h-.805l.078 1.918.077 1.918.843-.037c1.003-.044 1.42.635.709 1.155-.717.524-1.645.4-2.358-.312zm-26.314-.938c0-.145.119-.264.264-.264.146 0 .265.119.265.264a.265.265 0 0 1-.53 0zm7.011 0c.09-.145.216-.264.28-.264.064 0 .117.119.117.264 0 .146-.126.265-.28.265-.154 0-.207-.12-.117-.265zm-6.887-3.188c-.252-.407.093-.67.432-.33.19.19.195.338.014.45-.148.091-.349.037-.446-.12zm6.879 0c-.252-.407.093-.67.432-.33.19.19.195.338.014.45-.148.091-.349.037-.446-.12zm-7.003-1.31c0-.145.119-.264.264-.264.146 0 .265.119.265.264a.265.265 0 0 1-.53 0zm6.879 0c0-.145.119-.264.264-.264.146 0 .265.119.265.264a.265.265 0 0 1-.53 0zm-5.638-.963c-.21-.211.028-.624.362-.624.137 0 .249.178.249.397 0 .409-.313.525-.61.227zm2.198-.227c0-.243.128-.399.285-.347.156.053.284.208.284.347 0 .138-.128.294-.284.346-.157.052-.285-.104-.285-.346zm1.205.154a.295.295 0 0 1 .095-.405.295.295 0 0 1 .406.096.295.295 0 0 1-.096.405.295.295 0 0 1-.405-.096zm8.597-.404c-.715-.861.468-1.897 1.26-1.105.337.337.372.544.15.897-.386.613-.999.703-1.41.208zm9.23-.037c-.404-.486-.06-1.248.624-1.383.597-.118 1.114.927.703 1.422-.412.496-.895.482-1.327-.04zm-20.09-.904c0-.146.119-.265.264-.265a.265.265 0 0 1 0 .53.265.265 0 0 1-.264-.265zm2.116 0c0-.146.179-.265.397-.265.219 0 .397.12.397.265 0 .145-.178.265-.397.265-.218 0-.397-.12-.397-.265zm.265-1.058c0-.146.126-.265.28-.265.154 0 .207.12.117.265-.09.145-.216.264-.28.264-.064 0-.117-.119-.117-.264zm-2.381-1.191c0-.218.119-.397.264-.397.146 0 .265.179.265.397 0 .218-.12.397-.265.397-.145 0-.264-.179-.264-.397zm3.44-.016c0-.226.118-.339.264-.249.145.09.265.276.265.413 0 .137-.12.249-.265.249-.146 0-.265-.186-.265-.413zm1.19-1.44c.09-.145.216-.264.28-.264.064 0 .117.12.117.265 0 .145-.126.264-.28.264-.154 0-.207-.119-.117-.264z" style="fill:#b9b9b9;fill-opacity:1;stroke-width:.264583" transform="translate(-73.19 -65.394)"/><path d="M81.303 92.657c-.09-.146.029-.265.264-.265.236 0 .355.12.265.265-.09.145-.21.264-.265.264-.055 0-.174-.119-.264-.264zm25.466-1.104c-.814-.294-.858-.422-.373-1.06.22-.291.464-.366.705-.217.439.271 1.322-.14 1.322-.617 0-.183-.536-1.666-1.191-3.295s-1.19-3.03-1.19-3.115c0-.084.312-.115.695-.069.598.072.813.374 1.522 2.132.454 1.126.885 2.048.957 2.05.073 0 .494-.921.935-2.048.716-1.83.884-2.06 1.558-2.137.592-.069.721 0 .598.323-1.318 3.435-2.994 7.266-3.327 7.608-.588.602-1.352.755-2.211.445zM77.73 90.275c0-.145.178-.264.397-.264.218 0 .397.119.397.264 0 .146-.179.265-.397.265-.219 0-.397-.12-.397-.265zm1.323 0c0-.145.119-.264.264-.264.146 0 .265.119.265.264a.265.265 0 0 1-.53 0zm-2.381-1.058c0-.145.119-.265.264-.265a.265.265 0 0 1 0 .53.265.265 0 0 1-.264-.265zm1.356-.953c-.382-.63-.827-1.15-.988-1.155-.364-.01-.336-1.594.028-1.597.408-.004 1.19-1.544 1.016-1.999-.133-.346.206-.398 2.391-.36 1.4.023 2.547.147 2.547.275 0 .128-.116.233-.256.233s-.01.417.29.926c.301.51.636.926.745.926.11 0 .208.357.22.794.014.446-.113.794-.29.795-.172.001-.526.377-.788.837-.379.665-.406.879-.132 1.052.188.12.283.224.21.231-.072.007-1.069.053-2.215.101l-2.082.088zm3.83-1.214c.409-.792.406-.9-.043-1.733-.421-.783-.59-.88-1.409-.81-.727.063-1.039.266-1.426.932-.478.821-.479.88-.022 1.653.394.667.641.802 1.468.802.85 0 1.058-.122 1.431-.844zm21.128 1.782c-.575-.575-.65-.879-.65-2.646 0-1.598-.08-1.996-.397-1.996-.22 0-.397-.235-.397-.53 0-.293.177-.528.397-.528.277 0 .397-.28.397-.926 0-.812.082-.926.662-.926.58 0 .661.114.661.926 0 .852.063.926.794.926.617 0 .794.117.794.529 0 .413-.177.529-.806.529h-.805l.078 1.918.077 1.918.843-.037c1.003-.044 1.42.635.709 1.155-.717.524-1.645.4-2.358-.312zm-28.167-1.15c0-.844-.142-1.677-.317-1.852-.247-.247-.247-.317 0-.317.22 0 .317-.647.317-2.117 0-2.081.011-2.116.662-2.116.503 0 .667.142.683.595.029.797.03 6.593 0 7.011-.011.182-.32.331-.683.331-.63 0-.662-.074-.662-1.535zm10.32.492c0-.573-.133-1.124-.294-1.223-.206-.128-.191-.244.05-.393.261-.162.27-.298.034-.581-.234-.283-.23-.453.017-.715.257-.272.253-.37-.017-.47-.272-.099-.275-.205-.017-.516.26-.312.248-.444-.055-.655-.29-.202-.302-.297-.05-.4.715-.289.273-.619-.83-.619-1.106 0-1.166-.04-1.29-.86-.133-.869.043-1.403.26-.793.085.237.93.33 2.976.33 2.607 0 2.87.046 2.992.514.184.705.016.81-1.307.81h-1.147v6.614h-.661c-.594 0-.662-.107-.662-1.043zm4.762-2v-3.042h1.323v6.085h-1.323zm4.262 2.465c-.13-.337-.665-1.648-1.19-2.913-.526-1.265-.956-2.366-.956-2.447 0-.081.287-.147.637-.147.542 0 .759.292 1.455 1.966.45 1.08.819 2.117.819 2.301 0 .66.494-.176 1.272-2.15.67-1.7.881-1.997 1.475-2.069.38-.046.692-.04.692.012 0 .052-.523 1.4-1.163 2.994C96.1 88.939 96 89.089 95.22 89.168c-.655.066-.868-.041-1.056-.53zm4.998-2.465v-3.042h1.323v6.085h-1.323Zm-22.357 1.72c.09-.145.216-.264.28-.264.064 0 .117.119.117.264 0 .146-.126.265-.28.265-.155 0-.207-.12-.117-.265zm-.132-3.44c0-.145.119-.264.264-.264a.265.265 0 0 1 0 .53.265.265 0 0 1-.264-.265zm6.879 0c0-.145.119-.264.264-.264a.265.265 0 0 1 0 .53.265.265 0 0 1-.264-.265zm0-1.058c0-.145.119-.264.264-.264.146 0 .265.119.265.264a.265.265 0 0 1-.53 0zm-5.675-1.036a.295.295 0 0 1 .096-.405.295.295 0 0 1 .405.096.295.295 0 0 1-.095.405.295.295 0 0 1-.406-.096zm2.379-.004c-.084-.135-.032-.32.116-.412.148-.092.27.02.27.246 0 .465-.16.533-.386.166zm1.06.004a.295.295 0 0 1 .096-.405.295.295 0 0 1 .406.096.295.295 0 0 1-.096.405.295.295 0 0 1-.405-.096zm8.623-.374c-.671-.809.337-1.738 1.194-1.1.389.288.429.46.196.841-.38.619-.996.733-1.39.259zm9.276.034c-.463-.463-.389-.948.193-1.26.727-.388 1.456.34 1.067 1.067-.311.582-.797.657-1.26.193zm-17.912-1.005c.09-.146.275-.265.412-.265.137 0 .25.12.25.265 0 .145-.186.265-.413.265-.227 0-.34-.12-.25-.265zm-2.25-2.117a.265.265 0 0 1 .53 0 .265.265 0 0 1-.53 0z" style="fill:#a3a3a3;fill-opacity:1;stroke-width:.264583" transform="translate(-73.19 -65.394)"/><path d="M106.927 91.58c-.312-.115-.637-.323-.723-.462-.234-.378.477-.859 1.154-.78.326.039.722-.13.88-.373.275-.423.067-1.06-2.128-6.524-.102-.252.065-.327.592-.264.647.077.828.329 1.532 2.137.44 1.128.87 2.05.957 2.048.087-.002.529-.924.983-2.05.708-1.758.924-2.06 1.521-2.132.383-.046.696-.04.696.015 0 .16-2.848 7-3.15 7.564-.353.66-1.577 1.094-2.314.822zm-28.442-2.668c-.281-.28-.625-.773-.764-1.095a6.909 6.909 0 0 0-.583-1.046c-.264-.37-.26-.572.014-1.012.189-.302.59-1.022.89-1.6l.547-1.05 1.856.078c1.81.075 1.867.099 2.338.98.266.495.607 1.025.758 1.177.443.443.321 1.165-.386 2.286-.364.576-.662 1.169-.662 1.317 0 .149-.387.283-.86.3-.472.015-1.26.061-1.749.102-.6.05-1.055-.092-1.4-.437zm3.42-1.866c.401-.665.4-.784-.014-1.654-.396-.83-.562-.937-1.45-.937-.867 0-1.067.12-1.483.893-.451.837-.454.945-.046 1.734.393.76.536.833 1.498.76.825-.062 1.159-.24 1.495-.796zm21.574 2.175c-.873-.36-1.142-1.104-1.142-3.162 0-1.485-.081-1.869-.397-1.869-.22 0-.397-.235-.397-.53 0-.293.177-.528.397-.528.277 0 .397-.28.397-.926 0-.812.082-.926.662-.926.58 0 .661.114.661.926 0 .852.063.926.794.926.617 0 .794.117.794.529 0 .413-.177.529-.806.529h-.805l.078 1.918.077 1.918.843-.037c.836-.037 1.402.551.952.989-.366.356-1.513.489-2.108.243zM74.82 85.248V81.28h1.323V89.218H74.82zm10.32.662v-3.308h-1.191c-1.094 0-1.191-.053-1.191-.661v-.661h6.085v.661c0 .608-.097.661-1.19.661h-1.19v6.615h-1.324zm4.762.264v-3.042h1.323v6.085h-1.323zm4.256 2.448c-.125-.328-.658-1.66-1.184-2.962-.525-1.302-.956-2.403-.956-2.447 0-.045.288-.081.639-.081.555 0 .753.292 1.521 2.248.486 1.236.943 2.247 1.015 2.246.073-.002.5-.983.95-2.182.729-1.946.895-2.19 1.55-2.267.403-.047.69.018.638.145l-1.249 3.063c-1.094 2.688-1.192 2.832-1.924 2.832-.556 0-.835-.166-1-.595zm5.004-2.466c0-3.023.008-3.06.595-2.977.572.082.599.202.67 3.061l.075 2.977h-1.34zm-9.098-4.223c-.223-.222-.337-.58-.255-.793.2-.52 1.317-.499 1.52.029.223.582.22.589-.35.894-.384.206-.612.173-.915-.13zm9.238.046c-.647-.473-.349-1.229.485-1.229.79 0 1.08.64.536 1.183-.489.489-.42.485-1.021.046z" style="fill:#8c8c8c;fill-opacity:1;stroke-width:.264583" transform="translate(-73.19 -65.394)"/><path d="M106.397 91.19c-.207-.539.071-.782.893-.782.37 0 .8-.2.955-.443.266-.418.013-1.193-2.127-6.503-.085-.211.104-.33.524-.33.574 0 .77.272 1.532 2.116.48 1.164.956 2.117 1.055 2.117.1 0 .525-.907.944-2.015.762-2.013 1.091-2.403 1.801-2.13.296.113.04.953-1.196 3.93-.865 2.083-1.772 3.936-2.015 4.118-.632.473-2.174.422-2.366-.078zm-2.916-2.107c-.936-.393-1.135-.96-1.14-3.24-.003-1.291-.09-1.653-.4-1.653a.402.402 0 0 1-.398-.405c0-.223.179-.474.397-.558.245-.094.397-.496.397-1.05 0-.78.086-.897.662-.897.577 0 .661.115.661.908 0 .794.092.92.725.992.438.05.76.268.814.547.068.36-.094.463-.726.463h-.813v1.82c0 1.317.113 1.913.408 2.158.304.252.485.262.708.039.306-.306 1 .032 1 .487 0 .474-1.491.727-2.295.39zm-28.66-3.835V81.28h1.322V89.218H74.82zm3.432 3.365a18.008 18.008 0 0 1-.894-1.53l-.49-.944.696-1.101c.382-.606.695-1.221.695-1.367 0-.39 1.03-.582 2.632-.489l1.414.082.801 1.532.801 1.532-.592.982c-.326.54-.658 1.19-.738 1.444-.122.385-.464.462-2.034.455-1.646-.008-1.939-.083-2.29-.596zm3.655-1.548c.524-.828.524-.832 0-1.72-.445-.754-.674-.89-1.497-.89-.833 0-1.041.128-1.453.893-.448.832-.452.949-.054 1.72.368.71.573.826 1.454.826.86 0 1.11-.133 1.55-.83zm3.231-1.155v-3.308h-1.19c-1.094 0-1.191-.053-1.191-.661v-.661h6.085v.661c0 .608-.097.661-1.19.661h-1.19v6.615h-1.324zm4.82.33c.07-2.775.11-2.976.604-2.976s.534.201.604 2.976l.075 2.977h-1.358zm4.26 2.514c-.09-.255-.623-1.578-1.183-2.941-.56-1.363-1.018-2.524-1.018-2.58 0-.056.288-.101.639-.101.555 0 .753.292 1.521 2.248.787 2.002 1.28 2.765 1.28 1.979 0-.149.374-1.16.83-2.249.57-1.356.972-1.978 1.28-1.978.246 0 .51.063.588.14.077.077-.396 1.446-1.052 3.043-1.128 2.749-1.232 2.902-1.956 2.902-.49 0-.824-.167-.93-.463zm4.943-2.598c0-3.023.008-3.06.595-2.977.572.082.599.202.67 3.061l.075 2.977h-1.34zm-8.93-3.993c-.181-.074-.33-.422-.33-.773 0-.498.14-.64.633-.64.783 0 1.069.642.527 1.183-.222.223-.426.395-.452.384l-.378-.154zm9.081-.24c-.525-.526-.229-1.221.478-1.12.672.095.915 1.129.319 1.358-.222.085-.58-.023-.797-.239z" style="fill:#767676;fill-opacity:1;stroke-width:.264583" transform="translate(-73.19 -65.394)"/><path d="M106.598 91.356c-.574-.363-.145-1.154.513-.945.641.204 1.312-.273 1.312-.932 0-.257-.525-1.738-1.167-3.29l-1.167-2.823.695.081c.599.07.805.364 1.497 2.131.442 1.127.863 2.05.935 2.05.073 0 .49-.952.926-2.115.714-1.903.864-2.115 1.487-2.116h.694l-1.567 3.77c-.861 2.073-1.762 3.919-2 4.1-.502.383-1.622.429-2.158.09zM74.88 85.314c.071-3.82.085-3.904.668-3.987.595-.084.595-.08.595 3.903v3.987H74.806zm2.96 2.517a62.094 62.094 0 0 1-.85-1.562c-.044-.096.347-.841.868-1.656l.947-1.481h1.426c1.538 0 2.262.18 2.262.562 0 .133.298.713.662 1.29.364.576.661 1.167.661 1.313 0 .147-.367.863-.816 1.593l-.817 1.327H78.61zm4.103-.759c.492-.809.491-.836-.03-1.72-.453-.766-.675-.897-1.52-.897-.85 0-1.058.124-1.463.875-.441.82-.444.929-.035 1.72.38.735.573.844 1.492.844.897 0 1.13-.123 1.556-.822zm3.196-1.23v-3.376l-1.19.095c-1.13.09-1.191.06-1.191-.593v-.688h6.085v.661c0 .608-.097.661-1.19.661h-1.19v6.615h-1.324zm4.763.465v-2.91h1.323v5.82h-1.323zm3.37-.015-1.2-2.926.67.081c.569.07.791.392 1.47 2.132.439 1.128.87 2.05.956 2.05.087 0 .519-.924.96-2.05.653-1.665.921-2.067 1.427-2.14.509-.073.59 0 .444.397-.098.267-.611 1.588-1.14 2.934-.88 2.242-1.02 2.447-1.673 2.447-.657 0-.804-.224-1.913-2.925zm5.89.015v-2.91h1.323v5.82h-1.323zm4.075 2.708c-.608-.406-.9-1.41-.9-3.088 0-1.368-.084-1.737-.397-1.737a.398.398 0 0 1-.397-.397c0-.218.179-.397.397-.397.287 0 .397-.294.397-1.058 0-.953.066-1.058.662-1.058.595 0 .661.105.661 1.058 0 1 .044 1.058.794 1.058.529 0 .794.133.794.397 0 .265-.265.397-.794.397h-.794v1.82c0 1.96.295 2.494 1.24 2.247.655-.171 1.104.389.58.721-.444.281-1.843.304-2.243.037zm-13.288-7.537c.056-.39.267-.595.614-.595s.558.204.614.595c.07.488-.041.595-.614.595s-.683-.107-.614-.595zm9.134.24c-.205-.534.21-1.032.772-.925.275.053.536.36.582.688.068.476-.043.592-.567.592-.358 0-.713-.16-.787-.354z" style="fill:#606060;fill-opacity:1;stroke-width:.264583" transform="translate(-73.19 -65.394)"/><path d="M106.598 91.356c-.574-.363-.145-1.154.513-.945.641.204 1.312-.273 1.312-.932 0-.257-.525-1.738-1.167-3.29l-1.167-2.823.672.081c.568.069.8.4 1.498 2.13.454 1.125.885 2.048.957 2.049.073 0 .494-.92.936-2.048.63-1.609.929-2.068 1.389-2.134.322-.047.586-.01.586.081 0 .54-2.805 6.985-3.254 7.478-.554.608-1.613.773-2.275.353zm-31.606-6.041c.037-3.749.061-3.906.595-3.988.545-.082.556 0 .556 3.903 0 3.958-.004 3.987-.595 3.987-.592 0-.595-.02-.556-3.902zm2.793 2.42-.863-1.503.88-1.484.88-1.484 1.66-.041 1.66-.042.952 1.488.952 1.488-.814 1.464-.813 1.464-1.816.076-1.815.077zm4.06-.495.7-.92-.576-.932c-.492-.796-.721-.933-1.557-.933-.8 0-1.062.14-1.433.768-.582.985-.572 1.234.093 2.167.789 1.108 1.857 1.05 2.772-.15zm3.294-1.463v-3.44h-1.19c-1.015 0-1.191-.078-1.191-.528 0-.499.176-.53 3.043-.53 2.866 0 3.042.031 3.042.53 0 .45-.176.529-1.19.529h-1.19v6.88h-1.324zm4.763.53v-2.91h1.323v5.82h-1.323zm3.484.182c-.607-1.5-1.103-2.818-1.103-2.929 0-.11.254-.163.564-.116.433.065.751.562 1.364 2.135.44 1.128.882 2.05.982 2.05.101 0 .543-.922.983-2.05.636-1.632.922-2.069 1.4-2.14.488-.072.568.003.423.397-.098.267-.611 1.588-1.14 2.934-.877 2.233-1.023 2.447-1.665 2.447-.646 0-.796-.227-1.808-2.728zm5.776-.182c0-2.842.014-2.91.595-2.91.582 0 .596.068.596 2.91 0 2.841-.014 2.91-.596 2.91-.58 0-.595-.069-.595-2.91zm3.815 2.357c-.37-.409-.525-1.061-.599-2.513-.066-1.316-.205-1.961-.423-1.961-.178 0-.323-.179-.323-.397 0-.218.158-.397.352-.397.237 0 .353-.356.353-1.077 0-.965.062-1.067.595-.992.485.07.598.256.608 1.01.011.846.086.934.86 1.01 1.115.109 1.126.782.014.892l-.833.083.019 1.824c.02 1.95.281 2.386 1.29 2.15.344-.081.623.013.71.24.319.83-1.89.939-2.623.128zM89.991 81.66c-.088-.228-.033-.542.122-.697.412-.411 1.112-.05 1.112.574 0 .652-.993.751-1.234.123zm9.216-.16c.058-.41.264-.616.617-.616.788 0 .709 1.033-.088 1.145-.513.073-.602-.016-.529-.529z" style="fill:#494949;fill-opacity:1;stroke-width:.264583" transform="translate(-73.19 -65.394)"/><path d="M106.628 91.375c-.61-.387-.102-1.015.723-.893.56.082.834-.027 1.04-.411.223-.417.04-1.115-.903-3.463-.65-1.618-1.182-3.01-1.182-3.095 0-.084.254-.116.564-.069.433.065.751.562 1.364 2.135.44 1.128.877 2.05.973 2.05.096 0 .534-.922.975-2.05.642-1.643.922-2.068 1.41-2.14.496-.073.575.001.427.397-1.405 3.753-2.737 6.688-3.251 7.167-.652.607-1.53.76-2.14.372zM75.085 85.38c0-3.66.024-3.837.53-3.837.504 0 .528.177.528 3.837s-.024 3.836-.529 3.836-.529-.176-.529-3.836zm2.732 2.315-.83-1.522.762-1.323.762-1.322 1.756-.133c1.924-.145 2.042-.068 3.108 2.02.41.802.396.88-.381 2.315l-.805 1.486h-3.542zm4.129-.492c.551-.935.553-.971.08-1.786-.4-.685-.674-.845-1.562-.91-.983-.074-1.124 0-1.616.833l-.54.914.647.952c.528.776.811.952 1.537.952.743 0 .985-.16 1.454-.955zm3.284 1.285c.003-.4-.016-1.948-.042-3.44l-.049-2.711h-1.19c-1.005 0-1.191-.08-1.191-.517 0-.439.149-.5.992-.412.546.058 1.915.112 3.043.12 1.64.012 2.05.095 2.05.412 0 .294-.308.397-1.19.397h-1.19v3.44c0 3.43-.003 3.44-.62 3.44-.501 0-.619-.14-.613-.729zm4.804-2.182c0-2.734.032-2.91.53-2.91.496 0 .528.176.528 2.91s-.032 2.91-.529 2.91-.529-.176-.529-2.91zm3.494.463a297.992 297.992 0 0 1-1.131-2.91c-.127-.345-.034-.464.364-.464.424 0 .715.461 1.417 2.248.486 1.237.943 2.247 1.015 2.246.073 0 .5-.983.95-2.182.66-1.762.932-2.196 1.418-2.268.331-.049.559.023.506.16-2.064 5.35-2.202 5.617-2.895 5.617-.616 0-.777-.24-1.644-2.447zm5.634-.463c0-2.734.032-2.91.53-2.91.496 0 .528.176.528 2.91s-.032 2.91-.529 2.91-.529-.176-.529-2.91zm3.85 2.395c-.352-.388-.525-1.098-.617-2.526-.07-1.092-.23-1.986-.357-1.986-.127 0-.23-.179-.23-.397 0-.218.119-.397.265-.397.145 0 .264-.416.264-.926 0-.74.103-.926.513-.926.384 0 .533.214.595.86.07.724.208.88.876.992 1.147.191 1.147.794 0 .794h-.926v1.605c0 2.123.33 2.734 1.367 2.527.65-.13.773-.078.7.303-.134.71-1.829.764-2.45.077zm-13.014-7.024c-.092-.239-.04-.56.115-.716.403-.403 1.167-.035 1.062.512-.117.61-.965.756-1.177.204zm9.26 0c-.091-.239-.04-.56.116-.716.403-.403 1.167-.035 1.061.512-.117.61-.965.756-1.177.204z" style="fill:#333;fill-opacity:1;stroke-width:.264583" transform="translate(-73.19 -65.394)"/></svg>