<?xml version="1.0" encoding="UTF-8" standalone="no"?>
<!-- Created with Inkscape (http://www.inkscape.org/) -->

<svg
   width="40mm"
   height="40mm"
   viewBox="0 0 40 40"
   version="1.1"
   id="svg5"
   inkscape:version="1.1.2 (0a00cf5339, 2022-02-04, custom)"
   sodipodi:docname="drawing.svg"
   xmlns:inkscape="http://www.inkscape.org/namespaces/inkscape"
   xmlns:sodipodi="http://sodipodi.sourceforge.net/DTD/sodipodi-0.dtd"
   xmlns="http://www.w3.org/2000/svg"
   xmlns:svg="http://www.w3.org/2000/svg">
  <sodipodi:namedview
     id="namedview7"
     pagecolor="#ffffff"
     bordercolor="#666666"
     borderopacity="1.0"
     inkscape:pageshadow="2"
     inkscape:pageopacity="0.0"
     inkscape:pagecheckerboard="0"
     inkscape:document-units="mm"
     showgrid="false"
     inkscape:zoom="2.2"
     inkscape:cx="102.95455"
     inkscape:cy="92.5"
     inkscape:window-width="1459"
     inkscape:window-height="867"
     inkscape:window-x="651"
     inkscape:window-y="141"
     inkscape:window-maximized="0"
     inkscape:current-layer="layer1" />
  <defs
     id="defs2" />
  <g
     inkscape:label="Layer 1"
     inkscape:groupmode="layer"
     id="layer1">
    <g
       id="g111"
       transform="translate(-73.189068,-65.393751)">
      <path
         style="fill:#b9b9b9;fill-opacity:1;stroke-width:0.264583"
         d="m 76.80483,93.979559 c -0.08994,-0.145521 -0.03743,-0.264583 0.116677,-0.264583 0.154109,0 0.280198,0.119062 0.280198,0.264583 0,0.145521 -0.0525,0.264583 -0.116676,0.264583 -0.06417,0 -0.190262,-0.119062 -0.280199,-0.264583 z m -1.190625,-1.322917 c 0,-0.14552 0.119063,-0.264583 0.264584,-0.264583 0.14552,0 0.264583,0.119063 0.264583,0.264583 0,0.145521 -0.119063,0.264584 -0.264583,0.264584 -0.145521,0 -0.264584,-0.119063 -0.264584,-0.264584 z m 2.262925,0.0226 c -0.08519,-0.137839 -0.04211,-0.320317 0.09573,-0.405506 0.137839,-0.08519 0.320317,-0.04211 0.405507,0.09573 0.08519,0.137839 0.04211,0.320317 -0.09573,0.405507 -0.13784,0.08519 -0.320318,0.04211 -0.405507,-0.09573 z m 3.333013,-0.0094 c 0.113694,-0.341083 0.476596,-0.402352 0.509323,-0.08599 0.01091,0.105503 -0.123032,0.239448 -0.297657,0.297656 -0.174625,0.05821 -0.269875,-0.03704 -0.211666,-0.211666 z m 25.492607,-1.118628 c -0.29104,-0.162557 -0.56858,-0.327333 -0.61675,-0.366169 -0.0482,-0.03884 0.0348,-0.299244 0.18433,-0.578684 0.20304,-0.379393 0.47575,-0.478157 1.07672,-0.389953 0.57251,0.08403 0.85193,-0.0047 0.96808,-0.307343 0.0898,-0.234005 -0.38509,-1.795734 -1.05529,-3.470508 -0.6702,-1.674775 -1.21855,-3.11188 -1.21855,-3.193568 0,-0.08169 0.32343,-0.11085 0.71873,-0.0648 0.62875,0.07324 0.81921,0.340306 1.52135,2.133346 0.44145,1.127295 0.86216,2.049627 0.93492,2.049627 0.0728,0 0.49347,-0.922332 0.93491,-2.049627 0.70215,-1.79304 0.8926,-2.060107 1.52136,-2.133346 0.3953,-0.04605 0.71873,-0.0252 0.71873,0.04632 0,0.07152 -0.66245,1.776073 -1.47212,3.787886 -1.81401,4.507344 -2.65297,5.41006 -4.21642,4.536819 z M 79.053789,91.318111 c 0,-0.154109 0.119062,-0.206614 0.264583,-0.116677 0.145521,0.08994 0.264583,0.216026 0.264583,0.280198 0,0.06417 -0.119062,0.116677 -0.264583,0.116677 -0.145521,0 -0.264583,-0.126089 -0.264583,-0.280198 z m -1.322917,-1.042719 c 0,-0.14552 0.178594,-0.264583 0.396875,-0.264583 0.218281,0 0.396875,0.119063 0.396875,0.264583 0,0.145521 -0.178594,0.264584 -0.396875,0.264584 -0.218281,0 -0.396875,-0.119063 -0.396875,-0.264584 z m 1.322917,0 c 0,-0.14552 0.119062,-0.264583 0.264583,-0.264583 0.145521,0 0.264583,0.119063 0.264583,0.264583 0,0.145521 -0.119062,0.264584 -0.264583,0.264584 -0.145521,0 -0.264583,-0.119063 -0.264583,-0.264584 z m 2.116666,0 c 0,-0.14552 0.119063,-0.264583 0.264584,-0.264583 0.14552,0 0.264583,0.119063 0.264583,0.264583 0,0.145521 -0.119063,0.264584 -0.264583,0.264584 -0.145521,0 -0.264584,-0.119063 -0.264584,-0.264584 z m -6.173611,-0.970139 c -0.09701,-0.09701 -0.176389,-0.847107 -0.176389,-1.666875 0,-0.819767 -0.129437,-1.619922 -0.287637,-1.778123 -0.207127,-0.207127 -0.207127,-0.337395 0,-0.465406 0.16543,-0.102241 0.287637,-1.014231 0.287637,-2.14653 v -1.96876 h 0.765116 0.765117 l -0.0739,3.902604 c -0.04065,2.146432 -0.08729,3.991901 -0.103658,4.101042 -0.03686,0.24579 -0.935694,0.262638 -1.176284,0.02205 z m 1.715382,-0.07496 c 0.113695,-0.341083 0.476596,-0.402353 0.509323,-0.08599 0.01091,0.105502 -0.123031,0.239447 -0.297656,0.297656 -0.174625,0.05821 -0.269875,-0.03704 -0.211667,-0.211666 z m 1.314141,-0.971148 c -0.380803,-0.628112 -0.817601,-1.145785 -0.970662,-1.150385 -0.414986,-0.01247 -0.405583,-1.860446 0.0095,-1.860446 0.47983,0 1.366913,-1.39786 0.970861,-1.529877 -0.167839,-0.05595 -0.305161,-0.210861 -0.305161,-0.344255 0,-0.133394 1.203363,-0.242535 2.674141,-0.242535 2.316469,0 2.65291,0.05532 2.515414,0.413635 -0.191269,0.498439 0.556111,2.045301 0.888847,1.839659 0.129268,-0.07989 0.304734,-0.03248 0.389923,0.105358 0.08519,0.137839 0.04506,0.318494 -0.08917,0.401455 -0.134233,0.08296 -0.18182,0.388844 -0.105749,0.67974 0.09152,0.349987 0.008,0.528903 -0.246953,0.528903 -0.473258,0 -1.065964,1.224932 -0.87887,1.816341 0.118568,0.374795 -0.150276,0.43608 -2.011428,0.458523 L 78.718771,89.401171 78.0264,88.25915 Z m 3.859867,-1.29321 c 0.42408,-0.889305 0.419931,-0.958621 -0.09898,-1.653646 -0.797827,-1.068602 -2.135283,-1.019333 -2.790645,0.102802 -0.464203,0.794826 -0.464802,0.861464 -0.01483,1.651973 0.394144,0.692431 0.627726,0.824004 1.465354,0.82541 0.879439,0.0015 1.048452,-0.107339 1.439102,-0.926539 z m 3.42936,2.339323 c -0.09701,-0.09701 -0.176389,-0.622873 -0.176389,-1.168576 0,-0.545789 -0.148799,-1.052564 -0.330729,-1.126385 -0.252283,-0.102367 -0.240629,-0.196948 0.04913,-0.398758 0.304408,-0.21201 0.314994,-0.342721 0.0533,-0.658046 -0.232361,-0.279978 -0.242828,-0.445237 -0.03628,-0.572887 0.206543,-0.127651 0.196076,-0.29291 -0.03629,-0.572888 -0.261773,-0.315417 -0.251199,-0.441977 0.0533,-0.637903 0.328112,-0.21112 0.325795,-0.283207 -0.01701,-0.529144 -0.298836,-0.214391 -0.315176,-0.317877 -0.06615,-0.418924 0.696722,-0.282703 0.281112,-0.593531 -0.897081,-0.670915 -1.169925,-0.07684 -1.232189,-0.121183 -1.32069,-0.940539 -0.05108,-0.472943 0.02518,-0.859896 0.169477,-0.859896 0.144296,0 0.262357,0.119063 0.262357,0.264584 0,0.161143 1.196759,0.264583 3.06111,0.264583 3.023147,0 3.060062,0.0074 2.976562,0.595312 -0.07215,0.50802 -0.268832,0.607138 -1.341318,0.675956 l -1.256771,0.08064 v 3.425087 c 0,3.144907 -0.03968,3.425086 -0.485069,3.425086 -0.266789,0 -0.564445,-0.07937 -0.661459,-0.176389 z m 4.771647,0.0091 c -0.102045,-0.102044 -0.185536,-1.53491 -0.185536,-3.184147 V 83.1316 h 0.669855 0.669855 l -0.07454,3.105659 c -0.06131,2.55449 -0.147267,3.119588 -0.48432,3.184146 -0.225377,0.04317 -0.493268,-0.005 -0.595312,-0.107047 z m 4.368306,-0.163487 c -0.257005,-0.310837 -2.437175,-5.5975 -2.437175,-5.909871 0,-0.0795 0.315194,-0.106874 0.700432,-0.06083 0.612789,0.07324 0.809485,0.365126 1.571963,2.332678 0.864513,2.230849 0.873905,2.242567 1.16618,1.455209 1.199044,-3.230075 1.477984,-3.70329 2.234872,-3.791399 0.539305,-0.06278 0.710401,0.01138 0.610396,0.264583 -2.39908,6.07422 -2.381652,6.040357 -3.108843,6.040357 -0.255405,0 -0.587427,-0.148828 -0.737825,-0.330729 z m 4.706575,-2.825869 V 83.1316 h 0.669856 0.669852 l -0.0745,3.108855 c -0.0718,2.996558 -0.0961,3.111908 -0.669856,3.193402 -0.589147,0.08367 -0.595312,0.05148 -0.595312,-3.108855 z m 3.824428,2.507167 c -0.57476,-0.574762 -0.64943,-0.878975 -0.64943,-2.645834 0,-1.59819 -0.0792,-1.996401 -0.39687,-1.996401 -0.22049,0 -0.39688,-0.235186 -0.39688,-0.529167 0,-0.293981 0.17639,-0.529167 0.39688,-0.529167 0.27718,0 0.39687,-0.279282 0.39687,-0.926041 0,-0.811389 0.0819,-0.926042 0.66146,-0.926042 0.57956,0 0.66146,0.114653 0.66146,0.926042 0,0.852546 0.063,0.926041 0.79375,0.926041 0.61736,0 0.79375,0.117593 0.79375,0.529167 0,0.413266 -0.17639,0.529167 -0.80534,0.529167 h -0.80534 l 0.0777,1.918229 0.0777,1.918229 0.84272,-0.03714 c 1.00338,-0.04423 1.41993,0.634514 0.70861,1.154643 -0.71625,0.523734 -1.6444,0.400988 -2.35711,-0.311722 z M 76.672539,87.894142 c 0,-0.145521 0.119062,-0.264583 0.264583,-0.264583 0.145521,0 0.264583,0.119062 0.264583,0.264583 0,0.145521 -0.119062,0.264584 -0.264583,0.264584 -0.145521,0 -0.264583,-0.119063 -0.264583,-0.264584 z m 7.011458,0 c 0.08994,-0.145521 0.216026,-0.264583 0.280198,-0.264583 0.06417,0 0.116677,0.119062 0.116677,0.264583 0,0.145521 -0.126089,0.264584 -0.280198,0.264584 -0.154109,0 -0.206614,-0.119063 -0.116677,-0.264584 z m -6.887379,-3.188287 c -0.251411,-0.406793 0.09296,-0.669255 0.432551,-0.329666 0.190018,0.190019 0.194584,0.338012 0.01387,0.449698 -0.148145,0.09156 -0.349036,0.03754 -0.446423,-0.120032 z m 6.879167,0 c -0.251412,-0.406793 0.09296,-0.669255 0.43255,-0.329666 0.190019,0.190019 0.194584,0.338012 0.01387,0.449698 -0.148145,0.09156 -0.349035,0.03754 -0.446423,-0.120032 z m -7.003246,-1.309629 c 0,-0.145521 0.119062,-0.264584 0.264583,-0.264584 0.145521,0 0.264583,0.119063 0.264583,0.264584 0,0.145521 -0.119062,0.264583 -0.264583,0.264583 -0.145521,0 -0.264583,-0.119062 -0.264583,-0.264583 z m 6.879166,0 c 0,-0.145521 0.119063,-0.264584 0.264584,-0.264584 0.14552,0 0.264583,0.119063 0.264583,0.264584 0,0.145521 -0.119063,0.264583 -0.264583,0.264583 -0.145521,0 -0.264584,-0.119062 -0.264584,-0.264583 z M 77.914454,82.43328 c -0.211384,-0.211384 0.02757,-0.624554 0.3612,-0.624554 0.136932,0 0.248968,0.178593 0.248968,0.396875 0,0.409154 -0.312199,0.525648 -0.610168,0.227679 z m 2.197668,-0.227679 c 0,-0.242535 0.127992,-0.398309 0.284427,-0.346163 0.156435,0.05214 0.284427,0.207918 0.284427,0.346163 0,0.138244 -0.127992,0.294018 -0.284427,0.346163 -0.156435,0.05214 -0.284427,-0.103629 -0.284427,-0.346163 z m 1.204591,0.154889 c -0.08519,-0.137839 -0.04211,-0.320317 0.09573,-0.405506 0.137839,-0.08519 0.320317,-0.04211 0.405506,0.09573 0.08519,0.137839 0.04211,0.320317 -0.09573,0.405507 -0.137839,0.08519 -0.320317,0.04211 -0.405507,-0.09573 z m 8.597206,-0.404755 c -0.714558,-0.860991 0.467974,-1.896881 1.260588,-1.104267 0.33696,0.33696 0.371467,0.543704 0.149563,0.896076 -0.386334,0.61348 -0.998752,0.703895 -1.410151,0.208191 z m 9.229796,-0.0369 c -0.403387,-0.486052 -0.05935,-1.248187 0.624226,-1.382846 0.597479,-0.117699 1.113949,0.926853 0.703059,1.421937 -0.41164,0.496004 -0.895009,0.481768 -1.327285,-0.03909 z M 79.053789,81.014976 c 0,-0.145521 0.119062,-0.264584 0.264583,-0.264584 0.145521,0 0.264583,0.119063 0.264583,0.264584 0,0.145521 -0.119062,0.264583 -0.264583,0.264583 -0.145521,0 -0.264583,-0.119062 -0.264583,-0.264583 z m 2.116666,0 c 0,-0.145521 0.178594,-0.264584 0.396875,-0.264584 0.218281,0 0.396875,0.119063 0.396875,0.264584 0,0.145521 -0.178594,0.264583 -0.396875,0.264583 -0.218281,0 -0.396875,-0.119062 -0.396875,-0.264583 z m 0.264584,-1.058334 c 0,-0.145521 0.126089,-0.264583 0.280198,-0.264583 0.154109,0 0.206613,0.119062 0.116677,0.264583 -0.08994,0.145521 -0.216026,0.264584 -0.280199,0.264584 -0.06417,0 -0.116676,-0.119063 -0.116676,-0.264584 z m -2.38125,-1.190625 c 0,-0.218281 0.119062,-0.396875 0.264583,-0.396875 0.145521,0 0.264583,0.178594 0.264583,0.396875 0,0.218282 -0.119062,0.396875 -0.264583,0.396875 -0.145521,0 -0.264583,-0.178593 -0.264583,-0.396875 z m 3.439583,-0.01562 c 0,-0.226869 0.119062,-0.338905 0.264583,-0.248968 0.145521,0.08994 0.264584,0.275557 0.264584,0.41249 0,0.136933 -0.119063,0.248968 -0.264584,0.248968 -0.145521,0 -0.264583,-0.18562 -0.264583,-0.41249 z m 1.190625,-1.439593 c 0.08994,-0.145521 0.216026,-0.264583 0.280198,-0.264583 0.06417,0 0.116677,0.119062 0.116677,0.264583 0,0.145521 -0.126089,0.264583 -0.280198,0.264583 -0.154109,0 -0.206614,-0.119062 -0.116677,-0.264583 z"
         id="path125" />
      <path
         style="fill:#a3a3a3;fill-opacity:1;stroke-width:0.264583"
         d="m 81.302747,92.656642 c -0.08994,-0.14552 0.02913,-0.264583 0.264583,-0.264583 0.235458,0 0.35452,0.119063 0.264584,0.264583 -0.08994,0.145521 -0.209,0.264584 -0.264584,0.264584 -0.05558,0 -0.174646,-0.119063 -0.264583,-0.264584 z m 25.466143,-1.103916 c -0.81344,-0.294138 -0.85838,-0.421735 -0.37323,-1.059833 0.22113,-0.290845 0.46425,-0.36565 0.70494,-0.216899 0.43913,0.271399 1.32194,-0.140446 1.32194,-0.616709 0,-0.183098 -0.53578,-1.665833 -1.19063,-3.294966 -0.65484,-1.629134 -1.19062,-3.030858 -1.19062,-3.114943 0,-0.08409 0.31321,-0.115208 0.69604,-0.06916 0.59736,0.07185 0.81304,0.374006 1.52135,2.131302 0.45392,1.126169 0.88485,2.048501 0.95761,2.049626 0.0728,0.0011 0.49347,-0.920287 0.93491,-2.047582 0.7162,-1.82893 0.88394,-2.059019 1.55776,-2.136858 0.59245,-0.06844 0.72123,0.0011 0.59778,0.322807 -1.31821,3.435208 -2.99367,7.266673 -3.32696,7.608129 -0.58761,0.602015 -1.35157,0.755813 -2.21089,0.445088 z M 77.730872,90.275392 c 0,-0.14552 0.178594,-0.264583 0.396875,-0.264583 0.218281,0 0.396875,0.119063 0.396875,0.264583 0,0.145521 -0.178594,0.264584 -0.396875,0.264584 -0.218281,0 -0.396875,-0.119063 -0.396875,-0.264584 z m 1.322917,0 c 0,-0.14552 0.119062,-0.264583 0.264583,-0.264583 0.145521,0 0.264583,0.119063 0.264583,0.264583 0,0.145521 -0.119062,0.264584 -0.264583,0.264584 -0.145521,0 -0.264583,-0.119063 -0.264583,-0.264584 z m -2.38125,-1.058333 c 0,-0.145521 0.119062,-0.264583 0.264583,-0.264583 0.145521,0 0.264583,0.119062 0.264583,0.264583 0,0.145521 -0.119062,0.264583 -0.264583,0.264583 -0.145521,0 -0.264583,-0.119062 -0.264583,-0.264583 z m 1.35681,-0.95313 c -0.382443,-0.630746 -0.827092,-1.150574 -0.988108,-1.155174 -0.364223,-0.0104 -0.336289,-1.593797 0.02817,-1.596932 0.407381,-0.0035 1.190315,-1.543958 1.015824,-1.998675 -0.13301,-0.346619 0.206029,-0.397783 2.391157,-0.36085 1.400379,0.02367 2.546144,0.147768 2.546144,0.275774 0,0.128005 -0.115048,0.232737 -0.255661,0.232737 -0.140613,0 -0.0098,0.416719 0.290718,0.926042 0.300508,0.509323 0.635561,0.926041 0.744563,0.926041 0.109001,0 0.20834,0.357188 0.220752,0.79375 0.0127,0.446547 -0.114359,0.794482 -0.290464,0.795423 -0.172168,9.26e-4 -0.526938,0.377419 -0.788378,0.836665 -0.37898,0.665718 -0.405799,0.879108 -0.132292,1.052609 0.188679,0.119689 0.283522,0.223568 0.210762,0.230843 -0.07276,0.0073 -1.06954,0.05267 -2.215065,0.100892 l -2.082772,0.08767 z m 3.82871,-1.214096 c 0.409561,-0.792005 0.406965,-0.899353 -0.04191,-1.732859 -0.42149,-0.782661 -0.589411,-0.879111 -1.409063,-0.809337 -0.727206,0.0619 -1.038853,0.265368 -1.42619,0.931111 -0.477928,0.821448 -0.478716,0.880553 -0.02204,1.653645 0.393654,0.666406 0.641483,0.801749 1.468096,0.801749 0.850622,0 1.057655,-0.122143 1.431102,-0.844309 z m 21.128491,1.782378 c -0.57476,-0.574762 -0.64943,-0.878975 -0.64943,-2.645834 0,-1.59819 -0.0792,-1.996401 -0.39687,-1.996401 -0.22049,0 -0.39688,-0.235186 -0.39688,-0.529167 0,-0.293981 0.17639,-0.529167 0.39688,-0.529167 0.27718,0 0.39687,-0.279282 0.39687,-0.926041 0,-0.811389 0.0819,-0.926042 0.66146,-0.926042 0.57956,0 0.66146,0.114653 0.66146,0.926042 0,0.852546 0.063,0.926041 0.79375,0.926041 0.61736,0 0.79375,0.117593 0.79375,0.529167 0,0.413266 -0.17639,0.529167 -0.80534,0.529167 h -0.80534 l 0.0777,1.918229 0.0777,1.918229 0.84272,-0.03714 c 1.00338,-0.04423 1.41993,0.634514 0.70861,1.154643 -0.71625,0.523734 -1.6444,0.400988 -2.35711,-0.311722 z M 74.820455,87.682476 c 0,-0.844021 -0.142875,-1.677459 -0.3175,-1.852084 -0.246944,-0.246944 -0.246944,-0.3175 0,-0.3175 0.220486,0 0.3175,-0.646759 0.3175,-2.116666 0,-2.081389 0.01103,-2.116667 0.661459,-2.116667 0.503208,0 0.666593,0.142425 0.682921,0.595312 0.02875,0.797389 0.02967,6.593231 0.0011,7.011459 -0.01241,0.181901 -0.32023,0.330729 -0.684032,0.330729 -0.629526,0 -0.661459,-0.07408 -0.661459,-1.534583 z m 10.31875,0.491865 c 0,-0.573496 -0.131774,-1.12416 -0.292831,-1.223698 -0.206221,-0.127452 -0.191689,-0.243489 0.04913,-0.392325 0.261971,-0.161907 0.270051,-0.297994 0.03454,-0.581764 -0.234342,-0.282364 -0.230297,-0.452259 0.01701,-0.714697 0.256573,-0.272266 0.252947,-0.370412 -0.01734,-0.469226 -0.271272,-0.09917 -0.274782,-0.205666 -0.01701,-0.516259 0.25938,-0.312534 0.248287,-0.44457 -0.0551,-0.655871 -0.289762,-0.20181 -0.301416,-0.296392 -0.04913,-0.398759 0.714054,-0.289735 0.272456,-0.619266 -0.829866,-0.619266 -1.106136,0 -1.16674,-0.04035 -1.291556,-0.859896 -0.132375,-0.869171 0.04366,-1.403589 0.261464,-0.79375 0.0846,0.236877 0.929005,0.330729 2.975627,0.330729 2.606594,0 2.869309,0.04512 2.991883,0.513846 0.184305,0.704781 0.01578,0.809071 -1.307378,0.809071 H 86.46212 v 3.307291 3.307292 h -0.661458 c -0.593662,0 -0.661459,-0.106874 -0.661459,-1.042718 z m 4.7625,-1.99999 v -3.042709 h 0.661459 0.661458 v 3.042709 3.042708 h -0.661458 -0.661459 z m 4.262093,2.464172 c -0.129515,-0.336649 -0.665219,-1.647146 -1.190454,-2.912216 -0.525235,-1.26507 -0.954972,-2.366398 -0.954972,-2.447396 0,-0.081 0.286545,-0.147269 0.636768,-0.147269 0.542073,0 0.75848,0.292365 1.455208,1.965982 0.450142,1.08129 0.81844,2.117134 0.81844,2.301875 0,0.658752 0.493774,-0.17636 1.271929,-2.15119 0.669391,-1.698808 0.881624,-1.996423 1.474785,-2.068095 0.381077,-0.04605 0.69287,-0.04079 0.69287,0.01169 0,0.05248 -0.523592,1.399837 -1.16354,2.994137 -1.105016,2.752924 -1.204836,2.902898 -1.984547,2.981649 -0.654817,0.06614 -0.86867,-0.04097 -1.056487,-0.529167 z m 4.998324,-2.464172 v -3.042709 h 0.661458 0.66146 v 3.042709 3.042708 H 99.82358 99.162122 Z M 76.80483,87.894142 c 0.08994,-0.145521 0.216026,-0.264583 0.280199,-0.264583 0.06417,0 0.116676,0.119062 0.116676,0.264583 0,0.145521 -0.126089,0.264584 -0.280198,0.264584 -0.154109,0 -0.206614,-0.119063 -0.116677,-0.264584 z m -0.132291,-3.439583 c 0,-0.145521 0.119062,-0.264583 0.264583,-0.264583 0.145521,0 0.264583,0.119062 0.264583,0.264583 0,0.145521 -0.119062,0.264583 -0.264583,0.264583 -0.145521,0 -0.264583,-0.119062 -0.264583,-0.264583 z m 6.879166,0 c 0,-0.145521 0.119063,-0.264583 0.264584,-0.264583 0.14552,0 0.264583,0.119062 0.264583,0.264583 0,0.145521 -0.119063,0.264583 -0.264583,0.264583 -0.145521,0 -0.264584,-0.119062 -0.264584,-0.264583 z m 0,-1.058333 c 0,-0.145521 0.119063,-0.264584 0.264584,-0.264584 0.14552,0 0.264583,0.119063 0.264583,0.264584 0,0.145521 -0.119063,0.264583 -0.264583,0.264583 -0.145521,0 -0.264584,-0.119062 -0.264584,-0.264583 z M 77.87713,82.36049 c -0.08519,-0.137839 -0.04211,-0.320317 0.09573,-0.405506 0.137839,-0.08519 0.320317,-0.04211 0.405507,0.09573 0.08519,0.137839 0.04211,0.320317 -0.09573,0.405507 -0.13784,0.08519 -0.320318,0.04211 -0.405507,-0.09573 z m 2.378583,-0.0043 c -0.08372,-0.135466 -0.03122,-0.321086 0.116676,-0.41249 0.147895,-0.0914 0.2689,0.01943 0.2689,0.246301 0,0.464747 -0.158765,0.533177 -0.385576,0.166189 z m 1.061,0.0043 c -0.08519,-0.137839 -0.04211,-0.320317 0.09573,-0.405506 0.137839,-0.08519 0.320317,-0.04211 0.405506,0.09573 0.08519,0.137839 0.04211,0.320317 -0.09573,0.405507 -0.137839,0.08519 -0.320317,0.04211 -0.405507,-0.09573 z m 8.622242,-0.37459 c -0.671068,-0.808587 0.336623,-1.737555 1.193804,-1.10054 0.388792,0.288931 0.428832,0.461062 0.195796,0.841723 -0.378621,0.618472 -0.995724,0.733409 -1.3896,0.258817 z m 9.276083,0.03449 c -0.463383,-0.463382 -0.388964,-0.948552 0.193292,-1.260166 0.72627,-0.388686 1.45556,0.340609 1.06687,1.066874 -0.31161,0.582256 -0.796778,0.656675 -1.260162,0.193292 z M 81.302747,81.014976 c 0.08994,-0.145521 0.275557,-0.264584 0.41249,-0.264584 0.136933,0 0.248968,0.119063 0.248968,0.264584 0,0.145521 -0.18562,0.264583 -0.41249,0.264583 -0.226869,0 -0.338905,-0.119062 -0.248968,-0.264583 z m -2.248958,-2.116667 c 0,-0.145521 0.119062,-0.264583 0.264583,-0.264583 0.145521,0 0.264583,0.119062 0.264583,0.264583 0,0.145521 -0.119062,0.264583 -0.264583,0.264583 -0.145521,0 -0.264583,-0.119062 -0.264583,-0.264583 z"
         id="path123" />
      <path
         style="fill:#8c8c8c;fill-opacity:1;stroke-width:0.264583"
         d="m 106.92689,91.580506 c -0.31178,-0.115333 -0.63727,-0.323613 -0.72332,-0.462843 -0.2337,-0.378124 0.47742,-0.858283 1.15408,-0.779254 0.32634,0.03811 0.72263,-0.129873 0.88101,-0.373459 0.27476,-0.422569 0.0668,-1.059953 -2.12879,-6.523665 -0.10156,-0.252726 0.0652,-0.327246 0.59204,-0.264583 0.64683,0.07693 0.82773,0.329297 1.53237,2.137753 0.43942,1.127786 0.86991,2.049198 0.95663,2.047581 0.0867,-0.0016 0.52906,-0.924351 0.98298,-2.05052 0.70832,-1.757296 0.924,-2.059451 1.52136,-2.131302 0.38282,-0.04605 0.69604,-0.03951 0.69604,0.01452 0,0.160739 -2.84852,6.99979 -3.15044,7.563926 -0.35316,0.659894 -1.57687,1.094517 -2.31396,0.821849 z M 78.484578,88.912432 c -0.28064,-0.28064 -0.624278,-0.773391 -0.76364,-1.095001 -0.139362,-0.321611 -0.40163,-0.792695 -0.582817,-1.046853 -0.263798,-0.370042 -0.261062,-0.571582 0.01373,-1.011598 0.18874,-0.30222 0.589411,-1.021928 0.890381,-1.599351 l 0.547218,-1.049861 1.855437,0.07708 c 1.810592,0.07522 1.867108,0.09889 2.338309,0.979369 0.265579,0.496257 0.606671,1.026085 0.757981,1.177396 0.443095,0.443095 0.321018,1.165402 -0.386349,2.285943 -0.363802,0.5763 -0.661458,1.169246 -0.661458,1.317659 0,0.148413 -0.386953,0.282893 -0.859896,0.298846 -0.472943,0.01595 -1.260114,0.06222 -1.74927,0.102814 -0.59976,0.04977 -1.055532,-0.09235 -1.399628,-0.436446 z m 3.420332,-1.866855 c 0.401521,-0.664672 0.40049,-0.783804 -0.01431,-1.653646 -0.395727,-0.829848 -0.561989,-0.937372 -1.449448,-0.937372 -0.86721,0 -1.067325,0.120473 -1.483365,0.893011 -0.450819,0.837121 -0.45369,0.945663 -0.04587,1.734305 0.39354,0.761021 0.536445,0.833599 1.497674,0.760636 0.825215,-0.06264 1.159293,-0.240688 1.495315,-0.796934 z m 21.57399,2.175333 c -0.87311,-0.36039 -1.14178,-1.104299 -1.14178,-3.161457 0,-1.485369 -0.0815,-1.869477 -0.39687,-1.869477 -0.22049,0 -0.39688,-0.235186 -0.39688,-0.529167 0,-0.293981 0.17639,-0.529167 0.39688,-0.529167 0.27718,0 0.39687,-0.279282 0.39687,-0.926041 0,-0.811389 0.0819,-0.926042 0.66146,-0.926042 0.57956,0 0.66146,0.114653 0.66146,0.926042 0,0.852546 0.063,0.926041 0.79375,0.926041 0.61736,0 0.79375,0.117593 0.79375,0.529167 0,0.413266 -0.17639,0.529167 -0.80534,0.529167 h -0.80534 l 0.0777,1.918229 0.0777,1.918229 0.84272,-0.03714 c 0.83587,-0.03684 1.40168,0.550847 0.95189,0.988706 -0.36616,0.356453 -1.51285,0.488588 -2.10804,0.242914 z M 74.820455,85.248309 v -3.96875 h 0.661459 0.661458 v 3.96875 3.96875 h -0.661458 -0.661459 z m 10.31875,0.661458 V 82.602476 H 83.94858 c -1.093611,0 -1.190625,-0.0539 -1.190625,-0.661459 v -0.661458 h 3.042709 3.042708 v 0.661458 c 0,0.607562 -0.09701,0.661459 -1.190625,0.661459 h -1.190625 v 3.307291 3.307292 h -0.661458 -0.661459 z m 4.7625,0.264584 v -3.042709 h 0.661459 0.661458 v 3.042709 3.042708 h -0.661458 -0.661459 z m 4.256755,2.447395 c -0.125435,-0.327421 -0.65827,-1.660246 -1.184076,-2.961832 -0.525807,-1.301585 -0.956012,-2.402913 -0.956012,-2.447395 0,-0.04448 0.287208,-0.08088 0.63824,-0.08088 0.555225,0 0.753105,0.292395 1.521354,2.248003 0.485713,1.236401 0.942645,2.247076 1.015406,2.245944 0.07276,-0.0011 0.499861,-0.982968 0.949113,-2.181857 0.729213,-1.946011 0.895474,-2.189076 1.550186,-2.2663 0.403355,-0.04758 0.690629,0.01759 0.638389,0.144825 -0.05224,0.12723 -0.614092,1.50561 -1.248563,3.063065 -1.09492,2.687731 -1.192803,2.831737 -1.924778,2.831737 -0.555794,0 -0.834895,-0.166276 -0.999259,-0.595313 z m 5.003662,-2.465797 c 0,-3.023148 0.0074,-3.060062 0.595312,-2.976563 0.571846,0.08122 0.598256,0.201872 0.670126,3.061111 l 0.0748,2.976562 h -0.670125 -0.670123 z m -9.098509,-4.223113 c -0.222204,-0.222204 -0.336796,-0.579155 -0.25465,-0.793225 0.199444,-0.519743 1.317226,-0.498194 1.519643,0.0293 0.22356,0.582587 0.221124,0.588808 -0.350193,0.894568 -0.383739,0.205371 -0.611285,0.172876 -0.9148,-0.130639 z m 9.238381,0.04644 c -0.647176,-0.473227 -0.348959,-1.228886 0.484976,-1.228886 0.79054,0 1.07979,0.638814 0.53564,1.182969 -0.488179,0.488174 -0.419988,0.485106 -1.020616,0.04592 z"
         id="path121" />
      <path
         style="fill:#767676;fill-opacity:1;stroke-width:0.264583"
         d="m 106.39717,91.190023 c -0.20682,-0.538961 0.0709,-0.782339 0.89284,-0.782339 0.3699,0 0.79943,-0.19923 0.95453,-0.442734 0.26651,-0.418432 0.0133,-1.192648 -2.12658,-6.502578 -0.0853,-0.21164 0.10358,-0.33073 0.52453,-0.33073 0.57305,0 0.77041,0.272741 1.53172,2.116667 0.48065,1.164167 0.95551,2.116667 1.05525,2.116667 0.0998,0 0.52454,-0.906948 0.94399,-2.01544 0.76161,-2.012734 1.09097,-2.402339 1.80064,-2.130011 0.29607,0.113611 0.0404,0.953837 -1.19607,3.930911 -0.86495,2.082528 -1.77153,3.935243 -2.01462,4.117144 -0.63231,0.473129 -2.1743,0.422588 -2.36623,-0.07756 z m -2.91571,-2.106677 c -0.93621,-0.393646 -1.13574,-0.960339 -1.14073,-3.239725 -0.003,-1.291912 -0.0904,-1.653645 -0.40048,-1.653645 -0.21828,0 -0.39688,-0.182331 -0.39688,-0.405179 0,-0.222849 0.1786,-0.473712 0.39688,-0.557474 0.24487,-0.09397 0.39687,-0.49612 0.39687,-1.05003 0,-0.781194 0.0859,-0.897734 0.66146,-0.897734 0.57713,0 0.66146,0.115824 0.66146,0.908468 0,0.79362 0.0917,0.919051 0.72534,0.992187 0.43748,0.05049 0.76019,0.267479 0.81315,0.546741 0.0682,0.359581 -0.0939,0.463021 -0.72534,0.463021 h -0.81315 v 1.819686 c 0,1.316944 0.11275,1.913258 0.40809,2.15837 0.30417,0.252439 0.48448,0.262292 0.70808,0.03869 0.30621,-0.306213 1.0005,0.03221 1.0005,0.487682 0,0.47391 -1.49191,0.72672 -2.29525,0.38894 z M 74.820455,85.248309 v -3.96875 h 0.661459 0.661458 v 3.96875 3.96875 h -0.661458 -0.661459 z m 3.432791,3.365123 c -0.222018,-0.322849 -0.624269,-1.011614 -0.893893,-1.530589 l -0.490224,-0.943592 0.695455,-1.101671 c 0.3825,-0.60592 0.695455,-1.220832 0.695455,-1.366472 0,-0.390184 1.030651,-0.581618 2.632437,-0.48895 l 1.413531,0.08178 0.800976,1.53215 0.800976,1.532151 -0.591995,0.981391 c -0.325598,0.539765 -0.657767,1.189751 -0.738153,1.444412 -0.121573,0.38514 -0.463615,0.461622 -2.033527,0.454706 -1.64653,-0.0073 -1.938881,-0.08322 -2.291038,-0.595312 z m 3.654994,-1.548733 c 0.523842,-0.827352 0.523842,-0.831689 -1.52e-4,-1.719792 -0.444782,-0.753849 -0.67434,-0.890348 -1.49735,-0.890348 -0.832664,0 -1.040984,0.128037 -1.45295,0.893011 -0.448239,0.83233 -0.451866,0.94919 -0.05337,1.719791 0.367284,0.71025 0.572092,0.826781 1.453101,0.826781 0.861244,0 1.109698,-0.132891 1.550723,-0.829443 z m 3.230965,-1.154932 V 82.602476 H 83.94858 c -1.093611,0 -1.190625,-0.0539 -1.190625,-0.661459 v -0.661458 h 3.042709 3.042708 v 0.661458 c 0,0.607562 -0.09701,0.661459 -1.190625,0.661459 h -1.190625 v 3.307291 3.307292 h -0.661458 -0.661459 z m 4.819981,0.33073 c 0.06975,-2.775237 0.110602,-2.976563 0.603978,-2.976563 0.493375,0 0.534226,0.201326 0.603977,2.976563 l 0.07481,2.976562 h -0.678789 -0.67879 z m 4.25937,2.513541 C 94.128105,88.499377 93.59606,87.175845 93.036235,85.812857 92.47641,84.449869 92.018372,83.28901 92.018372,83.23317 c 0,-0.05584 0.287208,-0.101528 0.63824,-0.101528 0.555225,0 0.753105,0.292395 1.521354,2.248003 0.786777,2.00277 1.279989,2.765443 1.279989,1.979293 0,-0.148841 0.373695,-1.160872 0.830435,-2.248958 0.569391,-1.356462 0.97138,-1.978338 1.278818,-1.978338 0.246613,0 0.511546,0.06316 0.588743,0.140357 0.0772,0.0772 -0.395978,1.446415 -1.051496,3.042709 -1.12894,2.74914 -1.232229,2.902351 -1.95665,2.902351 -0.489333,0 -0.824024,-0.166768 -0.929249,-0.463021 z m 4.943566,-2.598089 c 0,-3.023148 0.0074,-3.060062 0.595312,-2.976563 0.571846,0.08122 0.598256,0.201872 0.670126,3.061111 l 0.0748,2.976562 h -0.670125 -0.670123 z m -8.929688,-3.993285 c -0.181901,-0.0734 -0.330729,-0.421187 -0.330729,-0.772862 0,-0.498025 0.140001,-0.63941 0.633151,-0.63941 0.783402,0 1.069191,0.641111 0.527333,1.182969 -0.222492,0.222492 -0.425793,0.395132 -0.451779,0.383643 -0.02599,-0.01149 -0.196075,-0.08094 -0.377976,-0.15434 z m 9.080879,-0.240546 c -0.525503,-0.525502 -0.228939,-1.220407 0.477797,-1.119569 0.67221,0.09591 0.91473,1.129414 0.3187,1.358134 -0.221764,0.0851 -0.580187,-0.02226 -0.796497,-0.238565 z"
         id="path119" />
      <path
         style="fill:#606060;fill-opacity:1;stroke-width:0.264583"
         d="m 106.59805,91.356377 c -0.57411,-0.363521 -0.14509,-1.153935 0.51296,-0.945077 0.64135,0.203556 1.31153,-0.272923 1.31153,-0.932461 0,-0.256948 -0.52497,-1.737516 -1.16661,-3.290152 l -1.16661,-2.822975 0.69472,0.0814 c 0.59901,0.07019 0.80528,0.363746 1.49733,2.131029 0.44145,1.127294 0.86216,2.049577 0.93492,2.049517 0.0728,-6e-5 0.48948,-0.951706 0.92604,-2.114769 0.71412,-1.902509 0.86331,-2.11476 1.48711,-2.115663 l 0.69335,-0.001 -1.56661,3.770312 c -0.86163,2.073672 -1.76195,3.919141 -2.0007,4.101042 -0.50191,0.382406 -1.621,0.428467 -2.15743,0.0888 z M 74.879528,85.314455 c 0.07168,-3.820325 0.08577,-3.904387 0.668531,-3.987152 0.594766,-0.08447 0.595313,-0.08088 0.595313,3.902604 v 3.987152 h -0.668531 -0.668532 z m 2.95954,2.516253 c -0.42331,-0.762493 -0.805436,-1.465151 -0.84917,-1.561462 -0.04373,-0.09631 0.346879,-0.841673 0.868026,-1.656358 l 0.947542,-1.481246 h 1.425438 c 1.538189,0 2.262468,0.180146 2.262468,0.562732 0,0.132844 0.297656,0.713052 0.661458,1.289352 0.363802,0.576299 0.661459,1.167457 0.661459,1.313684 0,0.146226 -0.3674,0.862967 -0.816445,1.592757 L 82.1834,89.217059 h -1.787339 -1.787339 z m 4.103534,-0.758397 c 0.491921,-0.8089 0.491449,-0.835963 -0.03002,-1.719792 -0.45233,-0.766642 -0.674666,-0.89796 -1.520344,-0.89796 -0.849763,0 -1.05754,0.124421 -1.462013,0.875483 -0.441633,0.820061 -0.44384,0.92893 -0.03487,1.719791 0.380229,0.735283 0.572898,0.844309 1.492037,0.844309 0.897054,0 1.130423,-0.123321 1.555213,-0.821831 z m 3.196603,-1.230596 v -3.375344 l -1.190625,0.09469 c -1.130178,0.08989 -1.190625,0.05976 -1.190625,-0.593406 v -0.6881 h 3.042709 3.042708 v 0.661458 c 0,0.607562 -0.09701,0.661459 -1.190625,0.661459 h -1.190625 v 3.307291 3.307292 h -0.661458 -0.661459 z m 4.7625,0.464927 v -2.910416 h 0.661459 0.661458 v 2.910416 2.910417 h -0.661458 -0.661459 z m 3.371109,-0.01501 -1.201331,-2.925429 0.67046,0.08116 c 0.568841,0.06886 0.791554,0.391945 1.469417,2.131678 0.439426,1.127787 0.86991,2.050119 0.95663,2.049627 0.08672,-5.03e-4 0.519049,-0.923227 0.960729,-2.050521 0.651838,-1.663677 0.920414,-2.066466 1.426305,-2.139055 0.508934,-0.07303 0.590394,-2.31e-4 0.444124,0.396875 -0.09852,0.267468 -0.611621,1.587632 -1.140232,2.9337 -0.880525,2.242191 -1.020794,2.447396 -1.672939,2.447396 -0.657366,0 -0.803753,-0.223841 -1.913163,-2.925428 z m 5.889308,0.01501 v -2.910416 h 0.661458 0.66146 v 2.910416 2.910417 h -0.66146 -0.661458 z m 4.074508,2.707928 c -0.60721,-0.405445 -0.89951,-1.408703 -0.89951,-3.087409 0,-1.367776 -0.0844,-1.737185 -0.39687,-1.737185 -0.21828,0 -0.39688,-0.178594 -0.39688,-0.396875 0,-0.218282 0.1786,-0.396875 0.39688,-0.396875 0.28663,0 0.39687,-0.293982 0.39687,-1.058334 0,-0.9525 0.0662,-1.058333 0.66146,-1.058333 0.59531,0 0.66146,0.105833 0.66146,1.058333 0,0.999537 0.0441,1.058334 0.79375,1.058334 0.52917,0 0.79375,0.132291 0.79375,0.396875 0,0.264583 -0.26458,0.396875 -0.79375,0.396875 h -0.79375 v 1.819686 c 0,1.960679 0.29477,2.494593 1.24068,2.247232 0.65384,-0.170984 1.10356,0.388959 0.57915,0.721112 -0.44383,0.281122 -1.84283,0.303925 -2.24324,0.03656 z M 89.949449,81.477997 c 0.05549,-0.390741 0.266389,-0.595313 0.613715,-0.595313 0.347325,0 0.55822,0.204572 0.613714,0.595313 0.06936,0.488336 -0.04093,0.595312 -0.613714,0.595312 -0.572787,0 -0.68307,-0.106976 -0.613715,-0.595312 z m 9.133168,0.240589 c -0.204983,-0.534175 0.211095,-1.032488 0.772668,-0.925378 0.274845,0.05242 0.535295,0.360074 0.582005,0.687491 0.0679,0.476215 -0.0434,0.59261 -0.567,0.59261 -0.358355,0 -0.712806,-0.159625 -0.787673,-0.354723 z"
         id="path117" />
      <path
         style="fill:#494949;fill-opacity:1;stroke-width:0.264583"
         d="m 106.59805,91.356377 c -0.57411,-0.363521 -0.14509,-1.153935 0.51296,-0.945077 0.64135,0.203556 1.31153,-0.272923 1.31153,-0.932461 0,-0.256948 -0.52497,-1.737516 -1.16661,-3.290152 l -1.16661,-2.822975 0.67202,0.0814 c 0.56761,0.06875 0.80026,0.399552 1.49734,2.128984 0.45392,1.12617 0.88485,2.048501 0.95761,2.049626 0.0728,0.0011 0.49367,-0.920287 0.93535,-2.047581 0.63033,-1.608796 0.92909,-2.067811 1.38906,-2.134175 0.3223,-0.0465 0.58601,-0.01001 0.58601,0.08108 0,0.539606 -2.80454,6.984625 -3.25401,7.477944 -0.55406,0.6081 -1.61265,0.772559 -2.27465,0.35338 z M 74.991866,85.314531 c 0.03757,-3.748069 0.06115,-3.90603 0.595312,-3.987228 0.544338,-0.08275 0.556194,4.5e-4 0.556194,3.902604 0,3.958413 -0.0043,3.987153 -0.595313,3.987228 -0.592226,7.5e-5 -0.595109,-0.02016 -0.556193,-3.902604 z m 2.79305,2.42054 -0.863095,-1.502679 0.880469,-1.484229 0.880468,-1.484229 1.659922,-0.04127 1.659921,-0.04127 0.951587,1.487571 0.951588,1.487571 -0.813568,1.464118 -0.813568,1.464118 -1.815315,0.07649 -1.815314,0.07649 z m 4.059509,-0.495272 0.7009,-0.918927 -0.576723,-0.933157 c -0.491941,-0.795977 -0.720744,-0.933156 -1.55643,-0.933156 -0.800805,0 -1.062597,0.140321 -1.433629,0.768427 -0.581967,0.985193 -0.571258,1.234058 0.09326,2.167292 0.789004,1.108054 1.856897,1.050096 2.77262,-0.150479 z m 3.29478,-1.462323 V 82.337892 H 83.94858 c -1.014236,0 -1.190625,-0.0784 -1.190625,-0.529166 0,-0.498491 0.176389,-0.529167 3.042709,-0.529167 2.866319,0 3.042708,0.03068 3.042708,0.529167 0,0.450771 -0.176389,0.529166 -1.190625,0.529166 h -1.190625 v 3.439584 3.439583 h -0.661458 -0.661459 z m 4.7625,0.529166 v -2.910416 h 0.661459 0.661458 v 2.910416 2.910417 h -0.661458 -0.661459 z m 3.484613,0.182376 c -0.60685,-1.500423 -1.103363,-2.818391 -1.103363,-2.928819 0,-0.110427 0.254016,-0.162731 0.56448,-0.11623 0.433014,0.06486 0.750613,0.562111 1.363681,2.135069 0.43956,1.127787 0.881577,2.050521 0.982256,2.050521 0.100679,0 0.542695,-0.922734 0.982255,-2.050521 0.636172,-1.632234 0.921946,-2.068763 1.400924,-2.139949 0.487846,-0.0725 0.567822,0.0026 0.422597,0.396875 -0.09852,0.267467 -0.611621,1.587631 -1.140232,2.933699 -0.876866,2.232872 -1.022824,2.447396 -1.665174,2.447396 -0.645496,0 -0.795841,-0.226924 -1.807424,-2.728041 z m 5.775804,-0.182376 c 0,-2.841821 0.01402,-2.910416 0.595312,-2.910416 0.581286,0 0.595316,0.0686 0.595316,2.910416 0,2.841821 -0.014,2.910417 -0.595316,2.910417 -0.581281,0 -0.595312,-0.0686 -0.595312,-2.910417 z m 3.815278,2.357848 c -0.37023,-0.409101 -0.52578,-1.061714 -0.59909,-2.513542 -0.0665,-1.316269 -0.2055,-1.960972 -0.42288,-1.960972 -0.17813,0 -0.32386,-0.178594 -0.32386,-0.396875 0,-0.218282 0.15875,-0.396875 0.35277,-0.396875 0.23619,0 0.35278,-0.355845 0.35278,-1.076736 0,-0.965276 0.0616,-1.067983 0.59531,-0.992187 0.48498,0.06888 0.59757,0.256182 0.60746,1.010589 0.0111,0.84538 0.086,0.933264 0.85989,1.008951 1.1149,0.109036 1.12589,0.781929 0.0146,0.892515 l -0.83318,0.08291 0.0188,1.823726 c 0.0201,1.949905 0.28149,2.385697 1.28924,2.14954 0.34448,-0.08073 0.62402,0.01367 0.71089,0.240054 0.31885,0.830893 -1.88921,0.939416 -2.62272,0.128903 z M 89.990561,81.65865 c -0.08752,-0.228063 -0.03225,-0.541529 0.122811,-0.696591 0.411547,-0.411547 1.11125,-0.05026 1.11125,0.573779 0,0.65252 -0.992876,0.751329 -1.234061,0.122812 z m 9.216529,-0.159476 c 0.05822,-0.410993 0.263713,-0.61649 0.61649,-0.61649 0.78797,0 0.70924,1.032826 -0.08732,1.145656 -0.512977,0.07266 -0.601827,-0.01619 -0.529167,-0.529166 z"
         id="path115" />
      <path
         style="fill:#333333;fill-opacity:1;stroke-width:0.264583"
         d="m 106.62764,91.374667 c -0.60989,-0.386985 -0.10199,-1.014204 0.72319,-0.893093 0.55931,0.08209 0.8339,-0.02641 1.03962,-0.41081 0.22321,-0.41707 0.0413,-1.115151 -0.90251,-3.463144 -0.65014,-1.617429 -1.18207,-3.009949 -1.18207,-3.094489 0,-0.08454 0.25402,-0.115663 0.56448,-0.06916 0.43302,0.06486 0.75061,0.562111 1.36368,2.135069 0.43956,1.127787 0.8774,2.050521 0.97297,2.050521 0.0956,0 0.5343,-0.922734 0.97495,-2.050521 0.64204,-1.64325 0.92214,-2.068283 1.4102,-2.139949 0.49586,-0.07281 0.5752,9.53e-4 0.42692,0.396875 -1.4054,3.752798 -2.737,6.688122 -3.25131,7.167033 -0.65157,0.606721 -1.52941,0.759175 -2.14012,0.37167 z M 75.085039,85.380601 c 0,-3.66007 0.02433,-3.836459 0.529166,-3.836459 0.504837,0 0.529167,0.176389 0.529167,3.836459 0,3.660069 -0.02433,3.836458 -0.529167,3.836458 -0.504837,0 -0.529166,-0.176389 -0.529166,-3.836458 z m 2.731587,2.315104 -0.83014,-1.521354 0.762314,-1.322917 0.762314,-1.322917 1.755816,-0.132291 c 1.924003,-0.144964 2.041638,-0.06851 3.107973,2.020067 0.409301,0.801674 0.396539,0.879178 -0.381191,2.315104 l -0.804669,1.485662 h -1.771138 -1.771138 z m 4.129246,-0.491366 c 0.551614,-0.934918 0.553231,-0.97135 0.07922,-1.785938 -0.399016,-0.685706 -0.672827,-0.845527 -1.561174,-0.911242 -0.983133,-0.07273 -1.124412,1.72e-4 -1.616412,0.834051 l -0.53912,0.913741 0.646824,0.951887 c 0.527358,0.776078 0.811272,0.951888 1.537193,0.951888 0.74214,0 0.984114,-0.158887 1.453471,-0.954387 z m 3.283849,1.285116 c 0.0036,-0.400182 -0.01534,-1.947995 -0.04202,-3.439583 l -0.0485,-2.71198 H 83.94858 c -1.004517,0 -1.190625,-0.08074 -1.190625,-0.516517 0,-0.439035 0.148837,-0.500857 0.992188,-0.412119 0.545703,0.05742 1.914922,0.111258 3.042708,0.119642 1.639521,0.01219 2.050521,0.09479 2.050521,0.412119 0,0.293982 -0.308681,0.396875 -1.190625,0.396875 h -1.190625 v 3.439584 c 0,3.430284 -0.0017,3.439583 -0.619441,3.439583 -0.500937,0 -0.618202,-0.139197 -0.61296,-0.727604 z m 4.804276,-2.182813 c 0,-2.734027 0.03207,-2.910416 0.529167,-2.910416 0.497095,0 0.529166,0.176389 0.529166,2.910416 0,2.734028 -0.03207,2.910417 -0.529166,2.910417 -0.497096,0 -0.529167,-0.176389 -0.529167,-2.910417 z m 3.493831,0.463021 c -0.528611,-1.346068 -1.037695,-2.655755 -1.131299,-2.910417 -0.126548,-0.344291 -0.03319,-0.46302 0.364067,-0.46302 0.424738,0 0.715286,0.460818 1.41737,2.248002 0.485713,1.236401 0.942645,2.247076 1.015406,2.245944 0.07276,-0.0011 0.499999,-0.982967 0.949417,-2.181856 0.660525,-1.762036 0.932389,-2.196743 1.418535,-2.268208 0.330771,-0.04863 0.558376,0.02311 0.505788,0.159419 -2.063991,5.349718 -2.201998,5.617532 -2.894753,5.617532 -0.616315,0 -0.777795,-0.240315 -1.644531,-2.447396 z m 5.634294,-0.463021 c 0,-2.734027 0.03207,-2.910416 0.529166,-2.910416 0.497092,0 0.529172,0.176389 0.529172,2.910416 0,2.734028 -0.0321,2.910417 -0.529172,2.910417 -0.497096,0 -0.529166,-0.176389 -0.529166,-2.910417 z m 3.849438,2.395596 c -0.35171,-0.38864 -0.52494,-1.098427 -0.61658,-2.526377 -0.0701,-1.092237 -0.23085,-1.985885 -0.35724,-1.985885 -0.12638,0 -0.22978,-0.178594 -0.22978,-0.396875 0,-0.218282 0.11906,-0.396875 0.26458,-0.396875 0.14552,0 0.26458,-0.416719 0.26458,-0.926042 0,-0.739554 0.10319,-0.926042 0.5124,-0.926042 0.38471,0 0.53307,0.214307 0.59532,0.859896 0.0699,0.724446 0.20794,0.880735 0.87666,0.992188 1.14669,0.191115 1.14669,0.79375 0,0.79375 h -0.92604 v 1.604894 c 0,2.123507 0.33022,2.734373 1.36616,2.527185 0.65112,-0.130225 0.77304,-0.07761 0.70101,0.302536 -0.13471,0.710881 -1.82941,0.764567 -2.45107,0.07765 z M 89.998065,81.678204 c -0.09164,-0.238818 -0.03975,-0.561083 0.115307,-0.716145 0.403121,-0.403122 1.166921,-0.03468 1.06162,0.512099 -0.11729,0.60904 -0.965112,0.756028 -1.176927,0.204046 z m 9.260415,0 c -0.09164,-0.238818 -0.03975,-0.561083 0.115308,-0.716145 0.403122,-0.403122 1.166922,-0.03468 1.061622,0.512099 -0.11729,0.60904 -0.965112,0.756028 -1.17693,0.204046 z"
         id="path113" />
    </g>
  </g>
</svg>
