<svg xmlns="http://www.w3.org/2000/svg" width="15mm" height="15mm" viewBox="0 0 15 15"><path d="M5.921 13.204c-1.305-.202-2.681-.83-3.614-1.65-1.369-1.2-1.584-3.718-.518-6.047C4.06.544 9.589.423 12.033 5.284c.796 1.584.98 4.03.391 5.21-.389.78-.234 1.175.773 1.968l.689.544-.953-.014c-.523-.008-1.281-.133-1.684-.278-.618-.224-.881-.21-1.693.093-1.235.46-2.405.588-3.635.397zm3.119-1.656c1.197-.544 1.933-1.406 2.18-2.555.474-2.212-.86-4.713-2.99-5.602-1.046-.438-1.92-.415-2.872.075C2.395 4.99 1.55 9.455 3.929 11.014c1.49.976 3.643 1.2 5.11.534zM6.53 8.76c-.593-.346-.43-.618.371-.618.776 0 .913.167.487.593-.303.303-.377.305-.857.025zM4.293 6.52c.107-.555 1.513-.555 1.62 0 .064.332.011.353-.368.15-.326-.174-.558-.174-.884 0-.38.203-.432.182-.368-.15zm3.597 0c.089-.467 1.116-.645 1.565-.272.48.397.356.638-.198.386-.368-.168-.628-.162-.971.022-.41.22-.46.202-.396-.137z" style="fill:#f60;stroke-width:.211667"/><path d="M23.843 44.803c-4.314-.63-8.216-2.314-10.489-4.526-1.763-1.717-2.768-3.642-3.37-6.457-.306-1.433-.307-4.585 0-6.192 1.16-6.095 4.721-11.264 9.743-14.143 2.07-1.186 3.964-1.733 6.042-1.743 2.673-.014 5.55.948 8.303 2.775 1.6 1.063 4.134 3.605 5.207 5.227 4.023 6.075 4.53 13.507 1.265 18.554-1.708 2.64-5.04 5.035-8.325 5.983-2.403.694-5.767.904-8.376.522zm3.25-11.01c.193-.1.624-.473.958-.83 1.492-1.595 1-2.194-1.804-2.193-2.114 0-2.978.283-2.978.974 0 .437.803 1.141 1.962 1.721 1.114.558 1.341.598 1.863.328zm-9.515-8.495c1.387-.646 1.974-.646 3.353 0 1.219.572 1.489.573 1.544.002.086-.882-.608-1.748-1.677-2.09-.267-.085-.959-.153-1.539-.151-2.042.008-3.17.754-3.17 2.1 0 .764.124.775 1.49.139zm13.605-.002c1.41-.67 2.292-.712 3.73-.179.586.218 1.237.396 1.446.396 1.21 0 .061-1.842-1.523-2.441-1.527-.578-4.055-.105-4.764.892-.276.386-.47 1.288-.348 1.608.112.293.36.246 1.46-.276z" style="fill:#fff;stroke-width:.169594;stroke-miterlimit:7.9" transform="scale(.26458)"/><path d="M24.167 44.86c-2.244-.288-4.86-1.032-6.795-1.931-4.207-1.955-6.432-4.673-7.38-9.019-.309-1.41-.314-4.693-.01-6.282.82-4.289 2.749-8.016 5.695-11.006 2.658-2.697 5.805-4.41 8.874-4.83 2.845-.39 6.36.617 9.51 2.724 1.43.956 3.64 3.06 4.647 4.423 4.522 6.121 5.27 14.052 1.826 19.375-1.703 2.633-5.043 5.031-8.315 5.97-2.268.65-5.617.89-8.052.576zm3.154-11.248c.618-.448 1.31-1.226 1.473-1.656.335-.881-.246-1.123-2.704-1.123-1.643 0-1.911.03-2.308.263-.61.358-.63.698-.075 1.311.488.54 2.338 1.567 2.822 1.567.16 0 .517-.163.792-.362zm-9.738-8.321c1.356-.645 2.031-.641 3.419.018 1.28.608 1.44.58 1.411-.238-.027-.757-.305-1.171-1.078-1.61-.513-.29-.704-.32-2.044-.32-1.324 0-1.542.033-2.1.32-.71.366-1.101.961-1.101 1.676 0 .79.126.803 1.493.154zm13.586.002c1.426-.677 2.243-.714 3.753-.17 1.332.48 1.855.482 1.91.005.077-.656-1.1-1.79-2.194-2.116-1.458-.433-3.537-.066-4.374.771-.62.62-.813 1.986-.281 1.986.1 0 .634-.214 1.186-.476z" style="fill:#fff;stroke-width:.169594;stroke-miterlimit:7.9" transform="scale(.26458)"/></svg>