<?xml version="1.0" encoding="UTF-8" standalone="no"?>
<!-- Created with Inkscape (http://www.inkscape.org/) -->

<svg
   width="15mm"
   height="15mm"
   viewBox="0 0 15 15"
   version="1.1"
   id="svg530"
   inkscape:version="1.1.2 (0a00cf5339, 2022-02-04, custom)"
   sodipodi:docname="drawing.svg"
   xmlns:inkscape="http://www.inkscape.org/namespaces/inkscape"
   xmlns:sodipodi="http://sodipodi.sourceforge.net/DTD/sodipodi-0.dtd"
   xmlns="http://www.w3.org/2000/svg"
   xmlns:svg="http://www.w3.org/2000/svg">
  <sodipodi:namedview
     id="namedview532"
     pagecolor="#ffffff"
     bordercolor="#666666"
     borderopacity="1.0"
     inkscape:pageshadow="2"
     inkscape:pageopacity="0.0"
     inkscape:pagecheckerboard="0"
     inkscape:document-units="mm"
     showgrid="false"
     inkscape:zoom="7.8"
     inkscape:cx="11.730769"
     inkscape:cy="34.871795"
     inkscape:window-width="1683"
     inkscape:window-height="1057"
     inkscape:window-x="37"
     inkscape:window-y="0"
     inkscape:window-maximized="1"
     inkscape:current-layer="layer1" />
  <defs
     id="defs527" />
  <g
     inkscape:label="Layer 1"
     inkscape:groupmode="layer"
     id="layer1">
    <path
       style="fill:#ff6600;stroke-width:0.211667"
       d="m 5.9210881,13.204381 c -1.30496,-0.20205 -2.6813397,-0.83016 -3.6145297,-1.64952 -1.36837004,-1.20144 -1.58398004,-3.7190201 -0.51792,-6.0475802 2.2723897,-4.96355999 7.8002797,-5.08380999 10.2441706,-0.22285 0.79604,1.58333 0.97987,4.0299401 0.39143,5.2095002 -0.38903,0.77982 -0.23379,1.17538 0.77251,1.96846 l 0.68923,0.54318 -0.9525,-0.0138 c -0.52388,-0.008 -1.28185,-0.13271 -1.68439,-0.27811 -0.61828,-0.22332 -0.88113,-0.20879 -1.6933309,0.0936 -1.2349,0.45971 -2.40479,0.58753 -3.63467,0.39711 z m 3.11842,-1.65618 c 1.1973609,-0.54376 1.9336009,-1.40667 2.1798509,-2.5548701 0.47439,-2.2120201 -0.85996,-4.7134601 -2.9886709,-5.60267 -1.04717,-0.43743 -1.92054,-0.41456 -2.87273,0.0752 -2.9627997,1.524 -3.8078097,5.9886701 -1.4285,7.5476601 1.48967,0.97606 3.64218,1.20128 5.11005,0.53466 z M 6.5305591,8.7599809 c -0.593231,-0.34553 -0.429901,-0.61805 0.37042,-0.61805 0.775599,0 0.912649,0.16685 0.486829,0.59267 -0.303289,0.3033 -0.376379,0.30546 -0.857249,0.0254 z M 4.2920581,6.5190808 c 0.10671,-0.55412 1.51279,-0.55412 1.61951,0 0.0641,0.33274 0.0118,0.35428 -0.36752,0.1513 -0.32598,-0.17446 -0.55849,-0.17446 -0.88447,0 -0.37927,0.20298 -0.4316,0.18144 -0.36752,-0.1513 z m 3.59724,0 c 0.0884,-0.46583 1.11555,-0.6441 1.56448,-0.27152 0.4793,0.39778 0.35605,0.63869 -0.19769,0.38639 -0.36817,-0.16775 -0.6277,-0.16184 -0.97141,0.0221 -0.40983,0.21934 -0.45972,0.20206 -0.39538,-0.13697 z"
       id="path153" />
    <path
       style="fill:#ffffff;stroke-width:0.169594;stroke-miterlimit:7.9"
       d="M 23.843281,44.803485 C 19.529381,44.173341 15.626778,42.489053 13.35408,40.276547 11.591098,38.560259 10.586169,36.634906 9.9841177,33.820009 9.6776441,32.387088 9.6771052,29.235178 9.9830591,27.628205 11.143456,21.533409 14.705192,16.363512 19.726515,13.485479 c 2.070432,-1.186694 3.96483,-1.733372 6.042716,-1.743783 2.673263,-0.01339 5.54934,0.948044 8.302418,2.775396 1.60065,1.06243 4.13411,3.605006 5.207759,5.226498 4.023066,6.075886 4.529666,13.507855 1.264791,18.554837 -1.708093,2.640441 -5.039295,5.034397 -8.324843,5.982617 -2.403815,0.693748 -5.767165,0.90353 -8.376075,0.522441 z m 3.250455,-11.010239 c 0.192628,-0.09961 0.623278,-0.473019 0.957,-0.829795 1.492345,-1.595437 0.999564,-2.194838 -1.803331,-2.193505 -2.114834,10e-4 -2.978174,0.283508 -2.978174,0.974522 0,0.436695 0.802672,1.1409 1.961592,1.720958 1.11414,0.557645 1.34121,0.597604 1.862913,0.32782 z m -9.515638,-8.495364 c 1.387013,-0.64624 1.973649,-0.646092 3.353095,8.98e-4 1.218808,0.5716 1.488385,0.571894 1.543908,0.0017 0.08594,-0.882526 -0.608534,-1.748054 -1.677372,-2.090534 -0.266377,-0.08535 -0.958684,-0.153324 -1.538461,-0.151046 -2.042612,0.008 -3.169524,0.754411 -3.169524,2.099372 0,0.764272 0.122924,0.775804 1.488354,0.139618 z m 13.604988,-0.0017 c 1.410663,-0.669685 2.291431,-0.7119 3.729506,-0.178756 0.586541,0.217452 1.23739,0.395367 1.446331,0.395367 1.210546,0 0.06145,-1.842033 -1.5229,-2.44125 -1.527155,-0.577585 -4.054837,-0.104263 -4.764345,0.89215 -0.27527,0.386582 -0.470324,1.288772 -0.347713,1.608292 0.1124,0.292909 0.359558,0.246191 1.459121,-0.275803 z"
       id="path903"
       transform="scale(0.26458333)" />
    <path
       style="fill:#ffffff;stroke-width:0.169594;stroke-miterlimit:7.9"
       d="M 24.166667,44.860306 C 21.922586,44.571681 19.306815,43.828172 17.371817,42.928932 13.164681,40.973773 10.940498,38.255881 9.9913997,33.910256 9.6833062,32.499592 9.6784732,29.216663 9.9821514,27.628205 10.802084,23.339362 12.730699,19.612291 15.67726,16.622342 c 2.658085,-2.697226 5.804513,-4.409898 8.874022,-4.830333 2.844812,-0.389657 6.359808,0.617109 9.509005,2.723574 1.430468,0.956824 3.640146,3.060022 4.647687,4.423723 4.52237,6.121006 5.2698,14.051357 1.826065,19.374827 -1.703417,2.633213 -5.043488,5.030999 -8.314683,5.968985 -2.268346,0.650428 -5.617043,0.890451 -8.052689,0.577188 z m 3.153841,-11.248562 c 0.618039,-0.448216 1.309892,-1.22569 1.473396,-1.65574 0.33507,-0.8813 -0.246317,-1.122671 -2.70416,-1.122671 -1.642926,0 -1.911125,0.03055 -2.307693,0.262903 -0.60982,0.357291 -0.629171,0.697315 -0.07462,1.311137 0.4873,0.539383 2.337768,1.566986 2.821766,1.566986 0.160218,0 0.516308,-0.163177 0.791311,-0.362615 z m -9.737661,-8.320939 c 1.35632,-0.644455 2.031319,-0.640869 3.419173,0.01816 1.28037,0.607993 1.440862,0.580917 1.411339,-0.238098 -0.02727,-0.756562 -0.304982,-1.170936 -1.078562,-1.609333 -0.51284,-0.290632 -0.703335,-0.320512 -2.043347,-0.320512 -1.324837,0 -1.542206,0.03317 -2.100259,0.320512 -0.710028,0.365594 -1.101447,0.960959 -1.101447,1.67535 0,0.790622 0.125799,0.80359 1.493103,0.153917 z m 13.586245,0.0019 c 1.425713,-0.677068 2.242964,-0.713985 3.752894,-0.16953 1.332379,0.480434 1.854644,0.481806 1.9103,0.005 0.07656,-0.655851 -1.100751,-1.791083 -2.194236,-2.115813 -1.457836,-0.432923 -3.536944,-0.06648 -4.374422,0.770997 -0.619,0.618999 -0.812382,1.98585 -0.280959,1.98585 0.100664,0 0.634554,-0.21443 1.186423,-0.476512 z"
       id="path979"
       transform="scale(0.26458333)" />
  </g>
</svg>
