<svg xmlns="http://www.w3.org/2000/svg" width="20mm" height="75.913" style="enable-background:new" viewBox="0 0 20 20.085"><g style="display:inline" transform="translate(-181.157 -221.098)"><g style="display:inline"><path d="M181.157 221.183h20v20h-20z" style="stroke-width:.26458332"/><path d="M181.157 221.183h20v20h-20z" style="fill:#2cd3e3;fill-opacity:1;stroke-width:.26458332;opacity:1"/></g><path d="M191.568 221.432c.445-.55 1.003-1.56 1.427-1.475-1.612 3.29-5.094 5.56-6.777 8.413-1.48 1.023-5.592 4.976-3.508 4.627 2.555-.333 4.27-.185 6.47-.087 2.98.45 2.99.36 1.423-.949-4.084-2.927-7.389-5.964-2.553-2.514 1.196.899 3.59 2.88 4.63 3.962.141.381-1.37-1.03-1.634-1.381 1.008.47 4.42 3.942 5.653 3.452 1.117-.364 1.544-1.489 2.642-.915.74-.53-.812-1.847.109-2.455 1.181-.185-.29-1.518.937-1.872.727-.628-1.094-1.02-1.52-1.453-.897-.454-.356-1.558-.005-1.79.085-1.038 1.783-.865 2.37-1.668.74-.21 1.247-1.13.109-1.055-1.291-.336-2.483.386-3.651.809-.758.436-1.515-.375-.676-.913.086-.88-.493-4.718 2.781-3.063.341.765-1.3.733-1.568 1.45a3.263 3.263 0 0 0-.816 2.154c1.372-.614 1.593-2.399 2.896-3.098.624-.978 1.022.863.097.717-.415.464-1.827 1.328-1.437 1.647 1-.747 2.165-.208 3.174.036 1.133.972-.77 1.661-1.408 2.196-.72.395-1.49.733-1.53 1.61-.814-.323.123 1.141.65 1.275.433.207.91.447.507-.128.302-.536 1.101.28.46-.446.047-1.2 1.968-.764 2.646-1.56 1.004-.72-.085-1.226-.85-1.004-.502.06-1.08-.44-.224-.394.833-.141 2.915.254 1.946 1.413-1.063.52-1.397 1.495-1.688 2.536-.644.89.057 1.66.514 2.213-.075 1.025-.97 1.829-1.6 2.59-.342.342-1.171.993-.403.266.928-1.037 1.171-2.97-.09-3.847-.845-.4-.986.47-.617 1.01-.26.8-.876 1.542-.227 2.355-.137 1.169-1.306.098-1.985.715-.946.268-.57.544-1.543.669 1.686.554 2.107-.093 3.79-.347-.646.756-1.805 1.108-2.812 1.13-2.031-.002-3.81-1.107-5.615-1.892-1.13-.547-4.827-1.32-6.131-1.12-1.74.082-1.837.054-3.444.292-1.265-.004-1.421-.755-.515-2.024 3.58-3.115 6.691-7.032 9.596-10.087zm-1.14 8.464c-6.645 4.789-3.323 2.394 0 0zm-1.203.03c-1.141-.64-.313-2.08.173-2.892.891-1.37 2.87-1.392 4.161-.612 1.55 1.03 2.074 1.034 2.07 1.796-1.437.343-2.552 1.42-3.97 1.802-.798.17-1.643.067-2.435-.094zm3.571-.78c1.354-.05.643-1.88-.277-2.062-2.331-.631-2.85.97-3.34 1.465.045 1.377 2.359 1.397 3.297.776.106-.06-.108.057 0 0zm-3.617-.597c-5.813 5.687-2.906 2.844 0 0zm4.873-8.294c-9.061 11.216-4.53 5.608 0 0z" style="fill:#fff;fill-opacity:1;stroke-width:.21166666" transform="matrix(1.25 0 0 1.25 -44.418 -55.166)"/><ellipse cx="185.16" cy="234.629" rx=".746" ry=".51" style="fill:#fff;fill-opacity:1;stroke-width:.26458332"/></g><g style="display:inline"><path d="M10.668 13.49A3.146 1.91 0 0 1 7.663 15.4a3.146 1.91 0 0 1-3.274-1.738 3.146 1.91 0 0 1 2.713-2.063 3.146 1.91 0 0 1 3.516 1.553" style="opacity:1;vector-effect:none;fill:#2cd3e3;fill-opacity:1;fill-rule:evenodd;stroke-width:.43717846;stroke-linecap:butt;stroke-linejoin:miter;stroke-miterlimit:4;stroke-dasharray:none;stroke-dashoffset:0;stroke-opacity:1" transform="matrix(.93917 -.34346 .51107 .85954 0 0)"/></g><g style="display:inline"><circle cx="13.877" cy="8.976" r="1.5" style="opacity:1;vector-effect:none;fill:#b3ff80;fill-opacity:1;fill-rule:evenodd;stroke-width:.38550848;stroke-linecap:butt;stroke-linejoin:miter;stroke-miterlimit:4;stroke-dasharray:none;stroke-dashoffset:0;stroke-opacity:1"/></g></svg>