<?xml version="1.0" encoding="UTF-8" standalone="no"?>
<svg
   viewBox="0 0 140 140"
   version="1.1"
   id="svg19"
   sodipodi:docname="monocles.svg"
   width="200"
   height="200"
   inkscape:version="1.1.2 (0a00cf5339, 2022-02-04, custom)"
   xmlns:inkscape="http://www.inkscape.org/namespaces/inkscape"
   xmlns:sodipodi="http://sodipodi.sourceforge.net/DTD/sodipodi-0.dtd"
   xmlns="http://www.w3.org/2000/svg"
   xmlns:svg="http://www.w3.org/2000/svg">
  <sodipodi:namedview
     id="namedview21"
     pagecolor="#ffffff"
     bordercolor="#666666"
     borderopacity="1.0"
     inkscape:pageshadow="2"
     inkscape:pageopacity="0.0"
     inkscape:pagecheckerboard="0"
     showgrid="false"
     scale-x="0.7"
     inkscape:zoom="3.14"
     inkscape:cx="72.770701"
     inkscape:cy="97.929936"
     inkscape:window-width="1683"
     inkscape:window-height="1057"
     inkscape:window-x="37"
     inkscape:window-y="0"
     inkscape:window-maximized="1"
     inkscape:current-layer="Ebene_3"
     width="600px"
     height="600px" />
  <defs
     id="defs4">
    <style
       id="style2">.cls-1{fill:#010101;}.cls-2{fill:#7189c5;}.cls-3{fill:#3e5ea2;}</style>
  </defs>
  <g
     id="Ebene_3"
     data-name="Ebene 3"
     transform="translate(-73.485329,106.58001)">
    <path
       class="cls-2"
       d="m 147.98723,-91.379773 a 54.79,54.79 0 0 0 -51.739996,72.81 l -4.999998,10.2699994 -7,14.36 a 2.49,2.49 0 0 0 2.41,3.5900002 l 15.999994,-1.09 13.12,-0.9100002 a 54.78,54.78 0 1 0 32.3,-98.9999994 z m 0,99.3499996 a 44.56,44.56 0 1 1 44.56,-44.5599996 44.61,44.61 0 0 1 -44.56,44.5599996 z"
       id="path14" />
    <path
       class="cls-3"
       d="m 176.58723,-49.699773 a 11.31,11.31 0 1 0 -0.83,6 v 19.21 a 1.63,1.63 0 0 1 -0.85,1.44 14.75,14.75 0 0 1 -7.32,1.94 c -4,-0.09 -7.8,-2.79 -9.26,-3.94 a 17,17 0 0 0 -2.51,-1.66 10.62,10.62 0 0 0 -3.26,-1.22 c -1.41,-0.24 -3,-0.51 -4.61,0.93 -1.62,-1.44 -3.21,-1.17 -4.61,-0.93 a 10.57,10.57 0 0 0 -3.27,1.22 16.22,16.22 0 0 0 -2.51,1.66 c -1.46,1.15 -5.28,3.85 -9.26,3.94 a 14.91,14.91 0 0 1 -7.44,-2 1.43,1.43 0 0 1 -0.73,-1.26 v -19.54 a 11.28,11.28 0 1 0 -0.74,-5.79 1.52,1.52 0 0 0 -1.12,2.42 v 23 a 3.08,3.08 0 0 0 0.44,1.6 c 1.22,2 5.69,8.56 12.35,8.93 0.61,0 1.19,0.06 1.75,0.06 a 20.06,20.06 0 0 0 9.35,-2.28 12.15,12.15 0 0 0 5.79,-5.81 12.08,12.08 0 0 0 5.78,5.81 20.25,20.25 0 0 0 11.11,2.22 c 6.7,-0.37 11.18,-7 12.39,-9 a 2.81,2.81 0 0 0 0.39,-1.44 v -23 a 1.48,1.48 0 0 0 0.39,-1 1.53,1.53 0 0 0 -1.42,-1.51 z m -3.13,1.52 a 8.05,8.05 0 1 1 -8.05,-8 8.07,8.07 0 0 1 8.05,8 z m -42.89,-8 a 8.06,8.06 0 1 1 -8.05,8 8.07,8.07 0 0 1 8.05,-8.05 z"
       id="path16" />
  </g>
</svg>
