<svg xmlns="http://www.w3.org/2000/svg" id="svg19" width="200" height="200" version="1.1" viewBox="0 0 140 140"><defs id="defs4"><style id="style2">.cls-1{fill:#010101}</style></defs><g id="Ebene_3" data-name="Ebene 3" transform="translate(-73.485 106.58)"><path id="path14" d="M147.987-91.38a54.79 54.79 0 0 0-51.74 72.81l-5 10.27-7 14.36a2.49 2.49 0 0 0 2.41 3.59l16-1.09 13.12-.91a54.78 54.78 0 1 0 32.3-99zm0 99.35a44.56 44.56 0 1 1 44.56-44.56 44.61 44.61 0 0 1-44.56 44.56z" style="fill:#7189c5"/><path id="path16" d="M176.587-49.7a11.31 11.31 0 1 0-.83 6v19.21a1.63 1.63 0 0 1-.85 1.44 14.75 14.75 0 0 1-7.32 1.94c-4-.09-7.8-2.79-9.26-3.94a17 17 0 0 0-2.51-1.66 10.62 10.62 0 0 0-3.26-1.22c-1.41-.24-3-.51-4.61.93-1.62-1.44-3.21-1.17-4.61-.93a10.57 10.57 0 0 0-3.27 1.22 16.22 16.22 0 0 0-2.51 1.66c-1.46 1.15-5.28 3.85-9.26 3.94a14.91 14.91 0 0 1-7.44-2 1.43 1.43 0 0 1-.73-1.26v-19.54a11.28 11.28 0 1 0-.74-5.79 1.52 1.52 0 0 0-1.12 2.42v23a3.08 3.08 0 0 0 .44 1.6c1.22 2 5.69 8.56 12.35 8.93.61 0 1.19.06 1.75.06a20.06 20.06 0 0 0 9.35-2.28 12.15 12.15 0 0 0 5.79-5.81 12.08 12.08 0 0 0 5.78 5.81 20.25 20.25 0 0 0 11.11 2.22c6.7-.37 11.18-7 12.39-9a2.81 2.81 0 0 0 .39-1.44v-23a1.48 1.48 0 0 0 .39-1 1.53 1.53 0 0 0-1.42-1.51zm-3.13 1.52a8.05 8.05 0 1 1-8.05-8 8.07 8.07 0 0 1 8.05 8zm-42.89-8a8.06 8.06 0 1 1-8.05 8 8.07 8.07 0 0 1 8.05-8.05z" style="fill:#3e5ea2"/></g></svg>