<svg viewBox="0 0 240 240" xmlns="http://www.w3.org/2000/svg"><defs><linearGradient id="a" x1="40" x2="200" y1="40" y2="200" gradientUnits="userSpaceOnUse"><stop stop-color="#345cca" offset="0" style="stop-color:#5452c9;stop-opacity:1"/><stop stop-color="#5d47c6" offset="1" style="stop-color:#413fb5;stop-opacity:1"/></linearGradient><linearGradient id="b" x1="125" x2="174.95" y1="65" y2="210.1" gradientUnits="userSpaceOnUse"><stop stop-color="#344394" offset="0"/><stop stop-color="#7c45df" offset="1" style="stop-color:#5553be;stop-opacity:1"/></linearGradient><filter id="c" x="-.14247762" y="-.24434544" width="1.2849552" height="1.4886909"><feGaussianBlur stdDeviation="10.686"/></filter></defs><circle cx="120" cy="120" fill="url(#a)" stroke="url(#b)" stroke-width="3" r="110"/><path transform="scale(.91667)" d="M112.916 82.039c-20.51 0-37.137 16.627-37.137 37.137 0 1.594.10688 3.1707.30171 4.7118-.29375-.009-.58624-.0232-.88201-.0232-17.434-.00007-31.567 14.133-31.567 31.567s14.133 31.567 31.567 31.567h122.44c14.357 0 25.996-11.639 25.996-25.996s-11.639-25.996-25.996-25.996c-.0468 0-.093-.00025-.13928 0 .0334-.64832.0696-1.293.0696-1.9497 0-20.51-16.627-37.137-37.137-37.137-5.7242 0-11.15 1.3077-15.992 3.6209-6.5596-10.507-18.221-17.501-31.52-17.501z" fill="#332949" opacity=".45896" filter="url(#c)"/><path d="M101.59 73.35c-18.232 0-33.011 14.78-33.011 33.011 0 1.4169.095 2.8184.26819 4.1883-.26111-.008-.5211-.0206-.78401-.0206-15.497-.00009-28.059 12.562-28.059 28.059 0 15.497 12.563 28.059 28.059 28.059h108.83c12.762 0 23.108-10.346 23.108-23.108s-10.346-23.108-23.108-23.108c-.0416 0-.0827-.00022-.1238 0 .0297-.57629.0619-1.1493.0619-1.7331 0-18.231-14.78-33.011-33.011-33.011-5.0882 0-9.9111 1.1624-14.215 3.2186-5.8308-9.3396-16.197-15.556-28.018-15.556z" fill="#fff"/></svg>
