<svg xmlns="http://www.w3.org/2000/svg" viewBox="0 0 240 240"><defs><linearGradient id="a" x1="40" x2="200" y1="40" y2="200" gradientUnits="userSpaceOnUse"><stop offset="0" stop-color="#345cca" style="stop-color:#5452c9;stop-opacity:1"/><stop offset="1" stop-color="#5d47c6" style="stop-color:#413fb5;stop-opacity:1"/></linearGradient><linearGradient id="b" x1="125" x2="174.95" y1="65" y2="210.1" gradientUnits="userSpaceOnUse"><stop offset="0" stop-color="#344394"/><stop offset="1" stop-color="#7c45df" style="stop-color:#5553be;stop-opacity:1"/></linearGradient><filter id="c" width="1.285" height="1.489" x="-.142" y="-.244"><feGaussianBlur stdDeviation="10.686"/></filter></defs><circle cx="120" cy="120" r="110" fill="url(#a)" stroke="url(#b)" stroke-width="3"/><path fill="#332949" d="M112.916 82.039c-20.51 0-37.137 16.627-37.137 37.137 0 1.594.107 3.17.302 4.712-.294-.01-.587-.023-.882-.023-17.434 0-31.567 14.133-31.567 31.567s14.133 31.567 31.567 31.567h122.44c14.357 0 25.996-11.64 25.996-25.996s-11.64-25.996-25.996-25.996h-.14c.034-.649.07-1.293.07-1.95 0-20.51-16.627-37.137-37.137-37.137a37.016 37.016 0 0 0-15.992 3.62c-6.56-10.506-18.221-17.5-31.52-17.5z" filter="url(#c)" opacity=".459" transform="scale(.91667)"/><path fill="#fff" d="M101.59 73.35c-18.232 0-33.011 14.78-33.011 33.011 0 1.417.095 2.818.268 4.188-.26-.008-.52-.02-.784-.02-15.497 0-28.059 12.562-28.059 28.059 0 15.497 12.563 28.059 28.06 28.059h108.83c12.761 0 23.107-10.346 23.107-23.108s-10.346-23.108-23.108-23.108h-.124c.03-.577.062-1.15.062-1.733 0-18.231-14.78-33.011-33.01-33.011a32.902 32.902 0 0 0-14.216 3.218c-5.83-9.34-16.197-15.556-28.018-15.556z"/></svg>