<?xml version="1.0" encoding="UTF-8" standalone="no"?>
<!-- Created with Inkscape (http://www.inkscape.org/) -->

<svg
   width="105mm"
   height="105mm"
   viewBox="0 0 105 105"
   version="1.1"
   id="svg20948"
   inkscape:version="1.1.2 (0a00cf5339, 2022-02-04, custom)"
   sodipodi:docname="nimbuzz.svg"
   xmlns:inkscape="http://www.inkscape.org/namespaces/inkscape"
   xmlns:sodipodi="http://sodipodi.sourceforge.net/DTD/sodipodi-0.dtd"
   xmlns="http://www.w3.org/2000/svg"
   xmlns:svg="http://www.w3.org/2000/svg">
  <sodipodi:namedview
     id="namedview20950"
     pagecolor="#ffffff"
     bordercolor="#666666"
     borderopacity="1.0"
     inkscape:pageshadow="2"
     inkscape:pageopacity="0.0"
     inkscape:pagecheckerboard="0"
     inkscape:document-units="mm"
     showgrid="false"
     inkscape:zoom="0.81"
     inkscape:cx="411.7284"
     inkscape:cy="237.65432"
     inkscape:window-width="1459"
     inkscape:window-height="867"
     inkscape:window-x="453"
     inkscape:window-y="138"
     inkscape:window-maximized="0"
     inkscape:current-layer="layer1"
     width="105mm" />
  <defs
     id="defs20945" />
  <g
     inkscape:label="Layer 1"
     inkscape:groupmode="layer"
     id="layer1">
    <path
       style="fill:#ff6600;stroke-width:0.352778"
       d="M 24.647437,91.895461 C 18.981294,90.956141 14.215898,86.404321 13.064654,80.831831 12.533279,60.213346 12.767729,46.305418 12.814327,23.681821 l 0.819372,-2.0292 c 1.583159,-3.920758 4.688154,-6.889418 8.652895,-8.272968 1.690053,-0.58977 3.795236,-0.63394 30.215235,-0.63394 26.420002,0 28.525182,0.0442 30.215232,0.63394 5.485507,2.736483 7.483928,5.377965 9.47227,10.302168 l 0.0747,27.69306 c 0.0515,19.09286 -0.0458,28.24084 -0.3132,29.45695 -1.28664,5.85078 -5.87735,10.11793 -11.93233,11.09132 -2.85021,0.45819 -52.590192,0.43332 -55.371065,-0.0277 z m 18.4748,-47.66433 c 2.484634,4.79717 13.272618,24.25807 16.994344,31.30903 l 11.43525,0.1938 c -0.251972,-15.43614 0.414705,-32.33572 0,-46.58414 h -9.87778 c 0.378992,11.68181 0.657296,21.45091 0.96525,31.96061 -5.39361,-11.62215 -12.201008,-23.81138 -16.66393,-31.96038 -4.056944,-8e-5 -8.113889,-1.6e-4 -12.170833,-2.3e-4 v 46.56667 h 9.964501 c -0.218746,-10.10268 -0.471423,-21.26288 -0.646802,-31.48536 z"
       id="path2897"
       sodipodi:nodetypes="ssscssscscscsccccccccccc" />
    <path
       style="fill:#ffffff;stroke-width:0.247487;stroke-miterlimit:7.9"
       d="m 65.38728,75.580789 -5.363773,-0.0526 -1.067652,-2.00836 C 58.072937,71.858964 45.762997,49.226117 43.592099,45.272284 c -0.353111,-0.643117 -0.682131,-1.169305 -0.731155,-1.169305 -0.04903,0 -0.04447,1.115518 0.01013,2.478926 0.0546,1.363409 0.182962,7.446129 0.28525,13.517155 0.102288,6.071029 0.235519,12.027464 0.296069,13.236525 l 0.110088,2.19829 H 38.588219 33.613958 V 52.428424 29.322976 h 6.067705 6.067708 l 1.691619,3.065317 c 4.314904,7.818874 7.81473,14.444525 11.132081,21.07456 1.983695,3.964596 3.650499,7.332191 3.704014,7.483546 0.05351,0.151355 0.136903,0.233098 0.185308,0.18165 0.0484,-0.05145 -0.02601,-3.839996 -0.165356,-8.418992 C 62.157686,48.130062 61.94018,40.994924 61.813693,36.853195 l -0.229981,-7.53042 4.795184,10e-5 4.795187,1.01e-4 0.13712,2.011201 c 0.223628,3.280016 -0.101579,44.395098 -0.350737,44.342999 -0.115176,-0.02408 -2.623111,-0.06746 -5.573188,-0.09639 z"
       id="path57086" />
  </g>
</svg>
