<svg xmlns="http://www.w3.org/2000/svg" width="105mm" height="105mm" viewBox="0 0 105 105"><path d="M24.647 91.895c-5.666-.939-10.431-5.49-11.582-11.063-.532-20.619-.297-34.527-.25-57.15l.819-2.03c1.583-3.92 4.688-6.889 8.653-8.272 1.69-.59 3.795-.634 30.215-.634s28.525.044 30.215.634c5.486 2.736 7.484 5.378 9.472 10.302l.075 27.693c.052 19.093-.046 28.24-.313 29.457-1.287 5.85-5.878 10.118-11.932 11.091-2.85.458-52.59.433-55.372-.028zm18.475-47.664c2.485 4.797 13.273 24.258 16.995 31.31l11.435.193c-.252-15.436.415-32.336 0-46.584h-9.878c.379 11.682.657 21.45.965 31.96-5.393-11.622-12.2-23.81-16.664-31.96h-12.17v46.566h9.964c-.219-10.102-.471-21.262-.647-31.485z" style="fill:#f60;stroke-width:.352778"/><path d="m65.387 75.58-5.363-.052-1.068-2.008c-.883-1.661-13.193-24.294-15.364-28.248-.353-.643-.682-1.169-.731-1.169-.05 0-.045 1.115.01 2.479.055 1.363.183 7.446.285 13.517.103 6.071.236 12.028.296 13.237l.11 2.198h-9.948V29.323h12.135l1.692 3.065c4.315 7.82 7.815 14.445 11.132 21.075 1.984 3.964 3.65 7.332 3.704 7.483.054.152.137.233.185.182.049-.051-.026-3.84-.165-8.419l-.483-15.856-.23-7.53h9.59l.137 2.011c.224 3.28-.101 44.395-.35 44.343-.116-.024-2.624-.067-5.574-.096z" style="fill:#fff;stroke-width:.247487;stroke-miterlimit:7.9"/></svg>