<svg xmlns="http://www.w3.org/2000/svg" xmlns:xlink="http://www.w3.org/1999/xlink" viewBox="0 0 440 510"><defs><linearGradient id="a"><stop offset="0" stop-color="#e8e8ff"/><stop offset="1" stop-color="#5b8de8"/></linearGradient><linearGradient xlink:href="#a" id="g" x1="17.483" x2="12.133" y1="736.34" y2="331.86" gradientTransform="matrix(1.3872 0 -.28953 1 175.51 260.39)" gradientUnits="userSpaceOnUse"/><linearGradient xlink:href="#a" id="b" x1="95.828" x2="121.28" y1="223.68" y2="275.1" gradientUnits="userSpaceOnUse"/><linearGradient id="c" x1="161.91" x2="54.149" y1="226.65" y2="136.93" gradientUnits="userSpaceOnUse"><stop offset="0" stop-color="#7979ff"/><stop offset="1" stop-color="#00f"/></linearGradient><linearGradient id="e" x1="11.28" x2="6.909" y1="124.5" y2="630.62" gradientUnits="userSpaceOnUse"><stop offset="0" stop-color="#f0f0ff"/><stop offset=".573" stop-color="#92b8f2"/><stop offset="1" stop-color="#ededfd"/></linearGradient><linearGradient id="f" x1="-170.29" x2="-170.32" y1="630.62" y2="263.08" gradientUnits="userSpaceOnUse"><stop offset="0" stop-color="#7979ff"/><stop offset="1" stop-color="#00f"/></linearGradient><filter id="d" width="1.5" height="1.5" x="-.25" y="-.25" color-interpolation-filters="sRGB"><feGaussianBlur in="SourceAlpha" result="blur" stdDeviation="5.4"/><feColorMatrix result="bluralpha" values="1 0 0 0 0 0 1 0 0 0 0 0 1 0 0 0 0 0 0.5 0"/><feOffset dx="8" dy="16.4" in="bluralpha" result="offsetBlur"/><feMerge><feMergeNode in="offsetBlur"/><feMergeNode in="SourceGraphic"/></feMerge></filter></defs><path fill="url(#b)" stroke="url(#c)" stroke-width="4" d="M60.018 263.08h19.643c-3.643-13.569-11.706-25.938-19.643-26.786zm32.857 0c-3.346-15.72-13.9-40.041-32.857-45.357v-21.429c28.032 4.483 46.78 45.004 50 66.786zm-32.857-86.429v-22.857c41.543 6.63 77.702 66.607 82.5 109.29h-17.413c-3.725-32.893-33.393-81.82-65.087-86.429z" filter="url(#d)" transform="matrix(1.3872 0 -.28953 1 292.35 -145.75)"/><path fill="url(#e)" stroke="url(#f)" stroke-linecap="square" stroke-width="6" d="M-92.026 364.95c1.515-27.779-14.296-12.709-26.923-4.122l-21.911-50.523c17.295-14.708 91.77-49.395 94.801 45.055.459 69.359-17.92 146.22 33.706 163.64V218.48l-3.778-30.81h51.926l-2.072 30.808.459 300.46c73.376-34.522 40.23-166.76 31.282-223.47h48.805c35.209 159.92 19.099 255.65-80.592 286.04l6.566 49.116h-55.866l3.522-49.245c-86.72-25.853-87.885-139.6-79.924-216.43z" filter="url(#d)" transform="matrix(1.3872 0 -.28953 1 292.35 -145.75)"/><path fill="url(#g)" d="M238.61 632.92s-2.507 170.62-190.98 200.52l-8.365 49.602-55.358.357L1.469 833.44c-133.39-12.374-63.237-186.4-63.237-186.4l51.152 6.417c-10.102 30.81-58.037 119.37 24.23 137.05l34.46-133.11c31.917.802 29.377.893 55.522-2.142L60.06 790.505s102.06-11.112 118.78-143.47c29.19-5 59.778-14.118 59.778-14.118z" transform="translate(116.84 -406.14)"/></svg>