<svg xmlns="http://www.w3.org/2000/svg" xmlns:xlink="http://www.w3.org/1999/xlink" width="48" height="48"><defs><radialGradient r="117.14286" fy="486.64789" fx="605.71429" cy="486.64789" cx="605.71429" gradientTransform="matrix(2.77439 0 0 1.9697 -1891.633 -872.8854)" gradientUnits="userSpaceOnUse" id="ax" xlink:href="#a"/><radialGradient r="117.14286" fy="486.64789" fx="605.71429" cy="486.64789" cx="605.71429" gradientTransform="matrix(2.77439 0 0 1.9697 -1891.633 -872.8854)" gradientUnits="userSpaceOnUse" id="aC" xlink:href="#a"/><radialGradient r="117.14286" fy="486.64789" fx="605.71429" cy="486.64789" cx="605.71429" gradientTransform="matrix(-2.77439 0 0 1.9697 112.7623 -872.8854)" gradientUnits="userSpaceOnUse" id="aD" xlink:href="#a"/><radialGradient r="17.986025" fy="26.814409" fx="24.753788" cy="26.814409" cx="24.753788" gradientTransform="matrix(1.04618 0 0 1.01781 -9.084376 -6.268494)" gradientUnits="userSpaceOnUse" id="aE" xlink:href="#b"/><radialGradient r="8.6620579" fy="19.008621" fx="31.112698" cy="19.008621" cx="31.112698" gradientUnits="userSpaceOnUse" id="aH" xlink:href="#c"/><radialGradient r="17.986025" fy="17.727694" fx="29.922075" cy="17.727694" cx="29.922075" gradientTransform="matrix(.55849 0 0 .56339 14.87134 4.364123)" gradientUnits="userSpaceOnUse" id="aI" xlink:href="#b"/><radialGradient xlink:href="#d" id="u" gradientUnits="userSpaceOnUse" gradientTransform="matrix(1 0 0 .34118 0 3.047059)" cx="62.625" cy="4.625" fx="62.625" fy="4.625" r="10.625"/><radialGradient xlink:href="#e" id="v" gradientUnits="userSpaceOnUse" gradientTransform="matrix(1.12235 0 0 1.12238 -7.610472 1.067717)" cx="62.200352" cy="-8.7256308" fx="62.200352" fy="-8.7256308" r="9.7552834"/><radialGradient xlink:href="#f" id="x" gradientUnits="userSpaceOnUse" gradientTransform="matrix(1 0 0 .93023 0 -.240141)" cx="62.225391" cy="-3.4420195" fx="62.225391" fy="-3.4420195" r="10.081216"/><radialGradient xlink:href="#f" id="y" gradientUnits="userSpaceOnUse" gradientTransform="matrix(1 0 0 .93023 0 -.240141)" cx="62.225391" cy="-3.4420195" fx="62.225391" fy="-3.4420195" r="10.081216"/><radialGradient xlink:href="#f" id="z" gradientUnits="userSpaceOnUse" gradientTransform="matrix(1 0 0 .93023 0 -.240141)" cx="62.225391" cy="-3.4420195" fx="62.225391" fy="-3.4420195" r="10.081216"/><radialGradient xlink:href="#f" id="A" gradientUnits="userSpaceOnUse" gradientTransform="matrix(1 0 0 .93023 0 -.240141)" cx="62.225391" cy="-3.4420195" fx="62.225391" fy="-3.4420195" r="10.081216"/><radialGradient xlink:href="#f" id="B" gradientUnits="userSpaceOnUse" gradientTransform="matrix(1 0 0 .93023 0 -.240141)" cx="62.225391" cy="-3.4420195" fx="62.225391" fy="-3.4420195" r="10.081216"/><radialGradient xlink:href="#f" id="C" gradientUnits="userSpaceOnUse" gradientTransform="matrix(1 0 0 .93023 0 -.240141)" cx="62.225391" cy="-3.4420195" fx="62.225391" fy="-3.4420195" r="10.081216"/><radialGradient xlink:href="#f" id="D" gradientUnits="userSpaceOnUse" gradientTransform="matrix(1 0 0 .93023 0 -.240141)" cx="62.225391" cy="-3.4420195" fx="62.225391" fy="-3.4420195" r="10.081216"/><radialGradient xlink:href="#f" id="E" gradientUnits="userSpaceOnUse" gradientTransform="matrix(1 0 0 .93023 0 -.240141)" cx="62.225391" cy="-3.4420195" fx="62.225391" fy="-3.4420195" r="10.081216"/><radialGradient xlink:href="#f" id="F" gradientUnits="userSpaceOnUse" gradientTransform="matrix(1 0 0 .93023 0 -.240141)" cx="62.225391" cy="-3.4420195" fx="62.225391" fy="-3.4420195" r="10.081216"/><radialGradient xlink:href="#f" id="G" gradientUnits="userSpaceOnUse" gradientTransform="matrix(1 0 0 .93023 0 -.240141)" cx="62.225391" cy="-3.4420195" fx="62.225391" fy="-3.4420195" r="10.081216"/><radialGradient xlink:href="#f" id="H" gradientUnits="userSpaceOnUse" gradientTransform="matrix(1 0 0 .93023 0 -.240141)" cx="62.225391" cy="-3.4420195" fx="62.225391" fy="-3.4420195" r="10.081216"/><radialGradient xlink:href="#f" id="I" gradientUnits="userSpaceOnUse" gradientTransform="matrix(1 0 0 .93023 0 -.240141)" cx="62.225391" cy="-3.4420195" fx="62.225391" fy="-3.4420195" r="10.081216"/><radialGradient xlink:href="#f" id="J" gradientUnits="userSpaceOnUse" gradientTransform="matrix(1 0 0 .93023 0 -.240141)" cx="62.225391" cy="-3.4420195" fx="62.225391" fy="-3.4420195" r="10.081216"/><radialGradient xlink:href="#f" id="K" gradientUnits="userSpaceOnUse" gradientTransform="matrix(1 0 0 .93023 0 -.240141)" cx="62.225391" cy="-3.4420195" fx="62.225391" fy="-3.4420195" r="10.081216"/><radialGradient xlink:href="#f" id="L" gradientUnits="userSpaceOnUse" gradientTransform="matrix(1 0 0 .93023 0 -.240141)" cx="62.225391" cy="-3.4420195" fx="62.225391" fy="-3.4420195" r="10.081216"/><radialGradient xlink:href="#f" id="M" gradientUnits="userSpaceOnUse" gradientTransform="matrix(1 0 0 .93023 0 -.240141)" cx="62.225391" cy="-3.4420195" fx="62.225391" fy="-3.4420195" r="10.081216"/><radialGradient xlink:href="#f" id="N" gradientUnits="userSpaceOnUse" gradientTransform="matrix(1 0 0 .93023 0 -.240141)" cx="62.225391" cy="-3.4420195" fx="62.225391" fy="-3.4420195" r="10.081216"/><radialGradient xlink:href="#f" id="O" gradientUnits="userSpaceOnUse" gradientTransform="matrix(1 0 0 .93023 0 -.240141)" cx="62.225391" cy="-3.4420195" fx="62.225391" fy="-3.4420195" r="10.081216"/><radialGradient xlink:href="#f" id="P" gradientUnits="userSpaceOnUse" gradientTransform="matrix(1 0 0 .93023 0 .79739)" cx="62.225391" cy="-3.4420195" fx="62.225391" fy="-3.4420195" r="10.081216"/><radialGradient xlink:href="#f" id="Q" gradientUnits="userSpaceOnUse" gradientTransform="matrix(1 0 0 .93023 0 -.240141)" cx="62.225391" cy="-3.4420195" fx="62.225391" fy="-3.4420195" r="10.081216"/><radialGradient xlink:href="#f" id="R" gradientUnits="userSpaceOnUse" gradientTransform="matrix(1 0 0 .93023 0 -.240141)" cx="62.225391" cy="-3.4420195" fx="62.225391" fy="-3.4420195" r="10.081216"/><radialGradient xlink:href="#f" id="S" gradientUnits="userSpaceOnUse" gradientTransform="matrix(1 0 0 .93023 0 -.240141)" cx="62.225391" cy="-3.4420195" fx="62.225391" fy="-3.4420195" r="10.081216"/><radialGradient xlink:href="#f" id="T" gradientUnits="userSpaceOnUse" gradientTransform="matrix(1 0 0 .93023 0 -.240141)" cx="62.225391" cy="-3.4420195" fx="62.225391" fy="-3.4420195" r="10.081216"/><radialGradient xlink:href="#f" id="U" gradientUnits="userSpaceOnUse" gradientTransform="matrix(1 0 0 .93023 0 -.240141)" cx="62.225391" cy="-3.4420195" fx="62.225391" fy="-3.4420195" r="10.081216"/><radialGradient xlink:href="#f" id="V" gradientUnits="userSpaceOnUse" gradientTransform="matrix(1 0 0 .93023 0 -.240141)" cx="62.225391" cy="-3.4420195" fx="62.225391" fy="-3.4420195" r="10.081216"/><radialGradient xlink:href="#f" id="W" gradientUnits="userSpaceOnUse" gradientTransform="matrix(1 0 0 .93023 0 -.240141)" cx="62.225391" cy="-3.4420195" fx="62.225391" fy="-3.4420195" r="10.081216"/><radialGradient xlink:href="#f" id="X" gradientUnits="userSpaceOnUse" gradientTransform="matrix(1 0 0 .93023 0 -.240141)" cx="62.225391" cy="-3.4420195" fx="62.225391" fy="-3.4420195" r="10.081216"/><radialGradient xlink:href="#f" id="Y" gradientUnits="userSpaceOnUse" gradientTransform="matrix(1 0 0 .93023 0 -.240141)" cx="62.225391" cy="-3.4420195" fx="62.225391" fy="-3.4420195" r="10.081216"/><radialGradient xlink:href="#f" id="Z" gradientUnits="userSpaceOnUse" gradientTransform="matrix(1 0 0 .93023 0 -.240141)" cx="62.225391" cy="-3.4420195" fx="62.225391" fy="-3.4420195" r="10.081216"/><radialGradient xlink:href="#f" id="aa" gradientUnits="userSpaceOnUse" gradientTransform="matrix(1 0 0 .93023 0 -.240141)" cx="62.225391" cy="-3.4420195" fx="62.225391" fy="-3.4420195" r="10.081216"/><radialGradient xlink:href="#f" id="ab" gradientUnits="userSpaceOnUse" gradientTransform="matrix(1 0 0 .93023 0 -.240141)" cx="62.225391" cy="-3.4420195" fx="62.225391" fy="-3.4420195" r="10.081216"/><radialGradient xlink:href="#f" id="ac" gradientUnits="userSpaceOnUse" gradientTransform="matrix(1 0 0 .93023 0 -.240141)" cx="62.225391" cy="-3.4420195" fx="62.225391" fy="-3.4420195" r="10.081216"/><radialGradient xlink:href="#g" id="ad" gradientUnits="userSpaceOnUse" gradientTransform="matrix(.07657 2.76052 -1.96955 .05464 60.09901 -55.47179)" cx="24.652573" cy="18.94449" fx="24.652485" fy="18.944481" r="8.6174498"/><radialGradient xlink:href="#g" id="ae" gradientUnits="userSpaceOnUse" gradientTransform="matrix(.06823 2.45967 -1.7549 .04868 55.12882 -46.82188)" cx="24.652573" cy="18.94449" fx="24.652485" fy="18.944481" r="8.6174498"/><radialGradient xlink:href="#h" id="af" gradientUnits="userSpaceOnUse" gradientTransform="matrix(.1596 5.75333 -.8072 .02237 32.87305 -131.6974)" cx="25.135374" cy="14.542349" fx="25.135332" fy="14.542329" r="4.1347499"/><radialGradient xlink:href="#h" id="ag" gradientUnits="userSpaceOnUse" gradientTransform="matrix(.1596 5.75333 -.8072 .02237 32.87305 -130.867)" cx="25.135374" cy="14.542349" fx="25.135332" fy="14.542329" r="4.1347499"/><radialGradient xlink:href="#i" id="ah" gradientUnits="userSpaceOnUse" gradientTransform="matrix(.22203 8.00438 -.59716 .01656 29.5454 -182.3268)" cx="24.478569" cy="17.573915" fx="24.478539" fy="17.573889" r="2.9719501"/><radialGradient xlink:href="#i" id="ai" gradientUnits="userSpaceOnUse" gradientTransform="matrix(.22203 8.00438 -.59716 .01656 29.85665 -181.6002)" cx="24.478569" cy="17.573915" fx="24.478539" fy="17.573889" r="2.9719501"/><radialGradient xlink:href="#j" id="aj" gradientUnits="userSpaceOnUse" gradientTransform="matrix(.06718 2.42191 -1.62936 .04518 52.36869 -50.34012)" cx="25.969097" cy="17.257854" fx="25.968998" fy="17.257843" r="9.8222504"/><radialGradient xlink:href="#j" id="ak" gradientUnits="userSpaceOnUse" gradientTransform="matrix(.06168 2.22364 -1.49597 .04148 50.51125 -44.50839)" cx="25.969097" cy="17.257854" fx="25.968998" fy="17.257843" r="9.8222504"/><radialGradient r="117.14286" fy="486.64789" fx="605.71429" cy="486.64789" cx="605.71429" gradientTransform="matrix(2.77439 0 0 1.9697 -1891.633 -872.8854)" gradientUnits="userSpaceOnUse" id="al" xlink:href="#k"/><radialGradient r="117.14286" fy="486.64789" fx="605.71429" cy="486.64789" cx="605.71429" gradientTransform="matrix(2.77439 0 0 1.9697 -1891.633 -872.8854)" gradientUnits="userSpaceOnUse" id="aq" xlink:href="#k"/><radialGradient r="117.14286" fy="486.64789" fx="605.71429" cy="486.64789" cx="605.71429" gradientTransform="matrix(-2.77439 0 0 1.9697 112.7623 -872.8854)" gradientUnits="userSpaceOnUse" id="ar" xlink:href="#k"/><radialGradient r="17.986025" fy="26.814409" fx="24.753788" cy="26.814409" cx="24.753788" gradientTransform="matrix(1.04618 0 0 1.01781 -9.084376 -6.268494)" gradientUnits="userSpaceOnUse" id="as" xlink:href="#l"/><radialGradient r="8.6620579" fy="19.008621" fx="31.112698" cy="19.008621" cx="31.112698" gradientUnits="userSpaceOnUse" id="av" xlink:href="#m"/><radialGradient r="17.986025" fy="17.727694" fx="29.922075" cy="17.727694" cx="29.922075" gradientTransform="matrix(.55849 0 0 .56339 14.87134 4.364123)" gradientUnits="userSpaceOnUse" id="aw" xlink:href="#l"/><linearGradient id="a"><stop offset="0" style="stop-color:black;stop-opacity:1"/><stop offset="1" style="stop-color:black;stop-opacity:0"/></linearGradient><linearGradient y2="35.739632" x2="21.408455" y1="36.3904" x1="22.686766" gradientTransform="matrix(-.999 .21486 .21466 .99997 41.63405 -13.05229)" gradientUnits="userSpaceOnUse" id="ay" xlink:href="#n"/><linearGradient id="n"><stop offset="0" style="stop-color:#000;stop-opacity:1"/><stop offset="1" style="stop-color:#000;stop-opacity:0"/></linearGradient><linearGradient y2="35.803486" x2="30.935921" y1="29.553486" x1="30.935921" gradientTransform="translate(-36.66116 -20.70004) scale(1.33835)" gradientUnits="userSpaceOnUse" id="az" xlink:href="#o"/><linearGradient id="o"><stop offset="0" style="stop-color:#fff;stop-opacity:1"/><stop offset="1" style="stop-color:#c9c9c9;stop-opacity:1"/></linearGradient><linearGradient y2="35.739632" x2="21.408455" y1="36.3904" x1="22.686766" gradientTransform="matrix(-1.30848 .28115 .28115 1.30848 35.90908 -26.21225)" gradientUnits="userSpaceOnUse" id="aA" xlink:href="#n"/><linearGradient y2="609.50507" x2="302.85715" y1="366.64789" x1="302.85715" gradientTransform="matrix(2.77439 0 0 1.9697 -1892.179 -872.8854)" gradientUnits="userSpaceOnUse" id="aB" xlink:href="#p"/><linearGradient id="p"><stop offset="0" style="stop-color:black;stop-opacity:0"/><stop style="stop-color:black;stop-opacity:1" offset=".5"/><stop offset="1" style="stop-color:black;stop-opacity:0"/></linearGradient><linearGradient id="b"><stop offset="0" style="stop-color:#fff;stop-opacity:1"/><stop offset="1" style="stop-color:#d6d6d2;stop-opacity:1"/></linearGradient><linearGradient y2="35.739632" x2="21.408455" y1="36.3904" x1="22.686766" gradientTransform="matrix(-.999 .21486 .21466 .99997 40.235044 -14.816254)" gradientUnits="userSpaceOnUse" id="aF" xlink:href="#n"/><linearGradient y2="36.217758" x2="22.626925" y1="35.817974" x1="20.661695" gradientTransform="matrix(1.00482 .18573 -.18555 1.00579 -7.6615333 -14.512693)" gradientUnits="userSpaceOnUse" id="aG" xlink:href="#n"/><linearGradient id="c"><stop offset="0" style="stop-color:#000;stop-opacity:1"/><stop offset="1" style="stop-color:#000;stop-opacity:0"/></linearGradient><linearGradient id="d"><stop style="stop-color:#000;stop-opacity:1" offset="0"/><stop style="stop-color:#000;stop-opacity:0" offset="1"/></linearGradient><linearGradient id="e"><stop style="stop-color:#8fb1dc;stop-opacity:1" offset="0"/><stop style="stop-color:#3465a4;stop-opacity:1" offset="1"/></linearGradient><linearGradient gradientUnits="userSpaceOnUse" y2="16.839214" x2="68.910904" y1="-9.3832779" x1="63.397362" id="w" xlink:href="#q" gradientTransform="matrix(1.0074 0 0 1.00588 -.4769352 .04164587)"/><linearGradient id="q"><stop offset="0" style="stop-color:#fff;stop-opacity:1"/><stop offset="1" style="stop-color:#fff;stop-opacity:0"/></linearGradient><linearGradient id="f"><stop style="stop-color:#fff;stop-opacity:1" offset="0"/><stop style="stop-color:#fff;stop-opacity:0" offset="1"/></linearGradient><linearGradient id="g"><stop offset="0" style="stop-color:#cee14b"/><stop offset="1" style="stop-color:#9db029"/></linearGradient><linearGradient id="h"><stop offset="0" style="stop-color:#cee14b"/><stop offset="1" style="stop-color:#9db029"/></linearGradient><linearGradient id="i"><stop style="stop-color:#cee14b" offset="0"/><stop style="stop-color:#9db029" offset="1"/></linearGradient><linearGradient id="j"><stop offset="0" style="stop-color:#cee14b"/><stop offset="1" style="stop-color:#9db029"/></linearGradient><linearGradient id="k"><stop offset="0" style="stop-color:black;stop-opacity:1"/><stop offset="1" style="stop-color:black;stop-opacity:0"/></linearGradient><linearGradient y2="35.739632" x2="21.408455" y1="36.3904" x1="22.686766" gradientTransform="matrix(-.999 .21486 .21466 .99997 41.63405 -13.05229)" gradientUnits="userSpaceOnUse" id="am" xlink:href="#r"/><linearGradient id="r"><stop offset="0" style="stop-color:#000;stop-opacity:1"/><stop offset="1" style="stop-color:#000;stop-opacity:0"/></linearGradient><linearGradient y2="35.803486" x2="30.935921" y1="29.553486" x1="30.935921" gradientTransform="translate(-36.66116 -20.70004) scale(1.33835)" gradientUnits="userSpaceOnUse" id="an" xlink:href="#s"/><linearGradient id="s"><stop offset="0" style="stop-color:#fff;stop-opacity:1"/><stop offset="1" style="stop-color:#c9c9c9;stop-opacity:1"/></linearGradient><linearGradient y2="35.739632" x2="21.408455" y1="36.3904" x1="22.686766" gradientTransform="matrix(-1.30848 .28115 .28115 1.30848 35.90908 -26.21225)" gradientUnits="userSpaceOnUse" id="ao" xlink:href="#r"/><linearGradient y2="609.50507" x2="302.85715" y1="366.64789" x1="302.85715" gradientTransform="matrix(2.77439 0 0 1.9697 -1892.179 -872.8854)" gradientUnits="userSpaceOnUse" id="ap" xlink:href="#t"/><linearGradient id="t"><stop offset="0" style="stop-color:black;stop-opacity:0"/><stop style="stop-color:black;stop-opacity:1" offset=".5"/><stop offset="1" style="stop-color:black;stop-opacity:0"/></linearGradient><linearGradient id="l"><stop offset="0" style="stop-color:#fff;stop-opacity:1"/><stop offset="1" style="stop-color:#d6d6d2;stop-opacity:1"/></linearGradient><linearGradient y2="35.739632" x2="21.408455" y1="36.3904" x1="22.686766" gradientTransform="matrix(-.999 .21486 .21466 .99997 40.235044 -14.816254)" gradientUnits="userSpaceOnUse" id="at" xlink:href="#r"/><linearGradient y2="36.217758" x2="22.626925" y1="35.817974" x1="20.661695" gradientTransform="matrix(1.00482 .18573 -.18555 1.00579 -7.6615333 -14.512693)" gradientUnits="userSpaceOnUse" id="au" xlink:href="#r"/><linearGradient id="m"><stop offset="0" style="stop-color:#000;stop-opacity:1"/><stop offset="1" style="stop-color:#000;stop-opacity:0"/></linearGradient></defs><g style="display:inline" transform="matrix(2.23405 0 0 2.18246 -114.536535267 30.439972278)"><path transform="matrix(1 0 0 1.19247 -.590821 -2.378705)" d="M73.25 4.625c0 2.0020322-4.756975 3.625-10.625 3.625S52 6.6270322 52 4.625 56.756975 1 62.625 1 73.25 2.6229678 73.25 4.625z" style="opacity:.56043958;color:#000;fill:url(#u);fill-opacity:1;fill-rule:evenodd;stroke:none;stroke-width:.99999988;marker:none;visibility:visible;display:inline;overflow:visible"/><path d="M71.455637-3.5111605c0 5.1118327-4.144037 9.255822-9.255167 9.255822-5.111598 0-9.2554-4.1440362-9.2554-9.255822 0-5.1115983 4.143802-9.2551665 9.2554-9.2551665 5.11113 0 9.255167 4.1435682 9.255167 9.2551665z" style="fill:url(#v);fill-opacity:1;fill-rule:nonzero;stroke:#204a87;stroke-width:.45287717;stroke-miterlimit:4;stroke-dasharray:none"/><path style="opacity:.52747257999999997;fill:none;stroke:url(#w);stroke-width:.45287717;stroke-miterlimit:4;stroke-opacity:1;stroke-dasharray:none" d="M70.993882-3.4901469c0 4.8586766-3.944754 8.7974405-8.810096 8.7974405-4.865784 0-8.810317-3.9388087-8.810317-8.7974405 0-4.8584535 3.944533-8.7968201 8.810317-8.7968201 4.865342 0 8.810096 3.9383666 8.810096 8.7968201z"/><image y="-11.413214" x="61.522053" href="62169F0D.png" height="16.411282" width="10.784556" style="opacity:.75;fill:#fff;fill-rule:nonzero;stroke:url(#x);stroke-miterlimit:4"/><image y="-10.94432" x="61.990948" href="62169F0E.png" height="2.3444688" width="2.3444688" style="opacity:.75;fill:#fff;fill-rule:nonzero;stroke:url(#y);stroke-miterlimit:4"/><g style="fill:#9db029;fill-rule:nonzero;stroke:url(#z);stroke-miterlimit:4" transform="translate(50.39042 -14.57365) scale(.4689)"><path style="fill:#9db029;stroke:url(#A)" d="m26.0703 9.2363-.0732.4932.5098.3291.8711-.5757-.4355-.4937-.582.3296-.29-.0825"/></g><image y="-12.819895" x="58.708691" href="62169F0F.png" height="4.6889377" width="5.6267252" style="opacity:.75;fill:#fff;fill-rule:nonzero;stroke:url(#B);stroke-miterlimit:4"/><image y="-9.5376387" x="62.928734" href="62169F10.png" height="2.3444688" width="2.3444688" style="opacity:.75;fill:#fff;fill-rule:nonzero;stroke:url(#C);stroke-miterlimit:4"/><g style="fill:#9db029;fill-rule:nonzero;stroke:url(#D);stroke-miterlimit:4" transform="translate(49.7717 -14.57365) scale(.4689)"><path style="fill:#9db029;stroke:url(#E)" d="m28.833 12.7749-.291-.7412-.5098.165.1465.9043.6543-.3281"/></g><image y="-10.006532" x="63.397629" href="62169F11.png" height="3.2822564" width="2.3444688" style="opacity:.75;fill:#fff;fill-rule:nonzero;stroke:url(#F);stroke-miterlimit:4"/><g style="fill:#9db029;fill-rule:nonzero;stroke:url(#G);stroke-miterlimit:4" transform="translate(49.94848 -14.57365) scale(.4689)"><path style="fill:#9db029;stroke:url(#H)" d="m29.123 12.6089-.1455.9883.7998-.165.5811-.5752-.5088-.4941c-.1709-.4551-.3672-.8799-.5811-1.3164h-.4355v.4932l.29.3291v.7402"/></g><image y="-11.413214" x="52.144176" href="62169F12.png" height="17.34907" width="9.8467684" style="opacity:.75;fill:#fff;fill-rule:nonzero;stroke:url(#I);stroke-miterlimit:4"/><image y="-10.94432" x="57.770901" href="62169F13.png" height="2.3444688" width="2.3444688" style="opacity:.75;fill:#fff;fill-rule:nonzero;stroke:url(#J);stroke-miterlimit:4"/><g style="fill:#9db029;fill-rule:nonzero;stroke:url(#K);stroke-miterlimit:4" transform="translate(50.39042 -14.57365) scale(.4689)"><path style="fill:#9db029;stroke:url(#L)" d="m16.7656 9.5649.7266.4937h.582v-.5757l-.7266-.3291-.582.4111"/></g><image y="-11.882107" x="56.36422" href="62169F14.png" height="3.2822564" width="4.2200437" style="opacity:.75;fill:#fff;fill-rule:nonzero;stroke:url(#M);stroke-miterlimit:4"/><image y="-12.819895" x="57.30201" href="2D44FCEC.png" height="2.8133626" width="3.7511499" style="opacity:.75;fill:#fff;fill-rule:nonzero;stroke:url(#N);stroke-miterlimit:4"/><g style="fill:#9db029;fill-rule:nonzero;stroke:url(#O);stroke-miterlimit:4" transform="translate(50.96494 -14.52946) scale(.4689)"><path style="fill:#9db029;stroke:url(#P)" d="m17.4922 7.887132.3638-.3286.7271-.1646c.498-.2422.998-.4053 1.5264-.5762l-.29-.4937-.9385.1348-.4434.4419-.731.106-.6499.3052-.3159.1528-.1929.2583.9443.1641"/></g><image y="-8.5998507" x="58.239796" href="2D44FCED.png" height="2.3444688" width="2.3444688" style="opacity:.75;fill:#fff;fill-rule:nonzero;stroke:url(#Q);stroke-miterlimit:4"/><g style="fill:#9db029;fill-rule:nonzero;stroke:url(#R);stroke-miterlimit:4" transform="translate(50.56718 -14.30851) scale(.4689)"><path style="fill:#9db029;stroke:url(#S)" d="m18.7285 14.6665.4365-.6582-.6548-.4932.2183 1.1514"/></g><image y="-11.413214" x="61.522053" href="2D44FCEE.png" height="16.411282" width="10.784556" style="opacity:.15750002;fill:#fff;fill-rule:nonzero;stroke:url(#T);stroke-miterlimit:4"/><image y="-10.94432" x="61.990948" href="2D44FCEF.png" height="2.3444688" width="2.3444688" style="opacity:.15750002;fill:#fff;fill-rule:nonzero;stroke:url(#U);stroke-miterlimit:4"/><image y="-12.819895" x="58.708691" href="2D44FCF0.png" height="4.6889377" width="5.6267252" style="opacity:.15750002;fill:#fff;fill-rule:nonzero;stroke:url(#V);stroke-miterlimit:4"/><image y="-9.5376387" x="62.928734" href="2D44FCF1.png" height="2.3444688" width="2.3444688" style="opacity:.15750002;fill:#fff;fill-rule:nonzero;stroke:url(#W);stroke-miterlimit:4"/><image y="-10.006532" x="63.397629" href="2D44FCF2.png" height="3.2822564" width="2.3444688" style="opacity:.15750002;fill:#fff;fill-rule:nonzero;stroke:url(#X);stroke-miterlimit:4"/><image y="-11.413214" x="52.144176" href="2D44FCF3.png" height="17.34907" width="9.8467684" style="opacity:.15750002;fill:#fff;fill-rule:nonzero;stroke:url(#Y);stroke-miterlimit:4"/><image y="-10.94432" x="57.770901" href="2D44FCF4.png" height="2.3444688" width="2.3444688" style="opacity:.15750002;fill:#fff;fill-rule:nonzero;stroke:url(#Z);stroke-miterlimit:4"/><image y="-11.882107" x="56.36422" href="2D44FCF5.png" height="3.2822564" width="4.2200437" style="opacity:.15750002;fill:#fff;fill-rule:nonzero;stroke:url(#aa);stroke-miterlimit:4"/><image y="-12.819895" x="57.30201" href="2D44FD11.png" height="2.8133626" width="3.7511499" style="opacity:.15750002;fill:#fff;fill-rule:nonzero;stroke:url(#ab);stroke-miterlimit:4"/><image y="-8.5998507" x="58.239796" href="2D44FD12.png" height="2.3444688" width="2.3444688" style="opacity:.15750002;fill:#fff;fill-rule:nonzero;stroke:url(#ac);stroke-miterlimit:4"/><g style="fill:url(#ad);fill-opacity:1;fill-rule:nonzero;stroke:url(#radialGradient8812-3);stroke-miterlimit:4" transform="translate(50.74397 -14.61784) scale(.4689)"><path style="fill:url(#ae);fill-opacity:1;stroke:url(#radialGradient9189-0)" d="m17.943241 27.768799-.518573-1.02672-.971477-.219726-.518127-1.392215-1.295183.146216-1.100764-.805748-1.166432 1.025918v.161809c-.352843-.101843-.78659-.115743-1.100763-.308916l-.259287-.732684v-.806638l-.777056.07306c.06487-.513404.129197-1.025918.194509-1.539233h-.4537956l-.4529044.586468-.4537955.219279-.6478592-.365495-.064866-.806639.1296431-.879702.9719225-.732684h.7770571l.129197-.440252.971477.219279.712636.880593.129643-1.467061 1.230764-1.025918.45335-1.099872.906699-.366298.518127-.732684 1.165541-.220973.583439-.878811h-1.74898l1.10112-.513404h.776612l1.101565-.367189.129643-.438559-.388929-.367188-.45335-.147018.129643-.43945-.323707-.659532-.777502.292343.129643-.586022-.9067-.513405-.71219 1.245554.06442.440252-.71219.294125-.453796.952766-.194064-.879702-1.230763-.513405-.194509-.659531 1.619336-.953657.712636-.659532.06487-.8061926-.388483-.2201702-.518127-.073509-.323707.8066378s-.54165.106121-.680916.140514c-1.778561 1.638938-5.372215 5.176904-6.2070989 11.856064.033057.154859.6051795 1.052827.6051795 1.052827l1.3600498.805747 1.3600499.367189.5834387.733486.906254.659531.518127-.07306.388484.174907v.118327l-.517771 1.392661-.388929.586468.129643.294125-.323707 1.098091 1.165987 2.126592 1.16554 1.02672.518573.732684-.06522 1.540125.38893.878811-.38893 1.686341s-.03047-.01043.01916.158334c.05007.168847 2.07527 1.293045 2.204022 1.19735.128307-.09748.237991-.182748.237991-.182748l-.129198-.365496.517771-.513404.194509-.513405.84228-.294125.647413-1.613188-.194063-.438559.452458-.659532.971923-.220972.518572-1.172936-.129643-1.465279.777057-1.099873.129643-1.099873c-1.063341-.527304-2.11795-1.07029-3.17336-1.613188"/></g><g style="fill:url(#af);fill-opacity:1;fill-rule:nonzero;stroke:url(#radialGradient8816-2);stroke-miterlimit:4" transform="translate(50.523 -14.44107) scale(.4689)"><path style="fill:url(#ag);fill-opacity:1;stroke:url(#radialGradient9195-4)" d="m26.8701 6.6933256-1.8906-.7407-2.1797.2466-2.6904.7402-.5088.4941 1.6719 1.1514v.6582l-.6543.6582.873 1.7289984.5801-.3301.7285-1.151399c1.123-.3471994 2.1299-.7406994 3.1973-1.2343994l.873-2.2212"/></g><g style="fill:url(#ah);fill-opacity:1;fill-rule:nonzero;stroke:url(#radialGradient8820-4);stroke-miterlimit:4" transform="translate(50.83236 -14.75043) scale(.4689)"><path style="fill:url(#ai);fill-opacity:1;stroke:url(#radialGradient9201-8)" d="m15.187259 9.6334723-.3638.9047987h.7271l.3638-.8227987c.3135-.2217.6255-.4448.9448-.6582l.7271.2471c.4844.3291.9688.6582 1.4536.9867997l.7275-.6576997-.8003-.3291-.3638-.7407-1.3809-.1646-.0728-.4116-.6543.165-.2904.5758-.3638-.7407-.145.3291.0728.8228-.5816.494"/></g><g style="fill:url(#aj);fill-opacity:1;fill-rule:nonzero;stroke:url(#radialGradient8824-2);stroke-miterlimit:4" transform="translate(50.12526 -14.48526) scale(.4689)"><path style="fill:url(#ak);fill-opacity:1;stroke:url(#radialGradient9207-1)" d="M42.893123 20.729176c0 .241194 0 0 0 0l-.500291.566672c-.306657-.361377-.650957-.66528-1.000583-.982679l-.767468.112931-.701179-.792625v.980934l.600735.454568.399848.452824.534354-.604316c.134506.251936.267177.503872.400765.755808v.754982l-.601653.679602-1.101026.755808-.83385.832105-.534354-.606152.267177-.679603-.533527-.604315-.901057-1.92597-.767468-.867912-.200888.225953.30124 1.095701.566672.641959c.323642.934293.643796 1.82727 1.0688 2.720339.659036 0 1.280338-.06996 1.934875-.15241v.529029l-.800704 1.964072-.734324.830269-.600735 1.285754v2.114188l.200888.832105-.333558.376618-.735242.45365-.767468.641959.634798.717338-.867912.756727.166733.489549-1.301914 1.474064h-.866994l-.734324.45365h-.468064v-.604316l-.199052-1.210468c-.258271-.758562-.527192-1.511708-.800705-2.264853 0-.55593.03314-1.106443.06638-1.662282l.334477-.754981-.468065-.907392.03406-1.246275-.634798-.717338.317399-1.038318-.516451-.585953h-.901974l-.300322-.339801-.901057.567131-.366702-.416466-.834768.717706c-.566668-.642419-1.134259-1.284378-1.701757-1.926337l-.667116-1.586995.600735-.905555-.333558-.377445.733405-1.738579c.602571-.749564 1.231952-1.468647 1.868586-2.190392l1.135089-.302158 1.267852-.150666.867912.226871 1.234615 1.245357.434001-.490467.599817-.07529 1.135089.377445h.867913l.600735-.529029.267177-.377445-.601654-.377445-1.0015-.07529c-.277919-.385524-.53619-.790789-.866168-1.133344l-.334476.150665-.133589.982679-.600735-.679603-.13267-.756726-.667116-.527192h-.268095l.667942.754981-.267177.679603-.533527.150666.333558-.679603-.601654-.30124-.532609-.604315-1.002419.225952-.13267.30124-.600735.378363-.333558.831187-.83385.415088-.36762-.415088h-.399848v-1.360124l.867912-.45365h.667116l-.134506-.52811-.53261-.529029.900231-.189228.500291-.565754.399847-.680521h.735242l-.200888-.52811.468065-.302158v.604315l1.000582.225953 1.000583-.830268.06721-.378363.866994-.603857c-.313818.03902-.627636.06767-.934293.151125v-.680429l.333558-.755441h-.333558l-.733038.679603-.200888.377904.200888.529488-.334476.905555-.533528-.302158-.466229-.52811-.735241.52811-.267177-1.208172 1.267851-.830728v-.4536504l.801531-.5285696 1.267851-.302617.867912.302617 1.601318.3021579-.399848.4528241h-.867912l.867912.906474.667117-.754982.202632-.3321814s2.558931 2.2934994 4.021335 4.8023004c1.462404 2.509628 2.149168 5.46758 2.149168 6.068315z"/></g></g><g style="display:inline"><g style="opacity:.78857141"><g style="display:inline"><path d="M-219.61876-150.68038v478.33079c142.874166.90045 345.40022-107.16966 345.40014-239.196175 0-132.026537-159.436816-239.134595-345.40014-239.134615z" style="opacity:.40206185;color:#000;fill:url(#al);fill-opacity:1;fill-rule:nonzero;stroke:none;stroke-width:1;marker:none;visibility:visible;display:inline;overflow:visible" transform="matrix(.01112 0 0 .01308 13.449090916 37.779739723)"/></g><path d="M26.968941 31.809458c1.258104-.594219 1.843732-2.047956 1.843732-2.047956-.980037-4.13513-4.062867-6.99878-4.062867-6.99878s2.518345 6.487159 2.219135 9.046736z" style="opacity:.29120878;color:#000;fill:url(#am);fill-opacity:1;fill-rule:evenodd;stroke:none;stroke-width:1px;marker:none;visibility:visible;display:inline;overflow:visible" transform="translate(-9.67356088 14.61447636) scale(.7707)"/></g><path d="M10.183488 24.850231h5.678138l-3.312246-3.075659-.709768.946357-.709768-.709767-.946356 2.839069z" style="color:#000;fill:url(#an);fill-opacity:1;fill-rule:evenodd;stroke:none;stroke-width:1px;marker:none;visibility:visible;display:inline;overflow:visible" transform="translate(-1.358887288 19.1662503) scale(.7707)"/><path style="opacity:.22784807;color:#000;fill:url(#ao);fill-opacity:1;fill-rule:evenodd;stroke:none;stroke-width:1px;marker:none;visibility:visible;display:inline;overflow:visible" d="M16.700942 32.490544c1.647845-.777552 2.414892-2.679807 2.414892-2.679807-1.283638-5.410927-5.321479-9.158091-5.321479-9.158091s3.298488 8.488623 2.906587 11.837898z" transform="translate(-1.358887288 19.1662503) scale(.7707)"/><g style="display:inline"><path style="opacity:.40206185;color:#000;fill:url(#ap);fill-opacity:1;fill-rule:nonzero;stroke:none;stroke-width:1;marker:none;visibility:visible;display:inline;overflow:visible" d="M-1559.2523-150.69685h1339.6335v478.35718h-1339.6335z" transform="matrix(.01112 0 0 .01308 21.763764508 42.331513663)"/><path style="opacity:.40206185;color:#000;fill:url(#aq);fill-opacity:1;fill-rule:nonzero;stroke:none;stroke-width:1;marker:none;visibility:visible;display:inline;overflow:visible" d="M-219.61876-150.68038v478.33079c142.874166.90045 345.40022-107.16966 345.40014-239.196175 0-132.026537-159.436816-239.134595-345.40014-239.134615z" transform="matrix(.01112 0 0 .01308 21.763764508 42.331513663)"/><path d="M-1559.2523-150.68038v478.33079c-142.8742.90045-345.4002-107.16966-345.4002-239.196175 0-132.026537 159.4368-239.134595 345.4002-239.134615z" style="opacity:.40206185;color:#000;fill:url(#ar);fill-opacity:1;fill-rule:nonzero;stroke:none;stroke-width:1;marker:none;visibility:visible;display:inline;overflow:visible" transform="matrix(.01112 0 0 .01308 21.763764508 42.331513663)"/></g><path d="M11.666184 33.499999h10.963942c3.106451 0 6.18197-1.098541 7.309293-4.22959 1.070531-2.973303.182734-8.635417-6.761096-13.217474h-12.974c-6.9438286 4.22959-7.8115879 10.013935-6.2128989 13.393706 1.6286774 3.443166 4.3855774 4.053358 7.6747599 4.053358z" style="color:#000;fill:url(#as);fill-opacity:1;fill-rule:evenodd;stroke:#888a85;stroke-width:1.29753494;stroke-linecap:round;stroke-linejoin:round;stroke-miterlimit:4;stroke-opacity:1;stroke-dasharray:none;stroke-dashoffset:0;marker:none;visibility:visible;display:inline;overflow:visible" transform="translate(-1.358887288 19.1662503) scale(.7707)"/><path style="opacity:.29120878;color:#000;fill:url(#at);fill-opacity:1;fill-rule:evenodd;stroke:none;stroke-width:1px;marker:none;visibility:visible;display:inline;overflow:visible" d="M25.569935 30.045494c1.258104-.594219 1.843732-2.047956 1.843732-2.047956-.980037-4.13513-4.062867-6.99878-4.062867-6.99878s2.518345 6.487159 2.219135 9.046736z" transform="translate(-1.358887288 19.1662503) scale(.7707)"/><path d="M8.2992053 29.903737c-1.2748168-.557391-1.8453825-1.900631-1.8453825-1.900631.8596294-4.161878 3.8010552-7.20681 3.8010552-7.20681s-2.3290319 6.557643-1.9556727 9.107441z" style="opacity:.54945056;color:#000;fill:url(#au);fill-opacity:1;fill-rule:evenodd;stroke:none;stroke-width:1px;marker:none;visibility:visible;display:inline;overflow:visible" transform="translate(-1.358887288 19.1662503) scale(.7707)"/><path style="opacity:.64285715;color:#000;fill:none;stroke:#fff;stroke-width:1.29753494;stroke-linecap:round;stroke-linejoin:round;stroke-miterlimit:4;stroke-opacity:1;stroke-dasharray:none;stroke-dashoffset:0;marker:none;visibility:visible;display:inline;overflow:visible" d="m11.614344 32.279797 10.929719-.02226c2.749475 0 5.492937-.64885 6.343277-3.819197.85034-3.170347-1.971982-9.716642-7.432367-11.468434l-10.399457-.03069c-5.5722883 3.307036-7.4078393 8.715143-5.9898999 11.687165 1.4179394 2.972022 3.3530838 3.513024 6.5487279 3.65342z" transform="translate(-1.358887288 19.1662503) scale(.7707)"/><path transform="matrix(.7875 0 0 .78826 -13.004453688 15.033899343)" style="color:#000;fill:url(#av);fill-opacity:1;fill-rule:evenodd;stroke:none;stroke-width:1px;marker:none;visibility:visible;display:inline;overflow:visible" d="M39.774755 19.008621c0 4.783923-3.878135 8.662058-8.662057 8.662058-4.783923 0-8.662058-3.878135-8.662058-8.662058 0-4.783922 3.878135-8.662058 8.662058-8.662058 4.783922 0 8.662057 3.878136 8.662057 8.662058z"/><path transform="translate(-11.927072346 13.26814813) scale(.75627)" d="M39.774755 19.008621c0 4.783923-3.878135 8.662058-8.662057 8.662058-4.783923 0-8.662058-3.878135-8.662058-8.662058 0-4.783922 3.878135-8.662058 8.662058-8.662058 4.783922 0 8.662057 3.878136 8.662057 8.662058z" style="color:#000;fill:url(#aw);fill-opacity:1;fill-rule:evenodd;stroke:#888a85;stroke-width:1.32227337;stroke-linecap:round;stroke-linejoin:round;stroke-miterlimit:4;stroke-opacity:1;stroke-dasharray:none;stroke-dashoffset:0;marker:none;visibility:visible;display:inline;overflow:visible"/><path transform="matrix(.58555 0 0 .59097 -6.592115601 16.41040148)" style="opacity:.52571429;color:#000;fill:none;stroke:#fff;stroke-width:1.69994545;stroke-linecap:round;stroke-linejoin:round;stroke-miterlimit:4;stroke-opacity:1;stroke-dasharray:none;stroke-dashoffset:0;marker:none;visibility:visible;display:inline;overflow:visible" d="M40.689639 19.008621c0 5.201131-4.287743 9.41748-9.576941 9.41748-5.289199 0-9.576942-4.216349-9.576942-9.41748 0-5.20113 4.287743-9.4174793 9.576942-9.4174793 5.289198 0 9.576941 4.2163493 9.576941 9.4174793z"/></g><g style="display:inline"><g style="opacity:.78857141"><g style="display:inline"><path d="M-219.61876-150.68038v478.33079c142.874166.90045 345.40022-107.16966 345.40014-239.196175 0-132.026537-159.436816-239.134595-345.40014-239.134615z" style="opacity:.40206185;color:#000;fill:url(#ax);fill-opacity:1;fill-rule:nonzero;stroke:none;stroke-width:1;marker:none;visibility:visible;display:inline;overflow:visible" transform="matrix(.01112 0 0 .01308 37.850138916 38.277739723)"/></g><path d="M26.968941 31.809458c1.258104-.594219 1.843732-2.047956 1.843732-2.047956-.980037-4.13513-4.062867-6.99878-4.062867-6.99878s2.518345 6.487159 2.219135 9.046736z" style="opacity:.29120878;color:#000;fill:url(#ay);fill-opacity:1;fill-rule:evenodd;stroke:none;stroke-width:1px;marker:none;visibility:visible;display:inline;overflow:visible" transform="translate(14.72748712 15.11247636) scale(.7707)"/></g><path d="M10.183488 24.850231h5.678138l-3.312246-3.075659-.709768.946357-.709768-.709767-.946356 2.839069z" style="color:#000;fill:url(#az);fill-opacity:1;fill-rule:evenodd;stroke:none;stroke-width:1px;marker:none;visibility:visible;display:inline;overflow:visible" transform="translate(23.042160712 19.6642503) scale(.7707)"/><path style="opacity:.22784807;color:#000;fill:url(#aA);fill-opacity:1;fill-rule:evenodd;stroke:none;stroke-width:1px;marker:none;visibility:visible;display:inline;overflow:visible" d="M16.700942 32.490544c1.647845-.777552 2.414892-2.679807 2.414892-2.679807-1.283638-5.410927-5.321479-9.158091-5.321479-9.158091s3.298488 8.488623 2.906587 11.837898z" transform="translate(23.042160712 19.6642503) scale(.7707)"/><g style="display:inline"><path style="opacity:.40206185;color:#000;fill:url(#aB);fill-opacity:1;fill-rule:nonzero;stroke:none;stroke-width:1;marker:none;visibility:visible;display:inline;overflow:visible" d="M-1559.2523-150.69685h1339.6335v478.35718h-1339.6335z" transform="matrix(.01112 0 0 .01308 46.164812508 42.829513663)"/><path style="opacity:.40206185;color:#000;fill:url(#aC);fill-opacity:1;fill-rule:nonzero;stroke:none;stroke-width:1;marker:none;visibility:visible;display:inline;overflow:visible" d="M-219.61876-150.68038v478.33079c142.874166.90045 345.40022-107.16966 345.40014-239.196175 0-132.026537-159.436816-239.134595-345.40014-239.134615z" transform="matrix(.01112 0 0 .01308 46.164812508 42.829513663)"/><path d="M-1559.2523-150.68038v478.33079c-142.8742.90045-345.4002-107.16966-345.4002-239.196175 0-132.026537 159.4368-239.134595 345.4002-239.134615z" style="opacity:.40206185;color:#000;fill:url(#aD);fill-opacity:1;fill-rule:nonzero;stroke:none;stroke-width:1;marker:none;visibility:visible;display:inline;overflow:visible" transform="matrix(.01112 0 0 .01308 46.164812508 42.829513663)"/></g><path d="M11.666184 33.499999h10.963942c3.106451 0 6.18197-1.098541 7.309293-4.22959 1.070531-2.973303.182734-8.635417-6.761096-13.217474h-12.974c-6.9438286 4.22959-7.8115879 10.013935-6.2128989 13.393706 1.6286774 3.443166 4.3855774 4.053358 7.6747599 4.053358z" style="color:#000;fill:url(#aE);fill-opacity:1;fill-rule:evenodd;stroke:#888a85;stroke-width:1.297535;stroke-linecap:round;stroke-linejoin:round;stroke-miterlimit:4;stroke-opacity:1;stroke-dasharray:none;stroke-dashoffset:0;marker:none;visibility:visible;display:inline;overflow:visible" transform="translate(23.042160712 19.6642503) scale(.7707)"/><path style="opacity:.29120878;color:#000;fill:url(#aF);fill-opacity:1;fill-rule:evenodd;stroke:none;stroke-width:1px;marker:none;visibility:visible;display:inline;overflow:visible" d="M25.569935 30.045494c1.258104-.594219 1.843732-2.047956 1.843732-2.047956-.980037-4.13513-4.062867-6.99878-4.062867-6.99878s2.518345 6.487159 2.219135 9.046736z" transform="translate(23.042160712 19.6642503) scale(.7707)"/><path d="M8.2992053 29.903737c-1.2748168-.557391-1.8453825-1.900631-1.8453825-1.900631.8596294-4.161878 3.8010552-7.20681 3.8010552-7.20681s-2.3290319 6.557643-1.9556727 9.107441z" style="opacity:.54945056;color:#000;fill:url(#aG);fill-opacity:1;fill-rule:evenodd;stroke:none;stroke-width:1px;marker:none;visibility:visible;display:inline;overflow:visible" transform="translate(23.042160712 19.6642503) scale(.7707)"/><path style="opacity:.64285714999999999;color:#000;fill:none;stroke:#fff;stroke-width:1.297535;stroke-linecap:round;stroke-linejoin:round;stroke-miterlimit:4;stroke-opacity:1;stroke-dasharray:none;stroke-dashoffset:0;marker:none;visibility:visible;display:inline;overflow:visible" d="m11.614344 32.279797 10.929719-.02226c2.749475 0 5.492937-.64885 6.343277-3.819197.85034-3.170347-1.971982-9.716642-7.432367-11.468434l-10.399457-.03069c-5.5722883 3.307036-7.4078393 8.715143-5.9898999 11.687165 1.4179394 2.972022 3.3530838 3.513024 6.5487279 3.65342z" transform="translate(23.042160712 19.6642503) scale(.7707)"/><path transform="matrix(.7875 0 0 .78826 11.396594312 15.531899343)" style="color:#000;fill:url(#aH);fill-opacity:1;fill-rule:evenodd;stroke:none;stroke-width:1px;marker:none;visibility:visible;display:inline;overflow:visible" d="M39.774755 19.008621c0 4.783923-3.878135 8.662058-8.662057 8.662058-4.783923 0-8.662058-3.878135-8.662058-8.662058 0-4.783922 3.878135-8.662058 8.662058-8.662058 4.783922 0 8.662057 3.878136 8.662057 8.662058z"/><path transform="translate(12.473975654 13.76614813) scale(.75627)" d="M39.774755 19.008621c0 4.783923-3.878135 8.662058-8.662057 8.662058-4.783923 0-8.662058-3.878135-8.662058-8.662058 0-4.783922 3.878135-8.662058 8.662058-8.662058 4.783922 0 8.662057 3.878136 8.662057 8.662058z" style="color:#000;fill:url(#aI);fill-opacity:1;fill-rule:evenodd;stroke:#888a85;stroke-width:1.32227341;stroke-linecap:round;stroke-linejoin:round;stroke-miterlimit:4;stroke-opacity:1;stroke-dasharray:none;stroke-dashoffset:0;marker:none;visibility:visible;display:inline;overflow:visible"/><path transform="matrix(.58555 0 0 .59097 17.808932399 16.90840148)" style="opacity:.52571429;color:#000;fill:none;stroke:#fff;stroke-width:1.69994545;stroke-linecap:round;stroke-linejoin:round;stroke-miterlimit:4;stroke-opacity:1;stroke-dasharray:none;stroke-dashoffset:0;marker:none;visibility:visible;display:inline;overflow:visible" d="M40.689639 19.008621c0 5.201131-4.287743 9.41748-9.576941 9.41748-5.289199 0-9.576942-4.216349-9.576942-9.41748 0-5.20113 4.287743-9.4174793 9.576942-9.4174793 5.289198 0 9.576941 4.2163493 9.576941 9.4174793z"/></g><g style="fill:#ccc"><path d="M17.294305 1034.8581c-.172905 2.0225-2.636693 3.8157-5.431688 3.8431-.698633.01-1.481661.014-1.481661.014 0 .01-.7320398.7622-1.4486122.986-.5409632.169-1.1117721-.1307-1.1117721-.1307.6056483-.2644.9890437-1.1131.8466095-1.4252-.1388313-.3043-.639979-.3823-1.5707519-1.5278-.2994981-.4354-.4925082-1.0401-.4906689-1.5969.00874-2.6457 2.6639751-3.9893 4.8552086-4.2364 2.554129-.288 6.059129 1.4333 5.833336 4.0745z" style="fill:#ccc;fill-opacity:1;stroke:#fcaf3e;stroke-width:.61636340999999994;stroke-linecap:round;stroke-linejoin:round;stroke-miterlimit:4;stroke-opacity:1;stroke-dasharray:none" transform="translate(.21491368 -1661.35163) scale(1.62242)"/></g><path style="fill:#555753;stroke:#555753;stroke-width:.74163556;stroke-linecap:round;stroke-linejoin:round;stroke-miterlimit:4;stroke-opacity:1;stroke-dasharray:none" d="m22.467144 1024.0847 1.309451.01" transform="translate(0 -1004.3622)"/><path style="font-size:4px;fill:#555753;stroke:#555753;stroke-width:1;stroke-linecap:round;stroke-linejoin:round;stroke-miterlimit:4;stroke-opacity:1;stroke-dasharray:none" d="M21.223596 1019.4175c3.444238-.01 3.894695-.015 3.63865-.023" transform="translate(0 -1004.3622)"/><path d="M26.891973 1021.9438c-.234466 2.5081-3.622756 5.3005-7.412821 5.3344-.947358.015-2.79834.1432-2.79834.1432-.452909.6141-3.058568 2.509-2.230802 1.4142l.822357-1.8684s-1.325547-1.0896-2.587691-2.5106c-.406124-.5399-.794119-1.6687-.791624-2.3593.01185-3.2813 3.977395-5.4818 6.946769-5.8064 3.508902-.3836 9.475293 1.7288 8.052164 5.6532v.0002l-.000012-.0005z" style="fill:none;stroke:#fce987;stroke-width:1;stroke-linecap:round;stroke-linejoin:round;stroke-miterlimit:4;stroke-opacity:1;stroke-dasharray:none" transform="translate(0 -1004.3622)"/><path style="fill:#555753;stroke:#555753;stroke-width:1;stroke-linecap:round;stroke-linejoin:round;stroke-miterlimit:4;stroke-opacity:1;stroke-dasharray:none" d="M16.062755 1021.7699h4.287581" transform="translate(0 -1004.3622)"/><path style="fill:#555753;stroke:#555753;stroke-width:.74163556;stroke-linecap:round;stroke-linejoin:round;stroke-miterlimit:4;stroke-opacity:1;stroke-dasharray:none" d="M21.663942 1021.7352c3.444238-.01 3.083532-.015 2.827485-.023" transform="translate(0 -1004.3622)"/><path style="fill:#555753;stroke:#555753;stroke-width:1;stroke-linecap:round;stroke-linejoin:round;stroke-miterlimit:4;stroke-opacity:1;stroke-dasharray:none" d="M16.792802 1024.1339h4.287581" transform="translate(0 -1004.3622)"/><g style="fill:#ececec"><path d="M15.248652 1035.5551c.09794 1.8412 2.024952 3.3946 4.525669 3.1807.63288-.055 1.34319-.1034 1.34319-.1034.000493.01.722205.6337 1.388649.7808.503122.1113.99695-.2046.99695-.2046-.569125-.1926-.982207-.9316-.877382-1.2253.102171-.2865.550078-.3961 1.3044-1.5059.237544-.4174.276092-.9871.245386-1.3459 0 0 0 0 0 0-.07438-1.8126-2.738885-2.9953-4.703084-2.9338-2.032122.063-4.32232 1.504-4.223778 3.3566z" style="fill:#ececec;fill-opacity:1;stroke:#fcaf3e;stroke-width:.57815468000000003;stroke-linecap:round;stroke-linejoin:round;stroke-miterlimit:4;stroke-opacity:1;stroke-dasharray:none" transform="translate(-5.1654265 -1771.71649) scale(1.72964)"/></g><path style="fill:#555753;stroke:#555753;stroke-width:.9;stroke-linecap:round;stroke-linejoin:round;stroke-miterlimit:4;stroke-opacity:1;stroke-dasharray:none" d="m27.875221 1023.5531 1.331798.01m-5.598255-.0219c3.503011-.01 3.136151-.016 2.875733-.023" transform="translate(0 -1004.3622)"/><path style="font-size:4px;fill:#555753;stroke:#555753;stroke-width:.9;stroke-linecap:round;stroke-linejoin:round;stroke-miterlimit:4;stroke-opacity:1;stroke-dasharray:none" d="M30.354475 1023.5471c3.503012-.01 3.961158-.016 3.70074-.023" transform="translate(0 -1004.3622)"/><path style="fill:#555753;stroke:#555753;stroke-width:.9;stroke-linecap:round;stroke-linejoin:round;stroke-miterlimit:4;stroke-opacity:1;stroke-dasharray:none" d="M27.055644 1025.5453h3.477362" transform="translate(0 -1004.3622)"/><path d="M28.098077 1028.325c.903803.055 3.573003-.1826 3.573003-.1826 1.200906 1.0638 2.561878 2.0198 2.693307 1.7569 0 0-1.217659-1.3891-1.149881-2.5418.14614-.3807 1.822891-1.2499 2.334485-2.9729 1.774931-5.9778-11.91187-7.9738-13.366117-1.1489-.313547 3.1999 2.951151 4.9096 5.915203 5.0893z" style="fill:none;stroke:#fce987;stroke-width:1;stroke-linecap:butt;stroke-linejoin:round;stroke-miterlimit:4;stroke-opacity:1;stroke-dasharray:none" transform="translate(0 -1004.3622)"/><path style="fill:#555753;stroke:#555753;stroke-width:.9;stroke-linecap:round;stroke-linejoin:round;stroke-miterlimit:4;stroke-opacity:1;stroke-dasharray:none" d="m31.926765 1025.5118 1.331799.01m-8.875612.0372 1.331789.01" transform="translate(0 -1004.3622)"/><path style="font-size:4px;fill:#555753;stroke:#555753;stroke-width:.9;stroke-linecap:round;stroke-linejoin:round;stroke-miterlimit:4;stroke-opacity:1;stroke-dasharray:none" d="M24.848155 1021.5166c3.503021-.01 3.961157-.016 3.700748-.023" transform="translate(0 -1004.3622)"/><path style="fill:#555753;stroke:#555753;stroke-width:1;stroke-linecap:round;stroke-linejoin:round;stroke-miterlimit:4;stroke-opacity:1;stroke-dasharray:none" d="m18.785948 1019.4234 1.309451.01m-5.504327-.0217c3.444239-.01 3.083532-.015 2.827485-.023m-3.893586 2.3928h1.274686" transform="translate(0 -1004.3622)"/><path style="fill:#555753;stroke:#555753;stroke-width:.9;stroke-linecap:round;stroke-linejoin:round;stroke-miterlimit:4;stroke-opacity:1;stroke-dasharray:none" d="M30.213119 1021.4833c3.503012-.01 3.136152-.016 2.875734-.023" transform="translate(0 -1004.3622)"/><path style="fill:#555753;stroke:#555753;stroke-width:1;stroke-linecap:round;stroke-linejoin:round;stroke-miterlimit:4;stroke-opacity:1;stroke-dasharray:none" d="m14.017463 1024.131 1.30945.01" transform="translate(0 -1004.3622)"/></svg>
