<svg xmlns="http://www.w3.org/2000/svg" width="4000" height="4000"><defs><filter id="a" width="200%" height="200%"><feOffset in="SourceAlpha" result="offOut"/><feGaussianBlur in="offOut" result="blurOut" stdDeviation="50"/><feBlend in="SourceGraphic" in2="blurOut"/></filter></defs><g fill="#33691e"><path d="M0 0v750h200v350l350-350h2200V0z" filter="url(#a)" transform="translate(250 2575)"/><g fill="#558b2f"><path d="M400 2725h2450v100H400zM400 2900h2450v100H400zM400 3075h2450v100H400z"/></g></g><g fill="#689f38"><path d="M0 0v750h2250l300 350V750h200V0z" filter="url(#a)" transform="translate(1000 1825)"/><g fill="#7cb342"><path d="M1150 1975h2450v100H1150zM1150 2150h2450v100H1150zM1150 2325h2450v100H1150z"/></g></g><g fill="#8bc34a"><path d="M0 0v750h200v350l350-350h2200V0z" filter="url(#a)" transform="translate(250 1075)"/><g fill="#9ccc65"><path d="M400 1225h2450v100H400zM400 1400h2450v100H400zM400 1575h2450v100H400z"/></g></g><g fill="#aed581"><path d="M0 0v750h2250l300 350V750h200V0z" filter="url(#a)" transform="translate(1000 325)"/><g fill="#c5e1a5"><path d="M1150 475h2450v100H1150zM1150 650h2450v100H1150zM1150 825h2450v100H1150z"/></g></g></svg>