<svg xmlns="http://www.w3.org/2000/svg" xmlns:xlink="http://www.w3.org/1999/xlink" width="64" height="64" viewBox="0 0 51.2 51.2"><defs><radialGradient id="a" cx="13.209" cy="7.655" r="23.632" fx="13.209" fy="7.655" gradientUnits="userSpaceOnUse"><stop offset="0%" stop-color="#FFF"/><stop offset="56.91%" stop-color="#F6F7F7"/><stop offset="64.02%" stop-color="#F6F7F7"/><stop offset="71.67%" stop-color="#F2F2F2"/><stop offset="80.09%" stop-color="#E4E4E4"/><stop offset="86.763%" stop-color="#CECECE"/><stop offset="90.089%" stop-color="#C6C6C6"/><stop offset="94.34%" stop-color="#A7A7A7"/><stop offset="98.245%" stop-color="#A6A4A4"/><stop offset="100%" stop-color="#B7B7B7"/></radialGradient><radialGradient id="b" cx="8.101" cy="9.325" r="27.072" fx="8.101" fy="9.325" gradientTransform="scale(1.28855 .77607)" gradientUnits="userSpaceOnUse"><stop offset="7.87%" stop-color="#F69F90"/><stop offset="18.82%" stop-color="#F48677"/><stop offset="42.21%" stop-color="#E04235"/><stop offset="56.97%" stop-color="#D12027"/><stop offset="69.09%" stop-color="#A91E22"/><stop offset="72.11%" stop-color="#AA1E23"/><stop offset="76%" stop-color="#AC1F24"/><stop offset="80.36%" stop-color="#B33030"/><stop offset="84.85%" stop-color="#B85353"/></radialGradient><radialGradient id="c" cx="12.745" cy="10.518" r="35.839" fx="12.745" fy="10.518" gradientTransform="scale(1.04207 .95963)" gradientUnits="userSpaceOnUse"><stop offset="7.87%" stop-color="#F69F90"/><stop offset="18.82%" stop-color="#F48677"/><stop offset="42.21%" stop-color="#E04235"/><stop offset="56.97%" stop-color="#D12027"/><stop offset="69.09%" stop-color="#A91E22"/><stop offset="72.11%" stop-color="#AA1E23"/><stop offset="76%" stop-color="#AC1F24"/><stop offset="80.36%" stop-color="#B33030"/><stop offset="84.85%" stop-color="#B85353"/></radialGradient><radialGradient id="d" cx="4.788" cy="2.27" r="2.607" fx="4.788" fy="2.27" gradientTransform="scale(.2498 4.00315)" gradientUnits="userSpaceOnUse"><stop offset="7.87%" stop-color="#F69F90"/><stop offset="18.82%" stop-color="#F48677"/><stop offset="42.21%" stop-color="#E04235"/><stop offset="56.97%" stop-color="#D12027"/><stop offset="69.09%" stop-color="#A91E22"/><stop offset="72.11%" stop-color="#AA1E23"/><stop offset="76%" stop-color="#AC1F24"/><stop offset="80.36%" stop-color="#B33030"/><stop offset="84.85%" stop-color="#B85353"/></radialGradient><radialGradient id="e" cx="13.861" cy="5.495" r="27.899" fx="13.861" fy="5.495" gradientTransform="scale(.75312 1.32781)" gradientUnits="userSpaceOnUse"><stop offset="7.87%" stop-color="#F69F90"/><stop offset="18.82%" stop-color="#F48677"/><stop offset="42.21%" stop-color="#E04235"/><stop offset="56.97%" stop-color="#D12027"/><stop offset="69.09%" stop-color="#A91E22"/><stop offset="72.11%" stop-color="#AA1E23"/><stop offset="76%" stop-color="#AC1F24"/><stop offset="80.36%" stop-color="#B33030"/><stop offset="84.85%" stop-color="#B85353"/></radialGradient><radialGradient id="f" cx="16.76" cy="5.491" r="22.418" fx="16.76" fy="5.491" gradientTransform="scale(.72143 1.38613)" gradientUnits="userSpaceOnUse"><stop offset="0%" stop-color="#F69F90"/><stop offset="18.82%" stop-color="#F48677"/><stop offset="42.21%" stop-color="#F24841"/><stop offset="56.97%" stop-color="#D6221E"/><stop offset="76%" stop-color="#C11816"/><stop offset="100%" stop-color="#AC0E0E"/></radialGradient><radialGradient id="g" cx="10.299" cy="1.418" r="15.847" fx="10.299" fy="1.418" gradientTransform="scale(.19592 5.10418)" gradientUnits="userSpaceOnUse"><stop offset="7.87%" stop-color="#F69F90"/><stop offset="18.82%" stop-color="#F48677"/><stop offset="42.21%" stop-color="#E04235"/><stop offset="56.97%" stop-color="#D12027"/><stop offset="69.09%" stop-color="#A91E22"/><stop offset="72.11%" stop-color="#AA1E23"/><stop offset="76%" stop-color="#AC1F24"/><stop offset="80.36%" stop-color="#B33030"/><stop offset="84.85%" stop-color="#B85353"/></radialGradient><radialGradient id="h" cx="5.489" cy="13.761" r="39.953" fx="5.489" fy="13.761" gradientTransform="scale(1.90162 .52587)" gradientUnits="userSpaceOnUse"><stop offset="7.87%" stop-color="#F69F90"/><stop offset="18.82%" stop-color="#F48677"/><stop offset="42.21%" stop-color="#E04235"/><stop offset="56.97%" stop-color="#D12027"/><stop offset="69.09%" stop-color="#A91E22"/><stop offset="72.11%" stop-color="#AA1E23"/><stop offset="76%" stop-color="#AC1F24"/><stop offset="80.36%" stop-color="#B33030"/><stop offset="84.85%" stop-color="#B85353"/></radialGradient><radialGradient id="i" cx="6.665" cy="11.333" r="32.903" fx="6.665" fy="11.333" gradientTransform="scale(1.56606 .63855)" gradientUnits="userSpaceOnUse"><stop offset="7.87%" stop-color="#F69F90"/><stop offset="18.82%" stop-color="#F48677"/><stop offset="42.21%" stop-color="#E04235"/><stop offset="56.97%" stop-color="#D12027"/><stop offset="69.09%" stop-color="#A91E22"/><stop offset="72.11%" stop-color="#AA1E23"/><stop offset="76%" stop-color="#AC1F24"/><stop offset="80.36%" stop-color="#B33030"/><stop offset="84.85%" stop-color="#B85353"/></radialGradient><radialGradient id="j" cx="11.791" cy="27.029" r=".473" fx="11.791" fy="27.029" gradientTransform="scale(1.94 .51546)" gradientUnits="userSpaceOnUse"><stop offset="7.87%" stop-color="#F69F90"/><stop offset="18.82%" stop-color="#F48677"/><stop offset="42.21%" stop-color="#E04235"/><stop offset="56.97%" stop-color="#D12027"/><stop offset="69.09%" stop-color="#A91E22"/><stop offset="72.11%" stop-color="#AA1E23"/><stop offset="76%" stop-color="#AC1F24"/><stop offset="80.36%" stop-color="#B33030"/><stop offset="84.85%" stop-color="#B85353"/></radialGradient><radialGradient id="k" cx="13.374" cy="22.085" r="1.789" fx="13.374" fy="22.085" gradientTransform="scale(1.61699 .61843)" gradientUnits="userSpaceOnUse"><stop offset="7.87%" stop-color="#F69F90"/><stop offset="18.82%" stop-color="#F48677"/><stop offset="42.21%" stop-color="#E04235"/><stop offset="56.97%" stop-color="#D12027"/><stop offset="69.09%" stop-color="#A91E22"/><stop offset="72.11%" stop-color="#AA1E23"/><stop offset="76%" stop-color="#AC1F24"/><stop offset="80.36%" stop-color="#B33030"/><stop offset="84.85%" stop-color="#B85353"/></radialGradient><radialGradient id="l" cx="12.753" cy="6.875" r="16.551" fx="12.753" fy="6.875" gradientTransform="scale(.95007 1.05256)" gradientUnits="userSpaceOnUse"><stop offset="0%" stop-color="#F26451"/><stop offset="37.572%" stop-color="#F23F37"/><stop offset="51.842%" stop-color="#F23830"/><stop offset="64.053%" stop-color="#DD2621"/><stop offset="85.906%" stop-color="#C91C19"/><stop offset="100%" stop-color="#AC0E0E"/></radialGradient><radialGradient id="m" cx="63.601" cy="7.363" r="0" fx="63.601" fy="7.363" gradientTransform="scale(.45319 2.2066)" gradientUnits="userSpaceOnUse"><stop offset="7.87%" stop-color="#F69F90"/><stop offset="18.82%" stop-color="#F48677"/><stop offset="42.21%" stop-color="#E04235"/><stop offset="56.97%" stop-color="#D12027"/><stop offset="69.09%" stop-color="#A91E22"/><stop offset="72.11%" stop-color="#AA1E23"/><stop offset="76%" stop-color="#AC1F24"/><stop offset="80.36%" stop-color="#B33030"/><stop offset="84.85%" stop-color="#B85353"/></radialGradient><radialGradient id="n" cx="71.818" cy="2.224" r="25.344" fx="71.818" fy="2.224" gradientTransform="scale(.30729 3.25425)" gradientUnits="userSpaceOnUse"><stop offset="7.87%" stop-color="#F69F90"/><stop offset="18.82%" stop-color="#F48677"/><stop offset="42.21%" stop-color="#E04235"/><stop offset="56.97%" stop-color="#D12027"/><stop offset="69.09%" stop-color="#A91E22"/><stop offset="72.11%" stop-color="#AA1E23"/><stop offset="76%" stop-color="#AC1F24"/><stop offset="80.36%" stop-color="#B33030"/><stop offset="84.85%" stop-color="#B85353"/></radialGradient><radialGradient id="p" cx="10.785" cy="7.873" r="11.625" fx="10.785" fy="7.873" gradientTransform="scale(1.2754 .78407)" gradientUnits="userSpaceOnUse"><stop offset="0%" stop-color="#FFF"/><stop offset="100%" stop-color="#FFF" stop-opacity="0"/></radialGradient><linearGradient id="o" x1="16.064" x2="9.811" y1="21.097" y2="1.136" gradientTransform="scale(1.17516 .85095)" gradientUnits="userSpaceOnUse"><stop offset="0%" stop-color="#FFF" stop-opacity=".11"/><stop offset="32.986%" stop-color="#FFF" stop-opacity=".65"/><stop offset="55.238%" stop-color="#FBFBFB" stop-opacity=".69"/><stop offset="72.114%" stop-color="#F6F6F6"/><stop offset="83.375%" stop-color="#F6F6F6"/><stop offset="89.941%" stop-color="#FFF"/><stop offset="100%" stop-color="#FFF"/></linearGradient><linearGradient id="s" x1="4.431" x2="1.385" y1="1.833" y2="1.833" gradientTransform="scale(1.354 .73855)" gradientUnits="userSpaceOnUse"><stop offset="0%" stop-color="#F7F7F9" stop-opacity=".17"/><stop offset="100%" stop-color="#ECEDF1"/></linearGradient><linearGradient id="t" x1="1.95" x2="8.008" y1="5.025" y2="5.025" gradientTransform="scale(.76936 1.29978)" gradientUnits="userSpaceOnUse"><stop offset="0%" stop-color="#FFF"/><stop offset="100%" stop-color="#D1D1D1" stop-opacity=".14"/></linearGradient><linearGradient id="u" x1="11.621" x2="14.654" y1="4.514" y2="4.514" gradientTransform="scale(.83095 1.20344)" gradientUnits="userSpaceOnUse"><stop offset="0%"/><stop offset="100%" stop-color="#FFF"/></linearGradient><linearGradient id="v" x1="8.414" x2="13.673" y1="4.107" y2="4.107" gradientTransform="scale(.75593 1.32288)" gradientUnits="userSpaceOnUse"><stop offset="0%" stop-color="#FFF"/><stop offset="100%"/></linearGradient><linearGradient id="w" x1="5.361" x2="5.361" y1="5.181" y2="3.08" gradientTransform="scale(1.294 .7728)" gradientUnits="userSpaceOnUse"><stop offset="0%" stop-color="#D4D5DD" stop-opacity="0"/><stop offset="100%" stop-color="#585964"/></linearGradient><path id="q" d="M6.627.007h6.617c.17.016.256.141.256.377 0 .354-.531.414-.531.794 0 .381.531.24.531.738 0 .499-.531.39-.531.744 0 .355.531.215.531.697s-.531.382-.531.723c0 .34.531.275.531.75 0 .476-.706.636-.706.802 0 .165.175.25.175.756 0 .507-.954.514-1.478.814-.349.2-.633.436-.854.708H2.376c-.271-.298-.52-.512-.748-.641C1.288 7.074.2 7.094.2 6.64c0-.302.064-.512.192-.628C.131 6.002 0 5.845 0 5.539c0-.46.531-.413.531-.794 0-.38-.531-.196-.531-.737 0-.542.531-.39.531-.745C.531 2.91 0 3.043 0 2.57s.531-.385.531-.725c0-.34-.531-.193-.531-.722C0 .594.531.594.531.381V0h6.096Z"/></defs><g fill="none" fill-rule="evenodd"><path d="M1.6 1.6h48v48h-48z"/><path fill="url(#a)" fill-rule="nonzero" d="M30.563 15.75c0 8.18-6.633 14.813-14.814 14.813C7.569 30.563.937 23.93.937 15.75.938 7.57 7.57.937 15.75.937S30.562 7.57 30.562 15.75z" style="fill:url(#a)" transform="translate(9.85 4.412)"/><g fill-rule="nonzero"><path fill="#5b1618" d="M19.607 9.15c.116-.023.093-.023.23-.046.138-.023.277-.07.277-.07l.137-.092.07-.116v-.208l.253-.162.023.162h.16v-.116l.116-.185.253-.185.23-.139.115-.023.069-.116-.115-.046.184-.07.115-.023-.115-.115.092-.092s.138-.07.207-.093c.069-.023.184-.047.253-.07.069-.023.253-.07.253-.07l.115-.022c-.575 0-.621 0-.713.07-.092.069.207.045-.207.092l-.414.046c.207-.093.39-.162.39-.162l-.068-.139s-.207-.023-.276 0c-.07.023-.023 0-.23.046-.207.046-.322.024-.414.07-.092.046-.069.092-.207.116-.138.023-.046.023-.253.069-.207.046-.23.046-.368.07a3.763 3.763 0 0 1-.414.046.97.97 0 0 0-.253.046l-.07.023-.115.024s-.138-.07-.23 0c-.091.069-.183.022-.252.092-.07.07-.07.093-.208.162-.138.07-.138.139-.299.208-.16.07-.23.07-.367.186-.138.115-.254.162-.345.23l-.093.07h.345s.024.093-.068.186l-.093.092.161.162-.183.232-.138.046s-.138.139-.07.162c.07.023.185.023.185.023-.115.07-.437.255-.437.255v.37l-.07.093-.091.093v.185l.299.138.183-.046.322-.323.3-.209.253-.185s.068-.093.184-.139c.115-.046.23-.092.299-.092.069 0 .368-.116.368-.116l.092-.093.046-.092s.046-.07.114-.116l.07-.046.275-.046c0-.002.023.021.138-.002zM14.455 11.272c0 .092.124.092.37 0-.584.558.642-.633.711-.726.069-.092.115-.092.253-.162s.184-.115.299-.208c.115-.093 0 0 .138-.115.138-.116 0 0 .069-.07.07-.07.092-.07.253-.208.161-.14 0 0 .07-.093.068-.092.068-.116.068-.116s.069-.092.115-.162-.046-.092-.046-.092-.18-.145-.249-.145c-.07 0-.087.005-.137.145l-.05.185-.162.023c0-.185-1.84 1.767-1.702 1.744Z"/><path fill="#000" d="M11.747 17.934a.49.49 0 0 0-.006.084c0 .04.003-.006.006-.084z"/><path fill="#5b1618" d="M11.528 17.753c.008-.05.243-.132.259-.259.023-.185.069-.162.138-.463.07-.3.023-.532.115-.648.092-.116.114-.07.207-.208.092-.14.069-.14.092-.232.023-.092.023-.115.046-.23.022-.117.069-.14.16-.279.093-.139.138-.162.185-.255.045-.092.045-.138.069-.208.023-.07.092-.115.16-.208.07-.092.07-.093.116-.162.046-.07.069-.116.115-.186.046-.069.184-.207.253-.3.07-.093.046-.116.046-.116l.023-.092c-.023.092.115.046.115.046s.138-.162.46-.37c.322-.209.069-.116.069-.116l-.207.093c-.207.092-.161 0-.161 0 .13-.23.176-.331.138-.302-.116.09-.375.232-.437.232-.092 0 0 0 .023-.116.023-.115.069-.162.16-.254.092-.093.092-.093.254-.163.161-.069.138-.069.299-.162.161-.092.091-.092.299-.092 0 0 .023.115.023.185 0 .07-.161.07-.161.07l-.092.23.552.07s.023-.092.137-.185c.116-.092.138-.162.138-.231 0-.07-.091-.023-.091-.023l-.368-.023s.137-.093.23-.162c.091-.07.091-.14.114-.209.024-.07.092-.115.185-.162.091-.046.114-.138.114-.138s-.275 0-.368-.07c-.092-.07.138-.046.138-.046s-.138-.047-.207-.14c-.069-.092 0-.115.07-.254.068-.139.068-.116.16-.3 0 0-.206.115-.299.045-.092-.07-.095-.041-.095-.111 0-.043-.133.049-.18.065a.951.951 0 0 0-.3.162c-.069.07-.045.162-.045.162v.324c0 .162.046.185.069.255.023.07-.138.07-.138.07s-.184.162-.276.23c-.092.07-.207.186-.207.186s-.092.115-.161.185a.39.39 0 0 0-.092.162l-.207.208c-.07.07-.483.833-.552.857-.069.023-.451.594-.468.648-.179.566-.401.878-.53 1.322a5.69 5.69 0 0 0-.186.946v.174s.103.396.097.548zM17.13 31.047c-.068-.024-.154-.14-.154-.14s-.168.007-.053.007h.115l.069-.116s-.208-.115-.277-.162c-.069-.047-.23-.162-.23-.162s-.022-.07-.068-.14c-.046-.069-.023-.069-.162-.161l-.137-.093.437.231.16.023.139-.07-.046-.092s-.138-.046-.161-.138c-.023-.093 0 .046-.023-.093s-.07-.116-.07-.231c0-.116-.045-.139-.045-.255 0-.116-.023-.092-.046-.208-.023-.116-.092-.208-.092-.208s.023.022-.07-.093c-.091-.116-.137-.139-.137-.208 0-.07-.092-.116.022-.209.116-.092-.022-.023.116-.092.138-.07.207-.07.276-.093l.069-.023s.069-.139.092-.208c.023-.07 0-.231 0-.231s-.092-.023-.092-.116-.046-.185-.023-.278c.023-.092 0-.116-.023-.231-.023-.116-.092-.116-.115-.208-.023-.093-.092-.07-.092-.186 0-.115-.046-.138-.07-.23-.022-.094-.045-.14-.045-.232 0-.093-.046-.116 0-.232.046-.115 0-.162.07-.23.068-.07.16-.14.183-.279.023-.138.07-.138.046-.254-.023-.116 0-.07-.115-.186-.115-.115-.115-.07-.138-.208l-.046-.278-.092-.023s-.069.023-.138-.023c-.07-.046-.07 0-.16-.115-.093-.116-.024.046-.093-.116l-.07-.162-.137-.139s-.023-.023-.092 0-.253.046-.253.046l-.115-.07-.069.093-.115.093s-.115-.07-.069-.162l.046-.093s0-.139-.092-.162l-.092-.023-.23-.093-.184.232c-.138.07-.276.046-.253-.047.023-.092.115-.185.115-.185l.092-.07s.138-.138.045-.138c-.091 0-.091-.046-.183.023-.092.07-.115.07-.184.07-.07 0-.093-.024-.07-.116.024-.093 0-.07.047-.185.045-.116.068-.139.045-.208-.023-.07.138.046-.023-.07-.16-.116-.206-.139-.206-.231 0-.093.138-.07-.023-.209-.161-.138-.185-.138-.254-.185-.068-.046-.16-.092-.16-.092s-.024.046-.116-.024c-.092-.069-.299-.208-.345-.323-.046-.116-.023-.093-.069-.232-.046-.139.046-.185-.069-.254-.115-.07-.115-.023-.207-.139l-.092-.116-.161.185c-.07-.069.023.07-.07-.069l-.091-.139-.184-.162s-.046.046-.046.162V21.611s0 .185-.092 0-.138-.255-.115-.325c.023-.069.069-.184.069-.184-.184.162-.115.763-.115.763-.092-.162.054-.113-.092-.162-.258-.086-.364-1.035-.408-1.739.018.392.04.827.063 1.021.046.394.207.973.207.973l.299.462s-.023.51 0 .58c.023.068.115.184.115.254s.046.185.046.185v.162l.023.208s0-.07.023.186c.023.254.046.23.069.347.023.116.023.231.046.348.023.115.092.185.115.277.023.093.896 1.574.896 1.574l.392.487s.23.254.276.347c.046.092.16.255.23.324.068.07.183.231.253.37.069.14.114.185.138.347-.038-.272-.012 1.088 2.306 2.562.001-.003.48.092.41.069z"/><path fill="#000" d="M11.425 20.192c-.018-.404-.03-.761-.03-.761s.004.335.03.76z"/><path fill="#5b1618" d="m26.347 7.752.173-.034.207-.174.172-.035.207.07.207.104h.172l-.172-.173-.138-.07.066-.044c-.483-.104-.383-.116-.383-.116l-.272-.038-.239.094c-.172-.104-.38.139-.38.139l.242.139zM22.345 10.496c-.173.07 0 .173 0 .173s.207.243.207.382.138.104.138.104l.103.209.138.138s-.31.105-.38.243l.173.14s-.31.104-.38.207c-.069.105.138.035.346.035.207 0 0 0 .103-.07.104-.069.242-.242.242-.242s.241.07.345.07c.104 0 .38-.07.38-.07l.103-.174.104-.173s-.173-.035-.276-.035c-.104 0-.173-.104-.173-.104l-.034-.209-.173-.104-.138-.07-.034-.173-.07-.173.104-.348-.138.07-.138.138-.31.105s-.07-.139-.242-.07z"/><path fill="#5b1618" d="m21.758 11.329-.103.173c-.035.208-.035.347-.035.347l.172-.07.45-.207h.137l.034-.209v-.208l.139-.104c-.208.07-.38.243-.38.243zM21.088 9.206l-.241.07-.38.104-.276-.035-.103.139.103.138.104.139h.276l.38-.07.31-.069.173-.034.103-.174s-.242-.208-.345-.208c-.104 0 .138-.07-.104 0zM32.182 27.231l-.206.139-.173.138-.172.105-.07.173v.486l-.137.174-.207.139-.172.138-.07.174v.347c.208.035.414-.035.414-.035l.277-.173.034-.278.242-.243.138-.243s.137-.174.241-.313c.104-.138.172-.312.172-.312l.138-.174.07-.139s.035-.104.035-.277v-.174l-.415.174z"/><path fill="#000" d="M34.281 21.056c.015-.004.01-.003 0 0zM34.281 21.056l.002-.005c-.05.017-.019.009-.002.005z"/><path fill="#5b1618" d="m34.154 8.78-.278.035.415.383.208.139s-.104.208-.208.139c-.104-.07-.104-.244-.276-.279l-.173-.035-.45-.383.623.696-.208.21-.138-.07c-.173-.209.034 0-.173-.209s0 .313-.207-.209c-.208-.522-.38-.696-.38-.696l-.035.383.276.453-.553-.244-.312-.244s-.323-.076-.41-.115a1.588 1.588 0 0 0-.143-.059c-.104-.035-.277-.139-.277-.139s-.07-.174.035-.174c.104 0 .276-.07.276-.07h.658l-.07-.173-.173-.035h-.138l-.311-.035h-.243l-.31.035-.105.174v.139l.035.173s-.104.105.173.14c.276.034.518.209.518.209l.415.104c-.069.105.139.105-.069.105h-.415l-.138-.035s-.173-.035-.277.035l-.104.07-.173.104c-.138.035-.311 0-.311 0v-.313c-.104-.07-.242-.105-.242-.105l.104.279-.07.035h-.172s.069.07-.035.139c-.104.07-.38.07-.38.07s.207.174.103.174-.277-.07-.277-.07v.139l-.207-.174-.138-.14-.139-.104-.38-.14.795.036h.173l-.104-.174s-.103-.105-.207-.105-.277-.035-.277-.035l-.311-.139-.277-.035-.38-.105h-.173l-.277-.034-.172.07H27.2s-.07-.07-.173 0l-.104.07-.45.069-.242.139s-.104.209-.207.244a2.033 2.033 0 0 0-.312.174s-.069.07-.242.174c-.173.104-.692.139-.692.139s-.207-.105-.311 0a.5.5 0 0 0-.173.383c0 .174.07.313.07.313s-.139.14.172.174c.312.035.589-.139.589-.139s-.243-.313 0-.209c.242.105.172.07.346.279.173.209.104.244.207.383l.104.139s.138.209.242.174c.104-.035.139-.244.139-.244l.242-.035-.035-.417.173-.314h.139l-.07-.174s-.31.07-.242-.034c.07-.105.298-.278.298-.278l.221-.106.034-.382s.034-.105.415.139c.38.243.45.174.45.174s.139.035-.069.14c-.208.104-.346.138-.346.138.07.174-.138.279.07.279.208 0 .343-.236.277-.16-.066.076.036-.07.277 0 .243.07.727.002.831-.068l.069.07-.243.262-.485.14-.173-.036h-.242s-.208.07-.069.14l.138.07.07.208-.139.035-.207.035s-.104.034-.104.173c0 .14-.035-.07 0 .14.035.208.173.139.035.208-.139.07-.346.07-.346.07h-.381l-.346.07s0 .035-.138.035h-.346l-.173-.035s-.104-.14-.207-.07c-.104.07.069.035-.104.07s-.346-.174-.346-.174v-.14s.034-.07.138-.173c.104-.105.207-.244.104-.244-.104 0-.208-.208-.277-.035-.07.174-.104.349-.104.349s-.07.173-.07.278v.105l-.206.105s.138-.07-.242.209c-.381.278-.589.313-.589.313l-.173.139-.345.139-.173.174c-.243.035-.38-.07-.38-.07v.209l-.243-.07-.208-.035s.104.14.242.21l.139.069s.07.07.104.209c.034.139.103.174.103.313s.07 0 0 .139c-.07.14-.242.209-.242.209h-.518l-.45-.07-.242-.035-.104.174s-.035.07 0 .21c.035.138.104-.07.035.277l-.07.349-.277.174s-.103.07.07.174a.662.662 0 0 0 .311.104s.139-.104.242-.104c.104 0 .243-.035.346-.035h.312c.104 0 .311-.14.311-.14l.139-.278.068-.209s.07-.07.174-.104c.104-.035.345-.244.345-.244l.174-.209.069-.278.311-.07h.138s.07.105.173.07c.104-.035.277-.244.277-.244l.138-.243s.138-.14.242 0c.104.139-.069-.105.104.139.173.243.035 0 .173.243l.138.244s.173.104.277.174c.104.07.139.104.242.104.104 0 .311.07.311.07l.243.14.14.305-.07.112.074.07a.346.346 0 0 1 .1-.103c.05-.04.12-.133.207-.28l-.106-.314.21.07.053-.07c.025-.034-.104-.103-.311-.173-.208-.07.07 0-.173-.07-.242-.07-.4-.035-.504-.105-.104-.07-.312-.313-.312-.313s-.172-.209-.069-.244c.104-.034.07-.07.242-.034.173.034.242.07.346.208.104.14 0 .279.173.348.173.07.242.07.415.14s.242.07.346.139l.104.07s.104.07.104.173v.105l-.069.209s-.104.035.069.139l.173.105s.207.07.207.174v.104l.277.035-.034-.243s.069-.175.172-.105l.104.07-.242-.279-.311-.209s.034-.174.311-.174h.277s.138.14.242.105c.104-.035.138-.174.277-.174.138 0 .346.174.346.174-.07-.243-.52-.557-.52-.557s.174-.173.312-.242c.138-.07.277-.384.277-.384l.206-.208c.068-.139.38-.209.38-.104 0 .104.348.312.348.312.161.047.276.035.344-.035.101-.105-.136-.208.037-.208.174 0 .622.034.622.034s.554-.174.035.209c-.52.383-.277.383-.277.383.173.07.415.104.415.104s.173.035.208.174c.035.14-.104.209.035.314.138.104.207.104.172.243-.034.14 0 .14-.172.14-.174 0-.485-.07-.589-.07-.104 0-.242-.07-.242-.07l-.311-.278h-.173l-.207.069-.208.07h-.173s.034.139-.104.139h-.277l-.034.209s-.035.07-.139.07h-.484s-.104.104 0 .173l.104.07.207.105.07.174c.138.104-.035.07.138.104.173.035.311.105.311.105h.208l.138-.244.173.21s0 .069.173.104l.173.034.035-.173h.242l.173.104.07.209-.07.209-.035.208s.035.14-.035.244c-.069.105-.241.209-.241.209-.52-.174-.208.07-.208.07l-.311-.244s-.07-.105-.139 0l-.069.104s.07.175-.069.21a.597.597 0 0 1-.175.006l-.033.132-.104.14-.173.313-.138-.035-.45-.104s.139-.14.243-.174c.103-.035.207-.035.346-.105.138-.07.034-.209.034-.209l-.138-.139-.346-.14-.104.21s-.311-.035-.415-.07c-.104-.035-.242-.14-.242-.14l-.277-.312-.07.243-.103.14-.034.138v.209l-.208.035-.207-.14-.139-.104-.207.07-.208.035s-.207 0-.207-.105.034-.244.034-.244l-.173-.034h-.172c-.208 0-.519-.105-.519-.105L25.3 15.6v-.243l.173-.244-.208-.243s-.138-.105-.242-.07c-.104.035.138-.035-.104.035s-.484.07-.484.07h-.138l-.208-.035h-.138c-.208.034-.415.208-.52.243-.103.035-.38.07-.38.07s-.069.035-.173.07c-.103.034-.311.034-.311.034l-.208.036-.346-.07-.138-.105v-.243c-.104.105-.208.313-.208.313l-.104.21-.138.069-.173.104-.208.105-.104.174-.034.243-.07.244-.034.279-.277.209c-.138.139.07.07-.138.139l-.208.07-.138.138-.07.244-.207.14-.138.069v.417l-.311.174s-.139.035-.139.14v.104l.035.209.07.14.034.208.034.174.035.139v.591s.173.14 0 .21l-.173.069-.138.104.034.14.104.139.07.173.104.244.207.07s-.034.174.07.279c.103.104.207.243.207.243l.242.209.104.139.138.174s0 .07.104.244a.64.64 0 0 0 .311.243l.312.105.138.104s.103.14.173.035c.069-.104.207-.278.207-.278l.208-.035h.346s.034-.035.138 0l.104.035s.346.139.45.104c.103-.034.276-.209.276-.209l.138-.07h.381l.208.07s.173.035.276.14l.104.104s.173.209.277.174c.104-.035.242-.07.242-.07s.208-.173.311.14c.104.313.104.139.104.313v.174s-.138.139-.138.243v.105l-.035.244v.139s.07-.035.139.139l.07.174.207.417.242.279.138.243v.21s.035.07 0 .173l-.035.105-.069.174.07.139.034.174c0 .208-.035.348-.035.348l-.034.209s0 .174-.034.278c-.035.105-.035.174-.07.314-.034.139-.034.139-.034.313v.174s.311.139.311.243c0 .105-.104 0 .035.349.138.348.069.139.138.348.07.209.035.348.035.348s-.035.105-.035.209c0 .105.035.209.104.348.07.14.277.279.277.279.034.244.103 0 .034.244-.069.243-.207.243-.104.383.104.139.242.243.242.243s.105.14.208.07l.104-.07.45-.07h.312l.172-.034.242-.14s.069-.139.173-.174l.104-.035s.173-.034.277-.104l.104-.07.138-.243.242-.522.035-.244.242-.07.173-.07.172-.278.035-.244v-.139s-.104 0 0-.139c.104-.14.173-.244.312-.279l.138-.034s.138-.314.242-.314h.104s.034-.174.208-.243l.172-.07.139-.279.034-.243v-.21c0-.138.035-.347.035-.347l.035-.174s-.035-.105-.035-.244v-.279c0-.104.07-.243.07-.243l-.035-.14s-.07 0-.035-.138c.035-.14 0-.279.208-.487.208-.21.173-.418.311-.523.138-.104.208-.244.312-.278.104-.035.069-.14.206-.21.14-.069.485-.278.485-.278s.138-.07.173-.174c.035-.104 0-.173.173-.348l.415-.417s.104-.07.138-.244c.035-.174.104-.244.173-.453.07-.208.104-.313.138-.452.032-.124.062-.248.068-.273l-.102.03-.243.069-.207.07s-.034.035-.173.105c-.138.069-.243.069-.311.173-.07.105-.243.105-.243.105l-.138-.14-.173-.104-.07-.139-.241-.174-.173-.07-.173-.383c-.105.105 0 .279-.105.105-.103-.174-.069-.174-.138-.314-.07-.138-.172-.278-.172-.278V19.71l-.243-.314s-.138-.173-.104-.278c.035-.105-.034-.314-.034-.314s.034-.07-.035-.174c-.07-.104-.173-.243-.173-.243v-.174c0-.105 0-.174-.07-.279-.068-.104.07.14-.068-.104s-.138-.21-.277-.349c-.138-.139-.07.07-.138-.139-.07-.208-.173-.383-.173-.383l-.069-.174.07-.243.345.21v-.14c.138.139.07 0 .07 0l.103.208.173-.104c0 .104-.139.104 0 .243.138.14.173.174.277.314.104.14.276.243.276.243s.173.14.208.279a4.5 4.5 0 0 1 .069.313c.035.174.104.313.173.418.07.104.173.07.242.208.07.14.07.21.104.314.035.104-.069.279.07.452.137.174-.035-.104.137.174.173.279-.015.383-.015.523 0 .139.07.556.07.556s.034.279.138.14l.104-.14s.035-.104.276-.278c.243-.174.707-.278.811-.313.104-.035.38-.105.38-.105s.278-.07.347-.209l.173-.348.242-.139s.311 0 .311-.139c0-.14.035-.383.035-.383l.104-.209s.312-.139.07-.313c-.243-.174-.036-.174-.243-.174s-.346-.07-.346-.07.173-.313 0-.174c-.173.14-.277.279-.277.279-.104-.035-.276-.14-.276-.14l-.139-.278-.173.383-.207-.348.069-.279s-.035-.034-.07-.174c-.034-.139.173.105-.034-.139-.207-.243-.242-.243-.38-.348-.14-.104-.243-.278-.243-.278l.277-.174.138-.105.312.209s.242.209.276.313c.035.105.173.21.173.21l.277.069.242-.035s.138-.174.242-.174c.104 0 0-.243.104 0 .104.244.173.452.173.452s.139.14.242.14H36.473s.173-.14.173.07v.417c0 .139-.242-.14 0 .139l.242.279s.07.104.07.208v.105l.207.14.104-.175s-.035-.313.035-.209c.069.105.104.314.104.314s-.122.244-.052.453c.069.208.198.208.232.451.033.232.148.294.068.665-.004.019.006.083 0 .104-.117.42 0 .727-.104.937-.105.211.088 1.047.185 1.114.097.067.468-1.01.468-1.462 0-.485.216-.662.306-.975.065-.228-.008-.3.066-.459.07-.147.198-.173.217-.202.009-.013.138-.237.187-.426.01-.033.249-.302.32-.13.134.323-.005.19.142.758.025.097-.064.258 0 .67.011.073.176.12.19.207.091.548-.126 1.41-.377 2.542-.037.163-.207-.306-.223-.14-.109 1.098-.098 1.539-.052 1.67.132.372.745-1.322 1-3.132.16-1.132 0-2.369 0-2.4 0-.105.716-4.701-5.827-10.234zm-7.646 12.08-.172.034-.312-.035-.103-.174-.105-.139v-.278l.347.174.172.173.139.07s.208.14.034.174zm4.463 2.331s-.035-.208-.035-.348c0-.139.07-.174.07-.174l.31.244v.418c0 .07 0 0-.31 0-.312 0 0 0-.035-.14zm-6.143-9.598s-.076.032-.076.016-.018-.077-.018-.1a.037.037 0 0 0-.035-.037c-.016 0 .008-.038.035-.07a.408.408 0 0 1 .094-.076c.03-.017.057-.003.057.036 0 .04.014.098 0 .147a.187.187 0 0 1-.057.084zm13.277 8.82c.036-.012.058-.006.064.018.02.076 0 .239 0 .28 0 .093-.12.298-.208.213-.058-.056-.01-.227.144-.511zM24.67 13.758c.018.02.037.03.057.03.03 0 .05-.041.065-.059.014-.017.046-.045.066-.031.02.014.064.09.064.09s.034.05.017.09c-.017.04-.03.046-.03.08 0 .035.03.082.03.1a.315.315 0 0 1-.017.108c-.013.024-.07.023-.115.045s-.058.071-.08.071c-.021 0-.057-.037-.057-.116 0-.079.057-.149.057-.178 0-.03-.043-.072-.057-.11a.25.25 0 0 1 0-.12zm5.09 12.288-.138.139s-.07-.139-.173-.278c-.104-.14-.138-.349-.207-.488-.07-.139-.07-.592-.07-.592v-.417l.346.278v.244l.07.244s0 .278.104.487c.104.209 0 0 .172.174.173.174-.104.209-.104.209zm.311-2.262s.139-.07.173-.175c.035-.104.243 0 .243 0l.207.07.035.209-.035.209s-.139.209-.242.279c-.104.069-.242.139-.242.139s-.243 0-.38-.035l-.035-.174zm3.875-9.121.034.174s.104.139.035.348c0 0-.208 0-.519-.07-.311-.07-.277-.208-.311-.313-.035-.105-.208-.209-.208-.209l-.104-.243h.173s.138 0 .243-.174c0 0-.139-.105-.243-.21-.103-.104-.138-.208-.242-.382-.104-.174-.519-.383-.519-.383l-.172-.313s.207-.07.31-.07c.105 0 0-.14 0-.14s-.414-.034-.518-.208c-.104-.174.104-.14.104-.14l.277.036.346.139-.208-.209.347.105.241.035.104-.035.035.208.138-.034.173.104.138.07.242.244s-.07.173-.242.278l-.069.14s-.173 0-.38.034l.138.14.242.243v.14c0 .138.242-.036.242-.036l.138.035v.174l-.104.174-.104.07s.208 0 .416.07zm1.176-1.358-.207.349s-.173 0-.38-.105c-.209-.105-.209-.174-.209-.174l.035-.174h.138l.07-.104c.069-.105.103-.174.103-.174s.139-.244.243-.244c.103 0 0 .174 0 .174v.209l.242.104zm-8.74 1.064-.044.15-.069.158-.09.105-.203-.222.035-.077h.208z"/><path fill="#000" d="m39.666 23.273-.002.007c.002.003.002-.007.002-.007zM39.842 22.219c-.037.36-.073.776-.073.776s.06-.463.073-.776z"/></g><path fill="url(#b)" fill-rule="nonzero" d="M8.767 2.18c.115-.024.092-.024.23-.047s.276-.07.276-.07l.138-.093.07-.117v-.21l.252-.163.023.163h.161v-.116l.115-.187.253-.187.23-.14.115-.023.069-.116-.115-.047.184-.07.115-.023-.115-.117.092-.093s.138-.07.207-.094c.069-.023.184-.046.253-.07.069-.023.253-.07.253-.07l.115-.023c-.575 0-.621 0-.713.07-.092.07.207.046-.207.093l-.414.047c.207-.093.391-.164.391-.164l-.069-.14s-.207-.023-.276 0c-.069.023-.023 0-.23.047-.207.047-.322.024-.414.07-.092.047-.07.093-.207.117-.138.023-.046.023-.253.07-.207.046-.23.046-.368.07a3.717 3.717 0 0 1-.414.047.968.968 0 0 0-.253.046l-.07.024-.115.023s-.137-.07-.23 0c-.091.07-.183.023-.252.093-.07.07-.07.093-.207.164-.138.07-.138.14-.3.21-.16.07-.23.07-.367.186-.139.117-.254.163-.346.233l-.091.07h.345s.023.093-.07.187l-.091.093.16.164-.183.233-.138.046s-.138.14-.07.164c.07.023.185.023.185.023-.115.07-.438.257-.438.257v.373l-.069.093-.092.094v.186l.3.14.183-.046.322-.327.3-.21.253-.186s.068-.094.184-.14c.115-.047.23-.093.298-.093.07 0 .369-.117.369-.117l.091-.093.047-.094s.045-.07.114-.116l.07-.047.275-.046c.001-.001.024.022.14-.001z" style="fill:url(#b)" transform="translate(10.6 6.91)"/><path fill="url(#c)" fill-rule="nonzero" d="M3.374 4.585c-.432.527.5-.24.546-.147l.591-.719s.115-.116.185-.21c.068-.093.114-.093.253-.163.137-.07.184-.117.298-.21.116-.094 0 0 .138-.117.138-.116 0 0 .07-.07.069-.07.092-.07.253-.21.16-.14 0 0 .069-.093s.069-.117.069-.117.069-.093.115-.163-.046-.093-.046-.093-.115.07-.184.07c-.07 0-.115.07-.115.07l-.138.046-.16.024c-.206.046-1.287 1.154-1.944 2.102Z" style="fill:url(#c)" transform="translate(10.6 6.91)"/><path fill="url(#d)" fill-rule="nonzero" d="M.907 10.867a.48.48 0 0 0-.007.085c0 .039.003-.007.007-.085z" style="fill:url(#d)" transform="translate(10.6 6.91)"/><path fill="url(#e)" fill-rule="nonzero" d="M.907 10.867c.008-.05.024-.09.04-.219.022-.186.068-.163.137-.466.07-.303.023-.537.115-.654.092-.116.115-.07.208-.21.092-.14.068-.14.091-.233.024-.093.024-.116.047-.233.022-.116.068-.14.16-.28.093-.14.138-.163.184-.256.046-.094.046-.14.07-.21.023-.07.091-.117.16-.21.07-.093.07-.094.116-.164s.069-.116.115-.186c.045-.07.184-.21.253-.304.069-.093.046-.116.046-.116l.022-.093c-.022.093.115.046.115.046s.138-.163.46-.373.07-.117.07-.117l-.207.094c-.208.093-.162 0-.162 0l.23-.467-.069.093s-.04.034-.097.078c-.116.09-.271-.054-.18-.148.093-.093.093-.093.254-.163.16-.07.138-.07.299-.164.16-.093.092-.093.3-.093 0 0 .022.117.022.187 0 .07-.161.07-.161.07l-.092.233.552.07s.023-.093.138-.187c.115-.093.138-.163.138-.233s-.092-.023-.092-.023l-.369-.023s.138-.093.23-.164c.092-.07.092-.14.115-.21.023-.07.092-.116.184-.163.092-.046.115-.14.115-.14s-.276 0-.368-.07c-.092-.07.138-.046.138-.046s-.138-.047-.207-.14c-.069-.093 0-.117.07-.257.069-.14.069-.117.16-.303 0 0-.206.116-.298.047-.092-.07 0 0 0-.07 0-.044-.228.007-.276.023a.947.947 0 0 0-.3.163c-.068.07-.07.094-.298.397-.23.303-.895 1.362-1.039 1.61-.76 1.306-.97 2.491-1.1 2.938-.143.496-.161 1.028-.161 1.028l.138-.117-.016.428z" style="fill:url(#e)" transform="translate(10.6 6.91)"/><path fill="url(#f)" fill-rule="nonzero" d="M6.336 24.342v-.14l-.115-.093s-.092-.024-.161-.047c-.07-.023-.162-.07-.162-.07s.07-.047.185-.047h.114l.07-.116s-.208-.116-.277-.164c-.069-.046-.23-.163-.23-.163s-.022-.07-.068-.14c-.046-.07-.023-.07-.162-.163l-.138-.094.437.234.161.023.138-.07-.046-.093s-.138-.047-.161-.14c-.023-.094 0 .046-.023-.094s-.069-.116-.069-.233c0-.116-.046-.14-.046-.257 0-.116-.023-.093-.045-.21-.023-.116-.092-.21-.092-.21s.023.024-.07-.093c-.091-.116-.137-.14-.137-.21 0-.07-.092-.116.023-.21.115-.093-.023-.023.115-.093s.207-.07.276-.093l.069-.023s.07-.14.092-.21c.023-.07 0-.233 0-.233s-.092-.023-.092-.117c0-.093-.046-.187-.023-.28.023-.093 0-.116-.023-.233s-.092-.117-.115-.21c-.023-.093-.092-.07-.092-.187 0-.116-.046-.14-.069-.233-.023-.093-.046-.14-.046-.233s-.045-.117 0-.233c.046-.116 0-.163.07-.233.069-.07.16-.14.183-.28.023-.14.07-.14.046-.257-.023-.117 0-.07-.115-.187-.115-.116-.115-.07-.138-.21l-.045-.28-.093-.023s-.068.023-.137-.023c-.07-.046-.07 0-.162-.116-.091-.117-.023.046-.091-.117l-.07-.163-.137-.14s-.023-.024-.093 0c-.068.023-.252.046-.252.046l-.115-.07-.07.093-.115.094s-.115-.07-.069-.164l.046-.093s0-.14-.092-.163l-.092-.024-.23-.093-.184.233c-.138.07-.275.047-.252-.046.022-.094.114-.187.114-.187l.092-.07s.138-.14.046-.14c-.092 0-.092-.047-.184.023-.091.07-.115.07-.183.07-.07 0-.093-.023-.07-.116.023-.093 0-.07.046-.187.046-.116.07-.14.046-.21-.023-.07.138.047-.023-.07-.16-.116-.207-.14-.207-.233s.138-.07-.023-.21c-.16-.14-.184-.14-.253-.187-.069-.046-.161-.093-.161-.093s-.023.047-.115-.023-.299-.21-.345-.327c-.046-.116-.023-.093-.07-.233-.045-.14.047-.186-.068-.256s-.115-.024-.208-.14l-.091-.117-.161.187c-.07-.07.023.07-.07-.07l-.091-.14-.184-.163s-.046.046-.046.163V14.57s0 .187-.092 0c-.092-.186-.138-.257-.115-.326.023-.07.069-.187.069-.187-.184.163-.115.77-.115.77-.092-.164.054-.114-.092-.164-.258-.087-.364-1.043-.407-1.752.017.395.04.834.062 1.03.046.396.207.979.207.979l.299.466s-.023.513 0 .584c.023.07.115.186.115.256s.046.187.046.187v.163l.023.21s0-.07.023.187.046.233.07.35c.022.117.022.233.045.35.023.117.092.187.115.28.023.093.897 1.587.897 1.587l.391.49s.23.257.276.35c.046.093.161.257.23.326.07.07.184.233.253.374.07.14.115.186.138.35.023.163.822 1.35 1.473 2.06z" style="fill:url(#f)" transform="translate(10.6 6.91)"/><path fill="url(#g)" fill-rule="nonzero" d="M.585 13.142c-.018-.407-.03-.767-.03-.767s.004.338.03.767z" style="fill:url(#g)" transform="translate(10.6 6.91)"/><path fill="url(#h)" fill-rule="nonzero" d="m15.507.605.172-.035.207-.175.172-.035.207.07.208.105h.172L16.473.36l-.138-.07h.31c-.483-.105-.62-.105-.62-.105l-.277.035-.206.105c-.173-.105-.415 0-.415 0l.242.14z" style="fill:url(#h)" transform="translate(10.6 6.91)"/><path fill="#f07467" fill-rule="nonzero" d="M22.105 10.279c-.173.07 0 .175 0 .175s.206.244.206.385c0 .14.138.105.138.105l.104.21.138.14s-.31.105-.38.245l.173.14s-.31.104-.38.21c-.07.104.138.034.345.034.207 0 0 0 .104-.07s.241-.245.241-.245.242.07.345.07c.104 0 .38-.07.38-.07l.104-.175.103-.174s-.172-.036-.276-.036c-.103 0-.172-.105-.172-.105l-.035-.21-.172-.105-.138-.07-.034-.175-.07-.174.104-.35-.138.07-.137.14-.31.105c-.002 0-.071-.14-.243-.07z"/><path fill="#f07467" fill-rule="nonzero" d="m21.518 11.119-.104.174c-.034.21-.034.35-.034.35l.172-.07.449-.21h.138l.034-.21v-.21l.138-.104c-.207.07-.38.245-.38.245Z"/><path fill="url(#i)" fill-rule="nonzero" d="m10.332 2.145-.242.07-.38.105-.276-.035-.104.14.104.14.104.14h.275l.38-.07.31-.07.173-.036.104-.174s-.242-.21-.346-.21c-.102 0 .139-.07-.102 0z" style="fill:url(#i)" transform="translate(10.6 6.91)"/><path fill="#970000" fill-rule="nonzero" d="m32.317 27.146-.206.14-.173.14-.173.105-.069.175v.49l-.137.174-.207.14-.173.14-.069.175v.35c.208.035.414-.036.414-.036l.276-.174.035-.28.241-.245.138-.245s.138-.175.242-.315c.103-.14.172-.315.172-.315l.138-.175.069-.14s.035-.105.035-.28v-.175l-.414.175z"/><path fill="url(#j)" fill-rule="nonzero" d="M23.441 14.012c.015-.003.01-.002 0 0z" style="fill:url(#j)" transform="translate(10.6 6.91)"/><path fill="url(#k)" fill-rule="nonzero" d="m23.441 14.012.001-.004c-.05.017-.018.009 0 .004z" style="fill:url(#k)" transform="translate(10.6 6.91)"/><path fill="url(#l)" fill-rule="nonzero" d="m15.782 7.337-.044.15-.069.159-.09.105-.203-.223.035-.077h.208zm7.833-5.717-.276.035.414.385.207.14s-.103.21-.207.14c-.103-.07-.103-.245-.276-.28l-.172-.035-.449-.386.622.7-.208.21-.138-.07c-.172-.21.035 0-.172-.21s0 .315-.207-.21-.38-.7-.38-.7l-.034.385.276.455-.552-.245-.31-.245s-.324-.076-.41-.115a1.706 1.706 0 0 0-.143-.06c-.104-.035-.276-.14-.276-.14s-.07-.174.035-.174c.103 0 .276-.07.276-.07h.655l-.07-.175L21.65.92h-.138L21.2.885h-.241l-.311.035-.104.175v.14l.035.175s-.104.105.172.14c.276.035.518.21.518.21l.413.105c-.069.105.138.105-.069.105H21.2l-.137-.035s-.173-.035-.277.035l-.103.07-.173.105c-.138.035-.31 0-.31 0V1.83c-.104-.07-.242-.106-.242-.106l.104.28-.07.036h-.171s.069.07-.035.14c-.104.07-.38.07-.38.07s.207.174.104.174-.276-.07-.276-.07v.14l-.207-.175-.138-.14-.138-.104-.38-.14.794.035h.173l-.104-.175s-.103-.105-.207-.105-.276-.035-.276-.035l-.31-.14-.276-.035-.38-.105h-.173l-.275-.035-.173.07h-.483s-.07-.07-.172 0l-.104.07-.449.07-.241.14s-.104.21-.207.245-.31.175-.31.175-.07.07-.242.174c-.173.106-.69.14-.69.14s-.207-.105-.31 0a.503.503 0 0 0-.173.385c0 .175.07.315.07.315s-.139.14.171.175c.31.035.587-.14.587-.14s-.241-.315 0-.21c.241.105.172.07.345.28.173.21.104.245.207.385l.104.14s.138.21.241.175c.104-.035.138-.245.138-.245l.242-.035-.035-.42.173-.315h.138l-.07-.175s-.31.07-.241-.035c.07-.105.345-.245.345-.245l-.034-.365c-.034-.085.034-.28.31-.14.277.14.138.105.138.105s.38.21.173.315c-.207.105-.034.33-.034.33 0 .28-.138.175.069.175.207 0 .173-.105.276-.14.103-.035-.035-.07.206 0 .242.07.608 0 .745 0 .092 0 .121-.01.088-.03l.227.144-.42.128-.467.038h-.242s-.068.07-.241.14c-.173.071.05.246-.093.28-.143.034-.486 0-.452.21.024.14.033.291.028.454h-.242l-.346.07s0 .035-.138.035h-.345l-.172-.035s-.104-.14-.207-.07.069.035-.104.07c-.172.035-.345-.175-.345-.175v-.14s.034-.07.138-.174c.104-.105.207-.245.104-.245-.104 0-.207-.21-.276-.035-.07.174-.104.35-.104.35s-.069.175-.069.28v.105l-.207.105s.138-.07-.242.21-.586.315-.586.315l-.173.14-.345.14-.172.175c-.242.035-.38-.07-.38-.07v.21l-.241-.07-.207-.036s.104.14.241.21l.138.07s.07.07.104.21c.034.14.104.175.104.315s.069 0 0 .14c-.07.14-.242.21-.242.21h-.518l-.448-.07-.242-.035-.103.175s-.035.07 0 .21c.034.14.103-.07.034.28l-.068.35-.277.175s-.103.07.07.174c.172.106.31.106.31.106s.138-.106.242-.106c.103 0 .241-.035.345-.035h.31c.104 0 .31-.14.31-.14l.139-.28.069-.21s.069-.07.172-.105c.104-.035.345-.244.345-.244l.173-.21.07-.28.31-.07h.137s.07.105.173.07c.104-.035.276-.245.276-.245l.138-.245s.137-.14.242 0c.103.14-.07-.106.103.14.173.244.035 0 .173.244l.137.245s.173.106.276.175c.104.07.139.105.242.105.104 0 .31.07.31.07l.242.14.104.21-.069.155-.07.151.035.07.138-.131.147-.21-.058-.15.058-.165.208.096.035-.07s-.1-.07-.173-.114c-.053-.031-.066-.032-.138-.06-.173-.07.094-.026-.148-.097-.241-.07-.345-.174-.448-.244-.104-.07-.31-.315-.31-.315s-.173-.21-.07-.245c.104-.035.07-.07.242-.035s.241.07.345.21c.103.14 0 .28.172.35.173.07.242.07.414.14.173.07.242.07.345.139l.104.07s.104.07.104.175v.105l-.07.21s-.103.035.07.14l.172.105s.208.07.208.175v.105l.275.035-.034-.245s.069-.175.172-.105l.104.07-.242-.28-.31-.21s.035-.175.31-.175h.276s.138.14.242.106c.103-.035.138-.176.276-.176s.345.176.345.176c-.069-.245-.518-.56-.518-.56s.243-.655.38-.726c.138-.07.276-.244.276-.244l.276-.106s.31.245.31.35c0 .105.346.083.346.083s-.104-.21.069-.21c.172 0 .848-.196.522.223-.326.419.099.385.099.385.172.07.414.105.414.105s.172.035.207.175c.034.14-.104.21.034.315.138.105.207.105.173.245-.035.14 0 .14-.173.14-.172 0-.483-.07-.586-.07-.104 0-.242-.07-.242-.07l-.31-.28h-.174l-.206.07-.208.07h-.172s.034.14-.104.14h-.276l-.034.209s-.034.07-.138.07h-.483s-.104.105 0 .175l.104.07.207.105.069.175c.138.105-.035.07.138.105.172.036.31.105.31.105h.208l.137-.244.173.21s0 .07.172.105l.173.035.034-.175h.242l.172.105.07.21-.07.21-.034.21s.034.14-.034.245a.936.936 0 0 1-.242.21c-.518-.175-.207.07-.207.07l-.31-.245s-.07-.105-.139 0l-.069.105s.07.175-.069.21a.576.576 0 0 1-.174.006l-.033.133-.104.14-.172.315-.138-.035-.448-.105s.138-.14.241-.175c.104-.035.207-.035.345-.105.138-.07.035-.21.035-.21l-.138-.14-.345-.14-.104.21s-.31-.034-.414-.07a1.11 1.11 0 0 1-.241-.14l-.276-.314-.07.245-.103.14-.035.14v.21l-.206.034-.208-.14-.137-.105-.208.07-.206.035s-.208 0-.208-.105.035-.244.035-.244l-.173-.035h-.172c-.207 0-.518-.106-.518-.106l-.172-.105v-.245l.172-.245-.206-.245s-.138-.105-.242-.07c-.104.035.138-.035-.104.035-.241.07-.483.07-.483.07h-.138l-.207-.035h-.138c-.207.035-.414.21-.517.245-.104.035-.38.07-.38.07s-.069.035-.172.07c-.104.035-.31.035-.31.035l-.207.035-.346-.07-.138-.105v-.245c-.104.105-.207.315-.207.315l-.103.21-.138.07-.172.105-.207.105-.104.175-.035.245-.068.245-.035.28-.277.21c-.137.14.07.07-.137.14l-.208.07-.137.14-.07.245-.207.14-.138.07v.419l-.31.176s-.138.035-.138.14v.104l.034.21.07.14.034.21.034.175.035.14v.594s.172.14 0 .21l-.172.07-.138.105.034.14.104.14.069.175.103.245.208.07s-.035.175.069.28c.103.105.207.245.207.245l.241.21.104.14.138.174s0 .07.103.245c.104.175.31.245.31.245l.311.106.139.105s.103.14.172.034c.069-.105.207-.28.207-.28l.207-.034h.345s.035-.035.138 0l.104.035s.345.14.448.105c.103-.035.276-.21.276-.21l.138-.07h.379l.207.07s.173.035.276.14l.104.105s.172.21.276.174c.103-.035.241-.07.241-.07s.207-.174.31.14c.105.315.105.14.105.315v.175s-.138.14-.138.245v.105l-.035.245v.14s.069-.035.138.14l.069.175.207.42.242.28.137.244v.21s.035.07 0 .175l-.034.106-.069.174.069.14.034.175c0 .21-.034.35-.034.35l-.034.21s0 .175-.035.28c-.034.105-.034.175-.069.315s-.035.14-.035.315v.175s.311.14.311.245c0 .105-.104 0 .035.35.137.35.069.14.137.35.07.21.035.35.035.35s-.035.105-.035.21.035.21.104.35c.069.14.276.28.276.28.035.245.104 0 .035.245-.07.245-.208.245-.104.385s.242.245.242.245.103.14.207.07l.103-.07.448-.07h.311l.172-.035.242-.14s.07-.14.172-.175l.104-.035s.173-.035.276-.105l.104-.07.138-.245.24-.525.036-.245.241-.07.172-.07.173-.28.034-.245v-.14s-.103 0 0-.14c.104-.14.173-.245.311-.28l.138-.035s.138-.315.242-.315h.103s.035-.174.207-.245l.173-.07.138-.28.034-.245v-.21c0-.14.035-.35.035-.35l.034-.174s-.034-.106-.034-.245v-.28c0-.106.069-.245.069-.245l-.035-.14s-.069 0-.034-.14c.034-.14 0-.28.207-.49.207-.21.172-.42.31-.525.138-.105.207-.245.31-.28.105-.035.07-.14.208-.21.138-.07.483-.28.483-.28s.138-.07.172-.175c.035-.105 0-.174.173-.35l.414-.42s.103-.07.138-.244c.034-.175.103-.245.172-.455.069-.21.104-.315.138-.455l.068-.275-.103.03-.24.07-.208.07s-.035.035-.173.105c-.138.07-.241.07-.31.175-.07.105-.241.105-.241.105l-.138-.14-.173-.105-.07-.14-.24-.174-.173-.07a.814.814 0 0 1-.257-.28c-.083-.157-.088-.175-.157-.315-.07-.14-.173-.28-.173-.28v-.455l-.186-.247s-.193-.243-.159-.348c.035-.105-.034-.315-.034-.315s.034-.07-.035-.175c-.069-.105-.172-.245-.172-.245v-.175c0-.105 0-.175-.07-.28-.068-.105.07.14-.068-.105s-.138-.21-.276-.35c-.138-.14-.07.07-.138-.14a2.24 2.24 0 0 0-.173-.385l-.31-.56.449.356-.035-.245.241.035c.138.14.07.064.07.064l.103.21.173-.105c0 .105-.138.105 0 .245.137.14.172.175.275.315.104.14.276.245.276.245s.173.14.207.28c.035.14.035.14.07.315.034.175.103.315.172.42.069.105.172.07.241.21.07.14.07.21.104.315.034.105-.07.28.069.454.138.175-.035-.105.138.175.172.28-.015.573-.015.713s.069.56.069.56.034.28.138.14l.103-.14s.222-.293.464-.468c.241-.175.517-.28.621-.315.104-.035.38-.105.38-.105s.275-.07.345-.21l.172-.35.242-.14s.31 0 .31-.14.035-.384.035-.384l.104-.21s.31-.14.069-.315c-.242-.175-.035-.175-.242-.175a.822.822 0 0 1-.345-.07s.172-.315 0-.175-.276.28-.276.28a1.905 1.905 0 0 1-.276-.14l-.138-.28-.173.385-.207-.35.07-.28s-.035-.035-.07-.175c-.034-.14.173.105-.034-.14-.207-.244-.241-.244-.38-.35-.138-.105-.241-.28-.241-.28l.276-.175.138-.105.31.21s.242.21.276.315c.035.105.173.21.173.21l.276.07.242-.035s.137-.175.24-.175c.105 0 0-.244.105 0 .103.245.172.455.172.455s.138.14.242.14H25.928s.172-.14.172.07v.42c0 .14-.241-.14 0 .14l.242.28s.069.105.069.21v.105l.207.14.103-.176s-.034-.315.035-.21c.069.106.104.316.104.316s-.07.315 0 .525c.068.21.418-.14.453.105.034.245.202-.14.274.28.071.42 1.39-2.169 1.29-2.694-.101-.525-.273-4.375-5.262-8.257ZM15.99 13.763l-.172.035-.311-.035-.104-.175-.103-.14v-.28l.345.175.172.175.138.07s.207.14.035.175zM14.228 6.59s-.076.033-.076.016c0-.016-.018-.077-.018-.1a.037.037 0 0 0-.035-.037c-.016 0 .008-.038.035-.07a.408.408 0 0 1 .094-.076c.03-.017.057-.003.057.036 0 .04.014.098 0 .147-.014.05-.057.084-.057.084zm-.158.158c.018.02.037.03.057.03.03 0 .05-.041.065-.059.014-.018.046-.046.066-.032.02.014.064.092.064.092s.034.048.017.089c-.017.04-.03.046-.03.08 0 .035.03.082.03.1a.315.315 0 0 1-.017.108c-.013.024-.07.022-.115.045-.045.022-.058.071-.08.071-.021 0-.057-.037-.057-.116 0-.079.057-.149.057-.178 0-.03-.043-.072-.057-.11a.25.25 0 0 1 0-.12zm6.37 9.36s-.034-.21-.034-.35c0-.14.07-.175.07-.175l.31.244v.421c0 .07 0 0-.31 0-.311 0 0 0-.035-.14zm7.136-.792c.036-.012.058-.006.064.019.02.075 0 .238 0 .28 0 .093-.12.297-.208.212-.058-.056-.01-.227.144-.51zm-8.343 3.661-.138.14s-.069-.14-.172-.28c-.104-.14-.138-.35-.207-.49-.07-.14-.07-.595-.07-.595v-.42l.346.28v.245l.069.245s0 .28.103.49c.104.21 0 0 .173.175.172.175-.104.21-.104.21zm.31-2.275s.139-.07.173-.175c.035-.105.242 0 .242 0l.207.07.034.21-.034.21s-.138.21-.242.28c-.104.07-.242.14-.242.14s-.24 0-.38-.035l-.034-.175zM23.67 1.674l-.276.034.414.386.207.14s-.103.21-.207.14c-.103-.07-.103-.245-.276-.28l-.172-.035-.449-.386.622.7-.208.211-.138-.07c-.172-.21.035 0-.172-.21s0 .315-.207-.21c-.207-.526-.38-.701-.38-.701l-.034.385.275.456-.552-.246-.31-.245s-.323-.076-.41-.116a1.706 1.706 0 0 0-.143-.059 1.923 1.923 0 0 1-.276-.14s-.069-.175.035-.175c.103 0 .276-.07.276-.07h.656l-.07-.175-.172-.036h-.138l-.31-.034h-.242l-.31.034-.104.176v.14l.034.175s-.103.105.173.14c.276.035.518.21.518.21l.413.106c-.069.105.138.105-.069.105h-.414l-.138-.035s-.173-.035-.276.035l-.104.07-.172.105c-.138.036-.31 0-.31 0v-.315c-.105-.07-.243-.106-.243-.106l.105.28-.07.036h-.172s.07.07-.035.14c-.103.07-.38.07-.38.07s.208.175.105.175c-.104 0-.277-.07-.277-.07v.14l-.207-.175-.138-.14-.138-.105-.38-.14.794.035h.173l-.104-.175s-.103-.106-.207-.106c-.103 0-.276-.035-.276-.035l-.31-.14-.276-.035-.05 1.176.193.12c-.279 2.686-.384 4.017-.315 3.994.103-.034.138-.175.276-.175.139 0 .345.175.345.175-.068-.245-.518-.56-.518-.56s.243-.656.38-.726c.138-.07.276-.245.276-.245l.276-.106s.31.246.31.351c0 .105.346.083.346.083s-.104-.21.069-.21 1.04-.163.522.222c-.517.385.1.385.1.385.172.07.413.105.413.105s.173.036.208.176c.034.14-.104.21.034.315.138.106.207.106.173.245-.035.14 0 .14-.173.14s-.483-.07-.587-.07a.671.671 0 0 1-.241-.07l-.311-.28h-.173l-.207.07-.207.07h-.173s.035.14-.104.14h-.275l-.035.21s-.034.07-.138.07h-.483s-.104.106 0 .175l.104.07.207.106.069.175c.138.106-.035.07.138.106.172.035.31.105.31.105h.208l.138-.246.172.21s0 .071.173.106l.172.035.035-.175h.241l.173.106.07.21-.07.21-.035.21s.035.14-.034.245c-.07.105-.242.21-.242.21-.517-.175-.207.07-.207.07l-.31-.245s-.07-.105-.139 0l-.069.106s.07.175-.068.21a.575.575 0 0 1-.175.006l-.033.134-.104.14-.172.315-.138-.035-.448-.105s.138-.14.241-.175c.104-.035.207-.035.345-.106.138-.07.035-.21.035-.21l-.138-.14-.345-.14-.104.21s3.106 4.87 3.002 4.695c-.103-.175-.124-.243-.192-.383-.07-.14-.174-.282-.174-.282l.002-.21v-.245l-.187-.247s-.138-.175-.104-.28c.034-.105-.035-.316-.035-.316s.035-.07-.034-.175c-.07-.105-.173-.245-.173-.245v-.175c0-.105 0-.175-.069-.28-.069-.106.069.14-.069-.106-.138-.245-.138-.21-.276-.35-.138-.14-.07.07-.138-.14-.07-.21-.172-.386-.172-.386l-.312-.56.45.355-.035-.245.242.035c.137.14.069.065.069.065l.103.21.173-.105c0 .105-.138.105 0 .245s.172.175.276.315c.103.14.276.246.276.246s.172.14.207.28c.034.14.034.14.07.316.033.175.102.315.171.42.07.105.173.07.242.21.07.14.07.21.104.316.034.105-.07.28.069.455.138.175-.035-.105.138.175.172.28-.016.573-.016.714 0 .14.07.56.07.56h.241s.222-.293.463-.468c.242-.175.518-.28.622-.315.104-.036.38-.106.38-.106s.276-.07.345-.21l.172-.35.242-.14s.31 0 .31-.14.035-.386.035-.386l.104-.21s.31-.14.07-.316c-.243-.174-.036-.174-.243-.174s-.345-.071-.345-.071.172-.315 0-.175-.275.28-.275.28a1.905 1.905 0 0 1-.277-.14l-.138-.28-.173.386-.207-.35.07-.281s-.035-.035-.07-.175c-.034-.14.173.105-.034-.14s-.241-.245-.38-.35a1.13 1.13 0 0 1-.241-.281l.276-.175.138-.106.31.21s.242.21.276.316c.035.105.173.21.173.21l.276.07.242-.034s.138-.176.241-.176c.104 0 0-.245.104 0 .104.246.173.456.173.456s.137.14.241.14H25.983s.173-.14.173.07v.42c0 .14-.242-.14 0 .14l.241.28s.07.106.07.21v.106l.206.14.104-.175s-.035-.316.035-.21c.068.105.103.315.103.315s-.069.316 0 .526c.07.21.173.21.208.456.034.245.176.35.107.735-.069.386-.034.526-.034.7 0 .176-.143.141-.073.317.069.175.016.257.073.404.057.147-.03.976.207.128s.398-1.268.398-1.268.115-.315.184-.49c.07-.176.064-.28.064-.386 0-.105.039-.245.143-.28.103-.035 0-.316 0-.421v-.316l.31-.175v-.21s.139 0 .173.21c.035.21.104.386.104.49 0 .106.104.912.104.912l-.024.073-.045.137s.206-.14.206.105c0 .246.104.386.104.386s.07.28-.069.7c-.138.421-.07.491-.138.702-.07.21-.07.245-.103.385-.035.14-.035.35-.035.35l-.207-.14v.982c0 .105 0 .035-.034.28-.035.245 0 .28-.07.49-.042.128.552-1.011.552-1.011a11.97 11.97 0 0 0 .361-1.8c.057-.47 1.467-7.559-5.71-13.025z" style="fill:url(#l)" transform="translate(10.6 6.91)"/><path fill="#692a2c" d="M11.302 18.173c.004.262.001.427-.01.493-.016.099.096.272.066.307-.03.035-.122-.033-.127-.056-.005-.024.013-.24.012-.36 0-.081.02-.209.059-.384zm-.003 1c.015-.095.036-.138.063-.128.04.015.102.033.108.061.006.029.082.138.072.214-.01.075.002.11.032.151.03.042.105-.006.138.033.034.039.069.108-.002.123-.07.015-.124-.034-.178-.085-.053-.05-.066-.062-.107-.015-.04.047-.09.053-.102-.002-.012-.056-.093-.042-.063-.097.031-.055.062-.147.054-.184l-.015-.071z"/><path fill="#c52c2b" d="M11.321 18.077c.005.263.002.427-.009.493-.016.1.095.272.065.308-.03.035-.122-.033-.127-.057-.005-.023.013-.24.013-.36 0-.08.019-.208.058-.384zm-.003 1c.015-.095.036-.137.063-.127.04.014.103.032.109.06.006.03.082.138.071.214-.01.076.002.11.033.152.03.042.105-.006.138.033.033.038.068.107-.002.123-.071.015-.125-.034-.178-.085-.054-.05-.067-.063-.107-.016-.041.047-.09.054-.102-.002-.012-.055-.094-.041-.063-.096.03-.056.062-.147.054-.185l-.016-.07z"/><path fill="url(#m)" fill-rule="nonzero" d="m28.825 16.247-.002.008c.002.002.002-.008.002-.008z" style="fill:url(#m)" transform="translate(10.6 6.91)"/><path fill="url(#n)" fill-rule="nonzero" d="M29.002 15.185c-.037.363-.073.783-.073.783s.06-.468.073-.783z" style="fill:url(#n)" transform="translate(10.6 6.91)"/><path fill="#5b1618" d="m33.294 12.542-.31-.083-.162.033c-.044.125-.05.19-.02.192.045.005.213.133.213.133l.337.34.168.083.33.21.074.144-.198.087s.183.193.254.249c.07.055.177.41.177.41s.182.301.127.296c-.055-.006-.29.032-.38.023-.091-.01-.181-.159-.256-.233-.075-.074-.288-.122-.283-.17a.888.888 0 0 0-.093-.336c-.049-.07.019-.257-.08-.403-.1-.146-.525-.432-.525-.432s-.146-.255-.226-.328c-.08-.073-.195-.17-.184-.271.01-.103.106-.176.182-.307.077-.13.266-.097.424-.08.105.011.249.159.431.443z"/><path fill="#fff" d="m33.107 12.558-.31-.083-.162.033c-.044.125-.05.19-.02.193.045.005.213.132.213.132l.337.34.169.084.329.21.074.143-.197.088s.183.192.253.248c.07.055.177.41.177.41s.183.302.127.296c-.055-.006-.29.033-.38.023-.09-.01-.18-.159-.256-.233-.074-.074-.288-.121-.283-.17a.888.888 0 0 0-.093-.335c-.049-.07.02-.258-.08-.404-.1-.145-.525-.431-.525-.431s-.146-.256-.226-.329c-.08-.073-.195-.169-.184-.271.011-.102.107-.176.183-.306.076-.131.266-.097.423-.08.105.01.25.158.431.442z"/><path fill="#5b1618" d="M33.923 12.523c.035-.02.187-.403.207-.256.019.147.17.434-.029.493-.198.058-.353.013-.343-.061.01-.074.13-.155.165-.176Z"/><path fill="#fff" d="M33.859 12.617c.034-.02.187-.404.206-.257.02.148.17.434-.028.493-.199.059-.354.013-.344-.06.01-.074.131-.155.166-.176Z"/><g fill-rule="nonzero" opacity=".75"><path fill="url(#o)" d="M1.103 12.767c.89-5.46 6.652-11.508 14.111-11.508 8.024 0 13.011 6.434 12.622 8.187-.39 1.754-6.508 8.604-11.278 9.773-4.77 1.17-10.015 2.223-14.533 1.093-.649-1.505-1.583-2.663-.922-7.545Z" opacity=".175" style="fill:url(#o)" transform="rotate(-5 70.334 -99.602)"/><path fill="url(#p)" d="M15.391 1.722c-5.33-.115-9.732 2.447-9.833 5.722-.101 3.276 4.137 6.023 9.466 6.137 5.33.115 9.733-2.446 9.834-5.722.101-3.275-4.137-6.023-9.467-6.137Z" opacity=".352" style="mix-blend-mode:screen;fill:url(#p)" transform="rotate(-6 62.657 -84.142)"/></g><g transform="translate(18.85 35.538)"><mask id="r" fill="#fff"><use xlink:href="#q" width="100%" height="100%"/></mask><use xlink:href="#q" width="100%" height="100%" fill="#a9abb9"/><g fill="#63636a" mask="url(#r)"><path d="M.27 1.635c2.349-.143 4.768-.3 7.258-.47C10.017.994 11.992.862 13.452.77c-.164.113-.265.203-.3.268a.647.647 0 0 0-.073.212L.322 1.928c.026-.087.026-.146 0-.175a.252.252 0 0 1-.052-.118zM.308 3.058c2.324-.072 4.73-.193 7.22-.364 2.489-.17 4.407-.268 5.754-.293a.892.892 0 0 0-.16.202c-.037.066-.037.159 0 .28l-12.67.481-.042-.163ZM.308 4.555c2.324-.05 4.73-.16 7.22-.331 2.489-.171 4.416-.296 5.782-.376a1.125 1.125 0 0 0-.195.237c-.036.066-.013.157.068.273L.427 4.865a.434.434 0 0 0-.015-.154.421.421 0 0 0-.104-.156ZM.14 5.927c2.543-.019 5.006-.077 7.388-.173 2.381-.097 4.328-.17 5.84-.216-.16.103-.273.192-.34.265-.068.074-.068.202 0 .385L.285 6.21c.044-.077.044-.13 0-.157a.765.765 0 0 1-.145-.127z"/></g></g><path fill="#a9abb9" d="M23.743 45.035c.651.542 1.248.813 1.79.813.543 0 1.069-.288 1.577-.863-.581-.259-1.123-.388-1.625-.388-.501 0-1.082.146-1.742.438z"/><path fill="#333336" d="M21.184 43.413h8.311l-2.487 1.659c-.553-.216-1.081-.324-1.583-.324-.501 0-1.025.126-1.57.378z"/><path fill="#9394a0" d="M18.663 33.288h13.875v2.25H18.663z"/><path fill="#ecedf1" d="M30.476 33.288h1v2.25h-1z" opacity=".517"/><path fill="#ecedf1" d="M29.163 33.288h1.125v2.25h-1.125z" opacity=".835"/><path fill="#ecedf1" d="M18.663 33.288h1.125v2.25h-1.125z" opacity=".484"/><path fill="url(#s)" d="M1.875 0H6v2.25H1.875z" opacity=".822" style="fill:url(#s)" transform="translate(18.663 33.288)"/><path fill="url(#t)" d="M1.659 8.326c-.106-.108-.159-.282-.159-.52 0-.358.299-.482.299-.867S1.5 6.652 1.5 6.258c0-.394.299-.458.299-.816 0-.359-.299-.238-.299-.638s.299-.453.299-.797c0-.344-.299-.28-.299-.665s.299-.491.299-.707V2.25h4.18l.182 7.875H3.07Z" opacity=".495" style="mix-blend-mode:screen;fill:url(#t)" transform="translate(18.663 33.288)"/><path fill="url(#u)" d="M12.31 2.25c.043.016.065.143.065.382 0 .358-.338.418-.338.803 0 .385.338.352.338.746s-.338.394-.338.753c0 .358.338.304.338.705 0 .4-.338.386-.338.731s.338.374.338.76c0 .384-.421.654-.633.72-.141.043-.206.093-.193.147l-2.24 2.128H6.938L8.232 2.25Z" opacity=".27" style="mix-blend-mode:screen;fill:url(#u)" transform="translate(18.663 33.288)"/><path fill="url(#v)" d="M10.5 2.25c-.013.016-.02.143-.02.382 0 .358-.253.418-.253.803 0 .385.253.352.253.746s-.253.394-.253.753c0 .358.253.304.253.705 0 .4-.253.386-.253.731s.253.374.253.76c0 .384-.427.643-.427.81v.154l-1.54 2.031H6V2.25Z" opacity=".141" style="mix-blend-mode:multiply;fill:url(#v)" transform="translate(18.663 33.288)"/><path fill="url(#w)" d="M6.815 2.257h6.616c.171.016.257.144.257.385 0 .36-.532.421-.532.81 0 .387.531.354.531.75 0 .398-.53.398-.53.76 0 .36.53.306.53.71 0 .403-.53.39-.53.737s.53.376.53.765c0 .388-.705.648-.705.816 0 .113.028.243.084.39l-2.144 1.812-3.62.106v.014l-.258-.006-.23.007V10.3l-4.134-.108-2.1-1.814c-.262-.08-.392-.241-.392-.482 0-.36.53-.421.53-.81 0-.387-.53-.354-.53-.751s.53-.397.53-.759c0-.361-.53-.304-.53-.708 0-.403.53-.391.53-.739 0-.347-.53-.347-.53-.735s.53-.538.53-.756V2.25h6.096Z" opacity=".408" style="mix-blend-mode:multiply;fill:url(#w)" transform="translate(18.663 33.288)"/></g></svg>