<svg xmlns="http://www.w3.org/2000/svg" xml:space="preserve" width="200" height="200"><linearGradient id="a" x1="-1073.2" x2="-1073.2" y1="126.85" y2="0" gradientTransform="translate(1196.604 37.369)" gradientUnits="userSpaceOnUse"><stop offset=".011" stop-color="#1b3967"/><stop offset=".467" stop-color="#13b5ea"/><stop offset=".995" stop-color="#002b5c"/></linearGradient><linearGradient id="b" x1="-1073.2" x2="-1073.2" y1="126.85" y2="0" gradientTransform="matrix(-1 0 0 1 -994.788 37.368)" gradientUnits="userSpaceOnUse"><stop offset=".011" stop-color="#1b3967"/><stop offset=".467" stop-color="#13b5ea"/><stop offset=".995" stop-color="#002b5c"/></linearGradient><path d="M151.805 51.558c.077 1.313-1.787.968-1.787 2.293 0 38.551-46.558 97.366-91.688 108.73v1.639c59.953-5.52 128.56-67.8 130.07-126.85l-36.599 14.189z" style="fill:url(#a)"/><path d="M133.673 56.301c.076 1.313.12 2.63.12 3.957 0 38.551-30.699 90.497-75.827 101.86v1.639c59.044-2.79 105.81-63.024 105.81-109.2 0-2.375-.128-4.729-.37-7.056l-29.73 8.798z" style="fill:#e96d1f"/><path d="m163.691 46.952-7.617 2.722c.041.962.066 2.254.066 3.225 0 41.219-37.27 98.204-87.272 107.12-3.245 1.088-7.538 2.077-10.932 2.931v1.638c65.254-5.56 111.1-71.866 105.76-117.64Z" style="fill:#d9541e"/><path d="M50.011 51.557c-.077 1.313 1.787.968 1.787 2.293 0 38.551 46.558 97.366 91.688 108.73v1.639c-59.953-5.52-128.56-67.8-130.07-126.85l36.599 14.189z" style="fill:url(#b)"/><path d="M68.143 56.3a68.401 68.401 0 0 0-.12 3.957c0 38.551 30.699 90.497 75.827 101.86v1.639c-59.044-2.79-105.81-63.024-105.81-109.2 0-2.375.128-4.729.371-7.056l29.73 8.798z" style="fill:#a0ce67"/><path d="m38.125 46.951 7.617 2.722a84.24 84.24 0 0 0-.066 3.225c0 41.219 37.271 98.204 87.272 107.12 3.245 1.088 7.538 2.077 10.932 2.931v1.638c-65.254-5.56-111.1-71.866-105.76-117.64Z" style="fill:#439639"/></svg>