<svg xmlns="http://www.w3.org/2000/svg" xmlns:xlink="http://www.w3.org/1999/xlink" width="240" height="240"><defs><linearGradient id="c"><stop offset="0" style="stop-color:#803300;stop-opacity:1"/><stop offset="1" style="stop-color:#632800;stop-opacity:1"/></linearGradient><linearGradient id="b"><stop offset="0" style="stop-color:#7d5d5d;stop-opacity:1"/><stop offset="1" style="stop-color:#653a3a;stop-opacity:1"/></linearGradient><linearGradient id="a"><stop offset="0" style="stop-color:#c8b7b7;stop-opacity:1"/><stop offset="1" style="stop-color:#916f6f;stop-opacity:1"/></linearGradient><linearGradient xlink:href="#a" id="h" x1="163.93" x2="221.336" y1="136.618" y2="103.283" gradientTransform="matrix(.43084 0 0 .43179 -32.505 816.951)" gradientUnits="userSpaceOnUse"/><linearGradient xlink:href="#a" id="i" x1="485.889" x2="531.947" y1="130.257" y2="162.582" gradientTransform="matrix(.43084 0 0 .43179 -32.505 816.951)" gradientUnits="userSpaceOnUse"/><linearGradient xlink:href="#b" id="d" x1="374.636" x2="371.533" y1="428.837" y2="297.517" gradientTransform="matrix(.43084 0 0 .43179 -32.505 816.951)" gradientUnits="userSpaceOnUse"/><linearGradient xlink:href="#b" id="f" x1="476.27" x2="494.491" y1="351.554" y2="344.483" gradientTransform="matrix(.43084 0 0 .43179 -32.505 816.951)" gradientUnits="userSpaceOnUse"/><linearGradient xlink:href="#b" id="e" x1="267.554" x2="243.702" y1="363.71" y2="356.639" gradientTransform="matrix(.43084 0 0 .43179 -32.505 816.951)" gradientUnits="userSpaceOnUse"/><radialGradient xlink:href="#c" id="g" cx="374.306" cy="290.831" r="110.277" fx="374.306" fy="290.831" gradientTransform="matrix(.51642 -.00884 .00347 .20388 -65.93 877.321)" gradientUnits="userSpaceOnUse"/></defs><g transform="translate(0 -812.362)"><path d="M53.27 845.176c-10.267.28-19.577 9.058-20.374 19.375-.26 20.53-.035 41.077-.11 61.614.054 24.537-.111 49.08.081 73.614.622 10.718 10.384 19.874 21.129 19.787 44.355-.013 88.714.078 133.068-.045 10.73-.437 20.036-10.06 20.13-20.8.01-44.474.082-88.952-.035-133.423-.421-10.465-9.655-19.64-20.034-20.092-44.615-.116-89.239-.056-133.856-.03z" style="fill:#9c3;fill-opacity:1;stroke:#690;stroke-width:4.86499977;stroke-miterlimit:4;stroke-dasharray:none;stroke-opacity:1"/><path d="M38.516 918.348c10.154-33.56 1.58-9.905 18.878 16.618 2.012-8.484.912-11.21 3.729-27.272 2.38 10.847 6.65 27.919 13.045 34.695 6.4-4.37 11.614-12.349 17.248-18.62 3.295-4.284 10.062-18.573 9.497-4.336.822 6.108 2.272 20.63 6.23 19.601 4.726-11.444 3.295-46.959 10.615-55.94 2.595 29.155 12.242 39.268 21.038 5.124 1.204 14.144 7.173 22.33 11.51 32.75 1.022 3.03 3.981 14.808 3.306 5.25 3.112-14.577 5.727 13.265 10.192 8.387 3.23-9.858 3.381-13.104 7.145-22.69 4.369-26.443-1.01-3.472 12.666 20.558 9.832-23.162 6.3-52.634 11.759 6.502 2.73-8.508 4.244-23.676 5.88-27.209 3.005 10.942 6.256 17.734 5.95 30.16.552 12.429-.049 24.917.444 37.32-1.651 12.07-1.54 26.255-9.997 32.928-7.397 9.622-17.82 4.436-26.715 6.653-12.356 3.522-25.109 1.369-37.645 1.907-14.931.834-29.804-2.491-44.743-1.504-14.7-.274-29.67 1.726-44.011-3.864-8.414-6.17-11.741-21.523-12.079-34.337-2.35-29.679.341-36.691 6.058-62.68z" style="fill:#690;fill-opacity:1;fill-rule:evenodd;stroke:#690;stroke-width:1.19520223px;stroke-linecap:butt;stroke-linejoin:miter;stroke-opacity:1"/><path d="M38.184 974.466c1.125-3.256 3.691-13.922 4.52-5.11 3.529 6.007 1.466 13.156 2.588 19.719 3.23-.374 5.347-9.998 6.327-14.435 1.85 7.025 3.855 14.136 8.725 19.797 2.497-3.42 2.926-9.5 5.154-13.804 1.076-3.497 4.32-6.998 5.09-1.32 2.41 7.635 3.682 16.145 9.172 22.385 6.365.637 7.544-9.386 10.056-13.842 4.198-10.367 11.093-19.389 15.598-29.583 4.833-5.074 4.813 6.608 7.08 9.343 3.587 9.945 6.222 20.36 11.037 29.77 5.31 6.177 6.01-8.297 9.885-10.693 3.516 1.761 3.404 12.276 7.251 10.959 2.588-6.45 4.922-12.969 6.44-19.745 2.51-2.805 2.909 12.352 8.786 7.296 2.581-5.29 4.701-11.802 10.213-14.794 6.148 1.228 2.978 10.856 7.039 15.001 3.33 9.12 6.638-3.033 9.631-5.88 1.612-3.074 3.856-7.286 4.22-1.646 1.112 3.26.848 13.563 5.198 11.2 2.832-5.414 2.925-10.21 9.345-19.355 5.066 12.332 8.87 26.06 2.968 37.761-1.27 9.097-11.14 10.258-18.412 12.21-8.521 1.09-17.248.204-25.852.505-14.298.067-28.575-.186-42.863.337-6.037-.601-12.102-.549-18.115-.343-7.03-.843-14.138.866-21.114-.72-6.148-.27-12.455-2.22-18.426.224-18.523 2.33-29.725-7.206-29.013-23.35-.793-3.967 5.573-17.686 7.472-21.887z" style="fill:#4c7800;fill-opacity:1;fill-rule:evenodd;stroke:none;stroke-width:1px;stroke-linecap:butt;stroke-linejoin:miter;stroke-opacity:1"/><rect width="175.135" height="175.135" x="32.432" y="844.795" rx="21.962" ry="21.962" style="fill:none;fill-opacity:1;stroke:#690;stroke-width:4.865;stroke-miterlimit:4;stroke-dasharray:none;stroke-opacity:1"/><path d="M126.583 1042.139c-7.09.177-13.67-2.785-18.758-7.51-5.885-4.284-9.381-10.826-12.75-17.11-4.209-8.58-9.094-16.957-10.927-26.52-1.804-5.767.332-4.983-6.287-6.524-2.354-.602-2.933-.655-5.127-1.497-3.308-1.661-6.82-4.903-6.027-9.146.081-3.34 2.748-9.295 3.975-12.043.915-1.657 3.058-3.122 2.201-5.093.53-4.645 1.346-9.54 3.379-13.64 1.236-2.657 3.147-5.532 4.61-8.022-2.197-.966-5.211 2.932-6.488.822-.054-2.053 1.505-4.41 2.594-6.273 1.74-2.949 7.684-3.446 1.048-5.048-5.486-2-9.771-5.953-14.096-9.827-2.304-3.443-6.155-5.84-8.526-9.377-2.884-3.507-6.066-7.574-7.448-11.715-2.096-4.056-4.085-8.102-6.226-12.065-2.121-4.134-3.184-8.158-3.862-12.647-.062-2.655-.533-6.548-.816-8.27.147-4.443.669-9.143 1.838-13.696.496-2.987 1.323-6.245 1.353-8.707.302-6.212 4.301-11.879 9.24-15.468.38 5.045.214 10.872.867 15.306.285 3.271 1.176 5.659 2.405 8.496 1.69 2.851 3.808 6.792 5.93 10.012 3.585 4.564 7.808 9.48 11.028 14.557 1.598 2.043 3.158 4.777 5.235 6.72 1.494 2.053 3.399 3.436 4.942 4.938 2.983 3.217 6.505 5.613 9.541 8.549 1.607 1.592 3.27 2.742 4.457 3.85 2.858 2.654 4.76 3.968 9.666 8.18 1.893 1.34 3.966 3.228 4.84 2.246 4.515-1.786 10.39-1.343 15.346.415 1.556.691 3.273 2.718 4.687 2.148 3.764-3.514 9.334-4.942 14.378-4.826 3.06.331 3.997-3.054 6.185-4.5 5.018-6.463 11.408-11.624 17.09-17.332 1.362-2.024 4.403-5.335 6.049-7.836 1.812-2.275 3.88-6.44 5.53-8.215 3.552-5.416 7.224-11.15 9.738-16.748 2.535-6.566 5.914-12.69 7.948-18.977.59-1.789 1.775-3.52 2.07-5.442 1.691-2.13 3.957 1.313 4.914 2.714 3.448 6.213 4.587 12.965 6.72 19.503 2.042 8.062.683 16.885-1.696 24.903-1.008 6.467-3.553 13.376-5.512 19.269-.267 1.806-2.054 4.97-3.182 6.59-2.772 5.622-6.874 10.262-10.777 15.014-3.912 4.204-8.17 8.324-13.115 10.98-1.368.032-4.203 1.858-1.706 3.44 1.082 1.478 3.067 4.952-.14 4.604-3.224-.544-6.795-.15-2.643 2.961 3.233 3.917 3.43 10.068 2.595 14.832 1.44.742 4.864 1.575 5.218 4.626 2.636 6.3 7.647 11.962 9.053 18.41.18 2.944-1.39 4.878-2.791 6.783-2.794 2.675-7.15 3.873-11.173 2.62-2.785-1.283-1.521 3.808-2.36 5.224-1.208 6.551-3.814 12.306-7.14 17.908-2.943 6.163-6.028 12.068-9.822 17.747-2.216 2.613-4.443 5.225-6.852 7.682-7.05 7.323-11.248 12.073-20.423 12.025z" style="fill:#000;fill-opacity:1;stroke:#000;stroke-width:.43099999;stroke-miterlimit:4;stroke-dasharray:none;stroke-opacity:1" transform="translate(-4.836)"/><path d="M124.948 1039.44c.452-5.432 2.235-13.307-4.44-14.039-2.362-1.186-2.19-4.376.353-5.286 3.618-2.057 7.582-3.645 11.572-1.634 3.678 1.892 2.402 7.901-1.823 7.542-3.545-.438-2.818 2.885-2.882 4.513.094 3.407.47 10.835 5.666 7.48 4.832-2.188 8.82-6.01 12.196-10.56 3.255-3.343 6.738-7.138 9.414-11.554 2.402-3.102-2.184-4.806-2.184-4.806-11.227-6.569-24.748-9.353-37.526-6.663-4.897 1.814-9.969 3.436-14.596 5.785-3.736 1.468-5.813 3.911-2.377 7.658 3.544 6.23 7.527 12.433 13.657 16.473 3.599 2.993 8.228 5.294 12.97 5.09z" style="fill:#fca;fill-opacity:1;stroke:#000;stroke-width:.43131402;stroke-opacity:1" transform="translate(-4.836)"/><path d="M127.779 1028.554c-.332-.864-.247.764 0 0z" style="fill:#ff8080;fill-opacity:1;stroke:#000;stroke-width:.43131402;stroke-opacity:1" transform="translate(-4.836)"/><path d="M95.11 1009.964c6.192-5.004 14.12-7.031 21.553-9.487 9.088-1.252 18.936-.633 27.725 2.81 4.745 1.696 9.06 4.273 13.386 6.79 3.13-6.598 7.2-12.697 9.143-19.664 1.68-9.128 2.87-18.798 3.242-27.778 1.538-4.322-3.755-3.66-3.47-7.73-1.45-6.718-7.97-10.619-12.685-15.03-1.558-1.154-4.15-4.494-5.25-1.181-2.4 3.806-3.79 7.115-6.007 11.281-1.305 1.788-1.818 3.892-3.05 5.178-.6 2.78-4.946 3.739-5.686.548-2.492-3.266-5.108-6.447-7.224-10.03-1.902-2.624-4.22-4.876-5.576-7.81-3.008 5.058-6.554 9.704-9.491 14.758-.602 1.42-5.629 5.426-1.341 4.741 3.667.752 6.895 3.762 8.671 6.925.817 2.158 2.761 5.042 1.424 8.053-1.467 4.722-3.66 9.566-8.526 11.3-1.603.773-4.761.476-6.734-.585-5.26-3.755-6.028-11.553-5.243-16.735 1.044-3.26 2.599-6.25 5.441-8.227 1.206-.66-1.402-2.006-1.985-2.899-3.18-1.269-7.979-13.19-9.545-6.401-.917 3.779-1.658 8.165-1.786 11.765 1.056 2.383-2.268 4.183-3.999-.014-1.211-4.84-5.132-12.133-3.99-2.394-1.4 8.538-1.84 17.375.775 25.679 1.08 3.566 1.606 7.086 3.054 10.301 1.777 5.55 3.684 11.16 6.853 16.053l.322-.217h-.001z" style="fill:url(#d);fill-opacity:1;stroke:#000;stroke-width:.43131402;stroke-opacity:1" transform="translate(-4.836)"/><path d="M144.76 985.106c-5.004-.747-5.724-6.8-7.358-10.812-1.249-5.52-2.303-12.694 3.17-16.225 4.088-3.257 10.85-3.876 14.414.616 2.917 4.094 3.19 10.22 2.5 15.168-1.434 5.629-6.082 11.957-12.727 11.253z" style="fill:#000;fill-opacity:1;stroke:#000;stroke-width:.43131402;stroke-opacity:1" transform="translate(-4.836)"/><path d="M146.497 982.375c7.498-2.187 9.937-11.638 7.749-18.51-.392-4.627-5.172-7.515-9.277-5.408-4.208 1.236-6.896 6.002-5.814 10.413.632 4.557 1.747 9.534 4.721 13.071a3.203 3.203 0 0 0 2.621.434z" style="fill:#fff;fill-opacity:1;stroke:#000;stroke-width:.43131402;stroke-opacity:1" transform="translate(-4.836)"/><path d="M148.646 963.36c5.704 2.6 3.155 13.823.3 15.256-6.94 3.762-6.102-15.138-.3-15.257z" style="fill:#2b1100;fill-opacity:1;stroke:none;stroke-width:.43131402;stroke-opacity:1" transform="translate(-4.836)"/><path d="M145.86 972.31c4.597-4.008-4.892-2.598 0 0z" style="fill:#fff;fill-opacity:1;stroke:none;stroke-width:.43131402;stroke-opacity:1" transform="translate(-4.836)"/><path d="M81.054 982.227c.562-2.458-.062-6.16-.138-8.632-1.094-4.782.3-9.228-.122-14.118.162-2.505.891-4.764 1.021-7.254-3.12 4.121-7.144 8.169-9.543 13.019-.878 3.6-2.021 6.12-2.777 9.666-.163 5.822 6.925 7.753 11.559 7.319z" style="fill:url(#e);fill-opacity:1;stroke:#000;stroke-width:.43131402;stroke-opacity:1" transform="translate(-4.836)"/><path d="M108.908 981.26c1.924-.1 3.362-.885 5.105-2.74 3.479-3.719 4.968-9.543 2.11-13.861-1.666-4.285-8.78-6.848-11.255-1.942-3.51 5.324-3.072 13.321 1.219 18.093l1.528.517 1.293-.066z" style="fill:#fff;fill-opacity:1;stroke:#000;stroke-width:.43131402;stroke-opacity:1" transform="translate(-4.836)"/><path d="M108.876 978.719c-6.61-2.241-2.272-19.001 4.293-13.12 2.5 3.913 2.754 14.367-4.293 13.12z" style="fill:#2b1100;fill-opacity:1;stroke:none;stroke-width:.43131402;stroke-opacity:1" transform="translate(-4.836)"/><path d="M108.479 974.484c4.49-4.734-5.623-2.7 0 0z" style="fill:#fff;fill-opacity:1;stroke:none;stroke-width:.43131402;stroke-opacity:1" transform="translate(-4.836)"/><path d="M176.604 979.5c5.463-.056 9.997-6.966 6.299-11.67-2.658-5.032-5.582-10.37-8.446-15.065-4.382.143-.352 6.604-1.175 9.595-.072 5.267-1.077 10.67-1.241 16.25 1.375.722 3.195.522 4.563.89z" style="fill:url(#f);fill-opacity:1;stroke:#000;stroke-width:.43131402;stroke-opacity:1" transform="translate(-4.836)"/><path d="M89.731 956.607c.174-5.325-.18-12.287 5.59-15.121 3.151 4.443 6.83 8.584 10.643 12.512 1.79-.747 1.513-.694 2.265-2.042 3.437-5.554 7.524-10.676 10.353-16.573 3.694-3.677 6.251 1.553 7.917 4.534 3.388 3.54 5.668 8.097 8.453 11.822 1.246 2.143 2.684 1.814 3.264-.662 2.26-3.776 3.652-7.056 5.588-10.587 1.594-2.354 3.2-8.238 6.75-6.107 6.559 3.576 11.613 9.233 16.744 14.602 1.624 4.572 3.13-.02 2.911-2.844.953-5.013-.929-9.476-4.508-13.07-1.392-1.63-5.634-4.548-2.31-6.303 1.253 1.083 6.393 3.037 6.33.26-3.041-4.936-7.154-9.728-12.756-11.846-4.155-2.529-14.993-.159-16.212-2.767 2.664-2.53 7.203-4.15 9.825-5.5-6.387-.748-13.154-1.07-18.772 2.714-3.12 3.878-6.694.417-10.16-.764-6.525-1.453-13.707-1.069-19.335 3.106-2.654 2.482 12.149 4.158 3.874 6.515-6.03 2.7-12.783 3.788-17.922 7.957-3.679 2.502-9.002 2.7-11.517 6.776 2.306.543 12.506-2.072 6.861 3.892-2.831 5.154-7.162 10.017-7.691 16.008 4.312-4.654 11.665-10.946 11.934.743-.035.944.61 3.294 1.881 2.745z" style="fill:url(#g);fill-opacity:1;stroke:#000;stroke-width:.43131402;stroke-opacity:1" transform="translate(-4.836)"/><path d="M86.146 923.851c4.587-3.61 10.154-5.94 15.853-6.685-1.532-1.948-12.183-.707-3.956-5.254 1.537-1.688 8.366-3.87 5.047-5.7-4.79-3.51-9.025-8.276-14.23-11.858-3.046-2.479-5.578-5.437-8.582-7.64-.572 1.687-1.717 1.458-3.152 3.136-1.628 1.504-4.095 3.578-5.734 3.781-2.408-1.532-.59-3.935 1.735-4.718 1.722-.817 3.099-2.501 3.927-3.569 2.085-.628-.841-2.63-1.789-3.62-.804-1.192-2.715-2.218-2.372-3.072-2.252-.824-3.143-3.716-4.766-5.317-4.036-5.534-7.523-11.093-12.125-16.014-2.306.693-3.965 2.789-6.602 2.177-2.498.262-4.397-5.18-.78-3.25 2.146.191 6.89-1.448 4.293-4.091-1.299-2.404-3.45-6.205-4.204-7.772-1.965-2.48-.394-8.172-.91-11.513.366-8.325-2.3-1.458-3.42 1.478-1.561 6.637-1.821 13.262-3.672 19.853-.403 6.526-.243 12.33 1.152 18.68.82 3.208 1.959 6.379 3.571 9.261 2.902.234 5.415-1.888 7.56-3.886 1.571-2.166 4.303 1.542 2.017 2.574-2.001 2.218-4.954 5.077-7.914 4.35 3.366 6.995 6.404 14.193 11.862 19.91 3.41 3.999 7.238 7.531 10.661 11.056 2.124.879 3.678 4.502 6.074 2.533 2.128-1.584 13.369-8.108 7.831-2.272-2.387 1.827-4.573 3.346-6.893 4.684 1.774 1.092 4.136 1.86 6.39 2.563 1.198-.661 2.022.078 3.128.195z" style="fill:url(#h);fill-opacity:1;stroke:#000;stroke-width:.43131402;stroke-opacity:1" transform="translate(-4.836)"/><path d="M170.168 922.048c4.161-1.028 7.671-4.262 11.006-7.072 4.411-4.534 8.36-9.016 11.87-14.504 1.051-1.022 2.834-3.003 1.81-4.105-3.243.32-6.403-2.604-6.788-5.663 2.762-1.782 5.374 5.656 9.271 2.495 2.01-4.286 3.277-8.977 4.814-13.192 1.574-5.208 2.43-10.503 3.81-15.48.457-2.462 1.102-3.967 1.105-6.949.745-3.362.142-5.698-3.934-4.567-5.855-1.34-.734-4.04 2.957-2.875 1.752-1.827-.901-5.487-1.18-8.05-.906-2.146-1.041-4.41-1.939-6.38-.669-3.06-1.996-6.056-3.848-8.536-1.814 5.145-3.996 10.136-6.105 15.188-1.322 4.532-3.814 8.68-5.535 12.688-2.852 5.368-6.049 9.779-9.21 14.901 5.115.026 10.901-.377 14.672-4.205 2.2-.235 2.72 2.164 1.044 3.095-2.23 2.403-5.13 2.961-8.08 3.919-3.685 1.52-8.724-2.49-10.249 1.03-3.127 4.636-6.285 8.776-10.233 12.918-4.607 4.4-9.801 8.682-13.477 13.681 2.98 2.509 8.476 2.875 12.047.911 2.94 4.772-12.66 2.015-14.971 1.803 4.419.889 15.866 9.288 4.345 7.365-7.85 1.33 2.896 1.198 5.464 2.644 4.432 2.022 8.347 5.555 11.334 8.94z" style="fill:url(#i);fill-opacity:1;stroke:#000;stroke-width:.43131402;stroke-opacity:1" transform="translate(-4.836)"/><path d="M186.427 913.816c-.793-.248-.136.264 0 0zM207.689 869.529c-.476-.497-.62.193 0 0zM51.536 858.909c-.11-.297-.56.292 0 0zM55.042 857.364c-1.18-.266-.275.276 0 0z" style="fill:#ff8080;fill-opacity:1;stroke:#000;stroke-width:.43131402;stroke-opacity:1" transform="translate(-4.836)"/></g></svg>